solid OpenSCAD_Model
  facet normal -1 0 -0
    outer loop
      vertex -15 -15 2
      vertex -15 -5 0
      vertex -15 -15 0
    endloop
  endfacet
  facet normal -1 0 0
    outer loop
      vertex -15 -15 2
      vertex -15 -5 2
      vertex -15 -5 0
    endloop
  endfacet
  facet normal 0 -1 0
    outer loop
      vertex 15 -15 0
      vertex 5 -15 2
      vertex -15 -15 0
    endloop
  endfacet
  facet normal -0 -1 -0
    outer loop
      vertex 15 -15 2
      vertex 5 -15 2
      vertex 15 -15 0
    endloop
  endfacet
  facet normal -0 -1 0
    outer loop
      vertex 5 -15 2
      vertex -15 -15 2
      vertex -15 -15 0
    endloop
  endfacet
  facet normal 0 0 -1
    outer loop
      vertex -15 -5 0
      vertex 15 -15 0
      vertex -15 -15 0
    endloop
  endfacet
  facet normal 0 0 -1
    outer loop
      vertex -15 -5 0
      vertex 15 -5 0
      vertex 15 -15 0
    endloop
  endfacet
  facet normal 0 1 0
    outer loop
      vertex 5 -5 2
      vertex 15 -5 0
      vertex -15 -5 0
    endloop
  endfacet
  facet normal -0 1 0
    outer loop
      vertex -15 -5 2
      vertex -5 -5 2
      vertex -15 -5 0
    endloop
  endfacet
  facet normal -0 1 0
    outer loop
      vertex -5 -5 2
      vertex 5 -5 2
      vertex -15 -5 0
    endloop
  endfacet
  facet normal -0 1 0
    outer loop
      vertex 5 -5 2
      vertex 15 -5 2
      vertex 15 -5 0
    endloop
  endfacet
  facet normal 0 0 1
    outer loop
      vertex 5 -15 2
      vertex -5 -5 2
      vertex -5 -15 2
    endloop
  endfacet
  facet normal 0 0 1
    outer loop
      vertex 5 -5 2
      vertex -5 -5 2
      vertex 5 -15 2
    endloop
  endfacet
  facet normal 0 0 1
    outer loop
      vertex 5 -15 2
      vertex -5 -15 2
      vertex -15 -15 2
    endloop
  endfacet
  facet normal 0 0 -1
    outer loop
      vertex -5 -5 2
      vertex -15 5 2
      vertex -5 5 2
    endloop
  endfacet
  facet normal 0 0 -1
    outer loop
      vertex -5 -5 2
      vertex -15 -5 2
      vertex -15 5 2
    endloop
  endfacet
  facet normal 0 0 -1
    outer loop
      vertex -15 -15 2
      vertex -15 5 2
      vertex -15 -5 2
    endloop
  endfacet
  facet normal 0 0 -1
    outer loop
      vertex 15 15 2
      vertex 15 -5 2
      vertex 15 5 2
    endloop
  endfacet
  facet normal 0 0 -1
    outer loop
      vertex 15 -5 2
      vertex 5 5 2
      vertex 15 5 2
    endloop
  endfacet
  facet normal 0 0 -1
    outer loop
      vertex 5 -5 2
      vertex 5 5 2
      vertex 15 -5 2
    endloop
  endfacet
  facet normal 0 0 1
    outer loop
      vertex 5 5 2
      vertex -5 15 2
      vertex -5 5 2
    endloop
  endfacet
  facet normal 0 -0 1
    outer loop
      vertex 5 5 2
      vertex 5 15 2
      vertex -5 15 2
    endloop
  endfacet
  facet normal 0 0 1
    outer loop
      vertex 15 15 2
      vertex -5 15 2
      vertex 5 15 2
    endloop
  endfacet
  facet normal 1 0 0
    outer loop
      vertex 15 -5 0
      vertex 15 -15 2
      vertex 15 -15 0
    endloop
  endfacet
  facet normal 1 0 -0
    outer loop
      vertex 15 -5 0
      vertex 15 -5 2
      vertex 15 -15 2
    endloop
  endfacet
  facet normal -1 0 0
    outer loop
      vertex -15 5 2
      vertex -15 15 0
      vertex -15 5 0
    endloop
  endfacet
  facet normal -1 0 0
    outer loop
      vertex -15 5 2
      vertex -15 15 2
      vertex -15 15 0
    endloop
  endfacet
  facet normal 0 -1 0
    outer loop
      vertex 15 5 0
      vertex 15 5 2
      vertex 5 5 2
    endloop
  endfacet
  facet normal 0 -1 0
    outer loop
      vertex 15 5 0
      vertex -5 5 2
      vertex -15 5 0
    endloop
  endfacet
  facet normal -0 -1 -0
    outer loop
      vertex 5 5 2
      vertex -5 5 2
      vertex 15 5 0
    endloop
  endfacet
  facet normal -0 -1 0
    outer loop
      vertex -5 5 2
      vertex -15 5 2
      vertex -15 5 0
    endloop
  endfacet
  facet normal 0 0 -1
    outer loop
      vertex -15 15 0
      vertex 15 5 0
      vertex -15 5 0
    endloop
  endfacet
  facet normal 0 0 -1
    outer loop
      vertex -15 15 0
      vertex 15 15 0
      vertex 15 5 0
    endloop
  endfacet
  facet normal 0 1 0
    outer loop
      vertex -5 15 2
      vertex 15 15 0
      vertex -15 15 0
    endloop
  endfacet
  facet normal -0 1 0
    outer loop
      vertex -15 15 2
      vertex -5 15 2
      vertex -15 15 0
    endloop
  endfacet
  facet normal -0 1 0
    outer loop
      vertex -5 15 2
      vertex 15 15 2
      vertex 15 15 0
    endloop
  endfacet
  facet normal 1 0 0
    outer loop
      vertex 15 15 2
      vertex 15 5 2
      vertex 15 5 0
    endloop
  endfacet
  facet normal 1 0 0
    outer loop
      vertex 15 15 0
      vertex 15 15 2
      vertex 15 5 0
    endloop
  endfacet
  facet normal -1.77636e-016 -1 0
    outer loop
      vertex 15 -15 2
      vertex 5 -15 4
      vertex 5 -15 2
    endloop
  endfacet
  facet normal -1.77636e-016 -1 0
    outer loop
      vertex 15 -15 2
      vertex 15 -15 4
      vertex 5 -15 4
    endloop
  endfacet
  facet normal 1 -1.77636e-016 0
    outer loop
      vertex 15 -5 2
      vertex 15 -5 4
      vertex 15 -15 4
    endloop
  endfacet
  facet normal 1 -1.77636e-016 0
    outer loop
      vertex 15 15 2
      vertex 15 15 4
      vertex 15 -5 4
    endloop
  endfacet
  facet normal 1 -1.77636e-016 0
    outer loop
      vertex 15 15 2
      vertex 15 -5 4
      vertex 15 -5 2
    endloop
  endfacet
  facet normal 1 -1.77636e-016 0
    outer loop
      vertex 15 -5 2
      vertex 15 -15 4
      vertex 15 -15 2
    endloop
  endfacet
  facet normal -1 1.77636e-016 0
    outer loop
      vertex 5 -15 4
      vertex 5 -5 2
      vertex 5 -15 2
    endloop
  endfacet
  facet normal -1 1.77636e-016 0
    outer loop
      vertex 5 5 4
      vertex 5 15 2
      vertex 5 5 2
    endloop
  endfacet
  facet normal -1 2.66454e-016 0
    outer loop
      vertex 5 5 4
      vertex 5 5 2
      vertex 5 -5 4
    endloop
  endfacet
  facet normal -1 1.77636e-016 0
    outer loop
      vertex 5 15 4
      vertex 5 15 2
      vertex 5 5 4
    endloop
  endfacet
  facet normal -1 2.66454e-016 0
    outer loop
      vertex 5 -5 4
      vertex 5 5 2
      vertex 5 -5 2
    endloop
  endfacet
  facet normal -1 1.77636e-016 0
    outer loop
      vertex 5 -5 4
      vertex 5 -5 2
      vertex 5 -15 4
    endloop
  endfacet
  facet normal 0 0 1
    outer loop
      vertex 15 -5 4
      vertex 5 5 4
      vertex 5 -5 4
    endloop
  endfacet
  facet normal 0 0 1
    outer loop
      vertex 15 -5 4
      vertex 15 15 4
      vertex 15 5 4
    endloop
  endfacet
  facet normal 0 -0 1
    outer loop
      vertex 15 -5 4
      vertex 15 5 4
      vertex 5 5 4
    endloop
  endfacet
  facet normal 0 0 -1
    outer loop
      vertex 5 5 4
      vertex -5 15 4
      vertex 5 15 4
    endloop
  endfacet
  facet normal 0 0 -1
    outer loop
      vertex 5 15 4
      vertex -5 15 4
      vertex 15 15 4
    endloop
  endfacet
  facet normal 0 0 -1
    outer loop
      vertex 5 5 4
      vertex -5 5 4
      vertex -5 15 4
    endloop
  endfacet
  facet normal 0 -0 -1
    outer loop
      vertex -5 -5 4
      vertex 5 -15 4
      vertex -5 -15 4
    endloop
  endfacet
  facet normal -0 0 -1
    outer loop
      vertex 5 -5 4
      vertex 5 -15 4
      vertex -5 -5 4
    endloop
  endfacet
  facet normal 0 0 -1
    outer loop
      vertex 5 -15 4
      vertex -15 -15 4
      vertex -5 -15 4
    endloop
  endfacet
  facet normal 0 0 1
    outer loop
      vertex -5 -5 4
      vertex -15 5 4
      vertex -15 -5 4
    endloop
  endfacet
  facet normal 0 -0 1
    outer loop
      vertex -15 -5 4
      vertex -15 5 4
      vertex -15 -15 4
    endloop
  endfacet
  facet normal 0 -0 1
    outer loop
      vertex -5 -5 4
      vertex -5 5 4
      vertex -15 5 4
    endloop
  endfacet
  facet normal 1.77636e-016 1 0
    outer loop
      vertex 5 15 4
      vertex 15 15 2
      vertex 5 15 2
    endloop
  endfacet
  facet normal 1.77636e-016 1 0
    outer loop
      vertex 5 15 4
      vertex 15 15 4
      vertex 15 15 2
    endloop
  endfacet
  facet normal -1.77636e-016 -1 0
    outer loop
      vertex -5 -15 2
      vertex -5 -15 4
      vertex -15 -15 4
    endloop
  endfacet
  facet normal -1.77636e-016 -1 0
    outer loop
      vertex -5 -15 2
      vertex -15 -15 4
      vertex -15 -15 2
    endloop
  endfacet
  facet normal 1 -1.77636e-016 0
    outer loop
      vertex -5 -5 2
      vertex -5 -15 4
      vertex -5 -15 2
    endloop
  endfacet
  facet normal 1 -2.66454e-016 0
    outer loop
      vertex -5 5 2
      vertex -5 5 4
      vertex -5 -5 4
    endloop
  endfacet
  facet normal 1 -1.77636e-016 0
    outer loop
      vertex -5 15 2
      vertex -5 5 4
      vertex -5 5 2
    endloop
  endfacet
  facet normal 1 -1.77636e-016 0
    outer loop
      vertex -5 15 2
      vertex -5 15 4
      vertex -5 5 4
    endloop
  endfacet
  facet normal 1 -2.66454e-016 0
    outer loop
      vertex -5 5 2
      vertex -5 -5 4
      vertex -5 -5 2
    endloop
  endfacet
  facet normal 1 -1.77636e-016 0
    outer loop
      vertex -5 -5 2
      vertex -5 -5 4
      vertex -5 -15 4
    endloop
  endfacet
  facet normal -1 1.77636e-016 0
    outer loop
      vertex -15 -15 4
      vertex -15 5 2
      vertex -15 -15 2
    endloop
  endfacet
  facet normal -1 1.77636e-016 0
    outer loop
      vertex -15 -15 4
      vertex -15 5 4
      vertex -15 5 2
    endloop
  endfacet
  facet normal -1 1.77636e-016 0
    outer loop
      vertex -15 5 4
      vertex -15 15 2
      vertex -15 5 2
    endloop
  endfacet
  facet normal -1 1.77636e-016 0
    outer loop
      vertex -15 15 4
      vertex -15 15 2
      vertex -15 5 4
    endloop
  endfacet
  facet normal 1.77636e-016 1 0
    outer loop
      vertex -15 15 4
      vertex -5 15 2
      vertex -15 15 2
    endloop
  endfacet
  facet normal 1.77636e-016 1 0
    outer loop
      vertex -15 15 4
      vertex -5 15 4
      vertex -5 15 2
    endloop
  endfacet
  facet normal -1 0 0
    outer loop
      vertex -15 -15 6
      vertex -15 -5 6
      vertex -15 -15 4
    endloop
  endfacet
  facet normal -1 0 -0
    outer loop
      vertex -15 -5 6
      vertex -15 -5 4
      vertex -15 -15 4
    endloop
  endfacet
  facet normal 0 -1 0
    outer loop
      vertex 5 -15 4
      vertex -15 -15 6
      vertex -15 -15 4
    endloop
  endfacet
  facet normal 0 -1 0
    outer loop
      vertex 5 -15 4
      vertex 15 -15 6
      vertex -15 -15 6
    endloop
  endfacet
  facet normal 0 -1 0
    outer loop
      vertex 15 -15 4
      vertex 15 -15 6
      vertex 5 -15 4
    endloop
  endfacet
  facet normal 0 1 0
    outer loop
      vertex -15 -5 6
      vertex -5 -5 4
      vertex -15 -5 4
    endloop
  endfacet
  facet normal 0 1 0
    outer loop
      vertex -15 -5 6
      vertex 5 -5 4
      vertex -5 -5 4
    endloop
  endfacet
  facet normal 0 1 0
    outer loop
      vertex 15 -5 6
      vertex 15 -5 4
      vertex 5 -5 4
    endloop
  endfacet
  facet normal 0 1 0
    outer loop
      vertex 15 -5 6
      vertex 5 -5 4
      vertex -15 -5 6
    endloop
  endfacet
  facet normal 0 0 1
    outer loop
      vertex 15 -15 6
      vertex -15 -5 6
      vertex -15 -15 6
    endloop
  endfacet
  facet normal 0 -0 1
    outer loop
      vertex 15 -15 6
      vertex 15 -5 6
      vertex -15 -5 6
    endloop
  endfacet
  facet normal 1 0 0
    outer loop
      vertex 15 -5 4
      vertex 15 -15 6
      vertex 15 -15 4
    endloop
  endfacet
  facet normal 1 0 -0
    outer loop
      vertex 15 -5 4
      vertex 15 -5 6
      vertex 15 -15 6
    endloop
  endfacet
  facet normal -1 0 0
    outer loop
      vertex -15 5 6
      vertex -15 15 4
      vertex -15 5 4
    endloop
  endfacet
  facet normal -1 0 0
    outer loop
      vertex -15 5 6
      vertex -15 15 6
      vertex -15 15 4
    endloop
  endfacet
  facet normal 0 -1 0
    outer loop
      vertex -15 5 4
      vertex -5 5 4
      vertex -15 5 6
    endloop
  endfacet
  facet normal 0 -1 0
    outer loop
      vertex -5 5 4
      vertex 15 5 6
      vertex -15 5 6
    endloop
  endfacet
  facet normal 0 -1 0
    outer loop
      vertex 5 5 4
      vertex 15 5 6
      vertex -5 5 4
    endloop
  endfacet
  facet normal 0 -1 0
    outer loop
      vertex 15 5 4
      vertex 15 5 6
      vertex 5 5 4
    endloop
  endfacet
  facet normal 0 1 0
    outer loop
      vertex -15 15 6
      vertex -5 15 4
      vertex -15 15 4
    endloop
  endfacet
  facet normal 0 1 0
    outer loop
      vertex 15 15 6
      vertex 15 15 4
      vertex -5 15 4
    endloop
  endfacet
  facet normal 0 1 0
    outer loop
      vertex 15 15 6
      vertex -5 15 4
      vertex -15 15 6
    endloop
  endfacet
  facet normal 0 0 1
    outer loop
      vertex 15 5 6
      vertex -15 15 6
      vertex -15 5 6
    endloop
  endfacet
  facet normal 0 -0 1
    outer loop
      vertex 15 5 6
      vertex 15 15 6
      vertex -15 15 6
    endloop
  endfacet
  facet normal 1 0 0
    outer loop
      vertex 15 15 4
      vertex 15 5 6
      vertex 15 5 4
    endloop
  endfacet
  facet normal 1 0 -0
    outer loop
      vertex 15 15 4
      vertex 15 15 6
      vertex 15 5 6
    endloop
  endfacet
endsolid OpenSCAD_Model
