solid OpenSCAD_Model
  facet normal -1 0 -0
    outer loop
      vertex -10 1.77636e-015 2
      vertex -10 10 0
      vertex -10 0 0
    endloop
  endfacet
  facet normal -1 0 0
    outer loop
      vertex -10 0 2
      vertex -10 1.77636e-015 2
      vertex -10 0 0
    endloop
  endfacet
  facet normal -1 0 0
    outer loop
      vertex -10 1.77636e-015 2
      vertex -10 10 2
      vertex -10 10 0
    endloop
  endfacet
  facet normal 0 -1 0
    outer loop
      vertex -5 0 0
      vertex -10 0 2
      vertex -10 0 0
    endloop
  endfacet
  facet normal 0 -1 0
    outer loop
      vertex -5 0 0
      vertex -5 0 2
      vertex -10 0 2
    endloop
  endfacet
  facet normal 0 -1 0
    outer loop
      vertex 10 0 0
      vertex 5 0 2
      vertex 5 0 0
    endloop
  endfacet
  facet normal 0 -1 0
    outer loop
      vertex 10 0 0
      vertex 10 0 2
      vertex 5 0 2
    endloop
  endfacet
  facet normal 0 -0 -1
    outer loop
      vertex 10 10 0
      vertex 10 0 0
      vertex 4.04508 2.93893 0
    endloop
  endfacet
  facet normal 0 0 -1
    outer loop
      vertex 10 0 0
      vertex 5 0 0
      vertex 4.75528 1.54508 0
    endloop
  endfacet
  facet normal 0 0 -1
    outer loop
      vertex 10 0 0
      vertex 4.75528 1.54508 0
      vertex 4.04508 2.93893 0
    endloop
  endfacet
  facet normal 0 0 -1
    outer loop
      vertex 10 10 0
      vertex 4.04508 2.93893 0
      vertex 2.93893 4.04508 0
    endloop
  endfacet
  facet normal 0 0 -1
    outer loop
      vertex 10 10 0
      vertex 2.93893 4.04508 0
      vertex 1.54508 4.75528 0
    endloop
  endfacet
  facet normal -0 0 -1
    outer loop
      vertex 10 10 0
      vertex 3.06152e-016 5 0
      vertex -10 10 0
    endloop
  endfacet
  facet normal 0 0 -1
    outer loop
      vertex 1.54508 4.75528 0
      vertex 3.06152e-016 5 0
      vertex 10 10 0
    endloop
  endfacet
  facet normal -0 0 -1
    outer loop
      vertex 3.06152e-016 5 0
      vertex -1.54508 4.75528 0
      vertex -10 10 0
    endloop
  endfacet
  facet normal -0 0 -1
    outer loop
      vertex -1.54508 4.75528 0
      vertex -2.93893 4.04508 0
      vertex -10 10 0
    endloop
  endfacet
  facet normal -0 0 -1
    outer loop
      vertex -4.04508 2.93893 0
      vertex -10 0 0
      vertex -10 10 0
    endloop
  endfacet
  facet normal -0 0 -1
    outer loop
      vertex -2.93893 4.04508 0
      vertex -4.04508 2.93893 0
      vertex -10 10 0
    endloop
  endfacet
  facet normal 0 0 -1
    outer loop
      vertex -4.04508 2.93893 0
      vertex -4.75528 1.54508 0
      vertex -10 0 0
    endloop
  endfacet
  facet normal 0 0 -1
    outer loop
      vertex -4.75528 1.54508 0
      vertex -5 6.12303e-016 0
      vertex -10 0 0
    endloop
  endfacet
  facet normal 0 -0 -1
    outer loop
      vertex -5 6.12303e-016 0
      vertex -5 0 0
      vertex -10 0 0
    endloop
  endfacet
  facet normal 0 1 0
    outer loop
      vertex 2.22045e-015 10 2
      vertex 10 10 0
      vertex -10 10 0
    endloop
  endfacet
  facet normal -0 1 0
    outer loop
      vertex -10 10 2
      vertex 2.22045e-015 10 2
      vertex -10 10 0
    endloop
  endfacet
  facet normal -0 1 0
    outer loop
      vertex 2.22045e-015 10 2
      vertex 10 10 2
      vertex 10 10 0
    endloop
  endfacet
  facet normal -0 -0 -1
    outer loop
      vertex -5 0 2
      vertex -4.75528 -1.54508 2
      vertex -10 0 2
    endloop
  endfacet
  facet normal -0 -0 -1
    outer loop
      vertex -4.75528 -1.54508 2
      vertex -4.04508 -2.93893 2
      vertex -10 0 2
    endloop
  endfacet
  facet normal 0 0 -1
    outer loop
      vertex -10 -10 2
      vertex -10 0 2
      vertex -4.04508 -2.93893 2
    endloop
  endfacet
  facet normal 0 0 -1
    outer loop
      vertex -10 -10 2
      vertex -4.04508 -2.93893 2
      vertex -2.93893 -4.04508 2
    endloop
  endfacet
  facet normal -0 0 -1
    outer loop
      vertex -1.11022e-015 -5 2
      vertex -2.22045e-015 -10 2
      vertex -1.54508 -4.75528 2
    endloop
  endfacet
  facet normal 0 0 -1
    outer loop
      vertex -2.22045e-015 -10 2
      vertex -2.93893 -4.04508 2
      vertex -1.54508 -4.75528 2
    endloop
  endfacet
  facet normal 0 0 -1
    outer loop
      vertex -2.22045e-015 -10 2
      vertex -10 -10 2
      vertex -2.93893 -4.04508 2
    endloop
  endfacet
  facet normal 0 0 -1
    outer loop
      vertex -10 -10 2
      vertex -10 1.77636e-015 2
      vertex -10 0 2
    endloop
  endfacet
  facet normal 0 0 1
    outer loop
      vertex 1.54508 4.75528 2
      vertex 2.22045e-015 10 2
      vertex 1.11022e-015 5 2
    endloop
  endfacet
  facet normal -0 -0 1
    outer loop
      vertex 1.54508 4.75528 2
      vertex 2.93893 4.04508 2
      vertex 2.22045e-015 10 2
    endloop
  endfacet
  facet normal 0 0 1
    outer loop
      vertex 10 10 2
      vertex 2.22045e-015 10 2
      vertex 2.93893 4.04508 2
    endloop
  endfacet
  facet normal 0 0 1
    outer loop
      vertex 10 10 2
      vertex 2.93893 4.04508 2
      vertex 4.04508 2.93893 2
    endloop
  endfacet
  facet normal 0 -0 1
    outer loop
      vertex 5 0 2
      vertex 10 0 2
      vertex 4.75528 1.54508 2
    endloop
  endfacet
  facet normal 0 0 1
    outer loop
      vertex 10 0 2
      vertex 4.04508 2.93893 2
      vertex 4.75528 1.54508 2
    endloop
  endfacet
  facet normal 0 -0 1
    outer loop
      vertex 10 0 2
      vertex 10 10 2
      vertex 4.04508 2.93893 2
    endloop
  endfacet
  facet normal 1 0 0
    outer loop
      vertex 10 10 0
      vertex 10 0 2
      vertex 10 0 0
    endloop
  endfacet
  facet normal 1 0 -0
    outer loop
      vertex 10 10 0
      vertex 10 10 2
      vertex 10 0 2
    endloop
  endfacet
  facet normal -1 1.77636e-016 0
    outer loop
      vertex -10 -10 4
      vertex -10 1.77636e-015 2
      vertex -10 -10 2
    endloop
  endfacet
  facet normal -1 1.77636e-016 0
    outer loop
      vertex -10 -10 4
      vertex -10 1.77636e-015 4
      vertex -10 1.77636e-015 2
    endloop
  endfacet
  facet normal -1 1.77636e-016 0
    outer loop
      vertex -10 1.77636e-015 4
      vertex -10 10 2
      vertex -10 1.77636e-015 2
    endloop
  endfacet
  facet normal -1 1.77636e-016 0
    outer loop
      vertex -10 10 4
      vertex -10 10 2
      vertex -10 1.77636e-015 4
    endloop
  endfacet
  facet normal 1 -2.22045e-016 0
    outer loop
      vertex 2.22045e-015 10 2
      vertex 1.11022e-015 5 4
      vertex 1.11022e-015 5 2
    endloop
  endfacet
  facet normal 1 -2.22045e-016 0
    outer loop
      vertex 2.22045e-015 10 2
      vertex 2.22045e-015 10 4
      vertex 1.11022e-015 5 4
    endloop
  endfacet
  facet normal 1 -2.22045e-016 0
    outer loop
      vertex -1.11022e-015 -5 2
      vertex -2.22045e-015 -10 4
      vertex -2.22045e-015 -10 2
    endloop
  endfacet
  facet normal 1 -2.22045e-016 0
    outer loop
      vertex -1.11022e-015 -5 2
      vertex -1.11022e-015 -5 4
      vertex -2.22045e-015 -10 4
    endloop
  endfacet
  facet normal -1.77636e-016 -1 0
    outer loop
      vertex -2.22045e-015 -10 2
      vertex -10 -10 4
      vertex -10 -10 2
    endloop
  endfacet
  facet normal -1.77636e-016 -1 0
    outer loop
      vertex -2.22045e-015 -10 2
      vertex -2.22045e-015 -10 4
      vertex -10 -10 4
    endloop
  endfacet
  facet normal 1.77636e-016 1 0
    outer loop
      vertex -10 10 4
      vertex 2.22045e-015 10 2
      vertex -10 10 2
    endloop
  endfacet
  facet normal 1.77636e-016 1 0
    outer loop
      vertex -10 10 4
      vertex 2.22045e-015 10 4
      vertex 2.22045e-015 10 2
    endloop
  endfacet
  facet normal 0 0 1
    outer loop
      vertex -2.22045e-015 -10 4
      vertex -2.93893 -4.04508 4
      vertex -10 -10 4
    endloop
  endfacet
  facet normal 0 0 1
    outer loop
      vertex -1.11022e-015 -5 4
      vertex -1.54508 -4.75528 4
      vertex -2.22045e-015 -10 4
    endloop
  endfacet
  facet normal 0 0 1
    outer loop
      vertex -4.04508 -2.93893 4
      vertex -10 -10 4
      vertex -2.93893 -4.04508 4
    endloop
  endfacet
  facet normal 0 0 1
    outer loop
      vertex -1.54508 -4.75528 4
      vertex -2.93893 -4.04508 4
      vertex -2.22045e-015 -10 4
    endloop
  endfacet
  facet normal 0 0 1
    outer loop
      vertex -4.75528 -1.54508 4
      vertex -10 0 4
      vertex -4.04508 -2.93893 4
    endloop
  endfacet
  facet normal 0 0 1
    outer loop
      vertex -5 0 4
      vertex -10 0 4
      vertex -4.75528 -1.54508 4
    endloop
  endfacet
  facet normal 0 0 1
    outer loop
      vertex -4.04508 -2.93893 4
      vertex -10 0 4
      vertex -10 -10 4
    endloop
  endfacet
  facet normal 0 -0 1
    outer loop
      vertex -10 0 4
      vertex -10 1.77636e-015 4
      vertex -10 -10 4
    endloop
  endfacet
  facet normal 0 0 -1
    outer loop
      vertex 10 0 4
      vertex 4.04508 2.93893 4
      vertex 10 10 4
    endloop
  endfacet
  facet normal 0 0 -1
    outer loop
      vertex 5 0 4
      vertex 4.75528 1.54508 4
      vertex 10 0 4
    endloop
  endfacet
  facet normal 0 0 -1
    outer loop
      vertex 2.93893 4.04508 4
      vertex 10 10 4
      vertex 4.04508 2.93893 4
    endloop
  endfacet
  facet normal 0 0 -1
    outer loop
      vertex 4.75528 1.54508 4
      vertex 4.04508 2.93893 4
      vertex 10 0 4
    endloop
  endfacet
  facet normal 0 0 -1
    outer loop
      vertex 2.93893 4.04508 4
      vertex 2.22045e-015 10 4
      vertex 10 10 4
    endloop
  endfacet
  facet normal 0 0 -1
    outer loop
      vertex 1.54508 4.75528 4
      vertex 2.22045e-015 10 4
      vertex 2.93893 4.04508 4
    endloop
  endfacet
  facet normal 0 0 -1
    outer loop
      vertex 1.11022e-015 5 4
      vertex 2.22045e-015 10 4
      vertex 1.54508 4.75528 4
    endloop
  endfacet
  facet normal -1 0 0
    outer loop
      vertex -10 0 6
      vertex -10 1.77636e-015 4
      vertex -10 0 4
    endloop
  endfacet
  facet normal -1 0 0
    outer loop
      vertex -10 0 6
      vertex -10 1.77636e-015 6
      vertex -10 1.77636e-015 4
    endloop
  endfacet
  facet normal -1 0 0
    outer loop
      vertex -10 1.77636e-015 6
      vertex -10 10 4
      vertex -10 1.77636e-015 4
    endloop
  endfacet
  facet normal -1 -0 -0
    outer loop
      vertex -10 10 6
      vertex -10 10 4
      vertex -10 1.77636e-015 6
    endloop
  endfacet
  facet normal 0 -1 0
    outer loop
      vertex -5 0 4
      vertex -10 0 6
      vertex -10 0 4
    endloop
  endfacet
  facet normal 0 -1 0
    outer loop
      vertex -5 0 4
      vertex -5 0 6
      vertex -10 0 6
    endloop
  endfacet
  facet normal 0 -1 0
    outer loop
      vertex 10 0 4
      vertex 5 0 6
      vertex 5 0 4
    endloop
  endfacet
  facet normal 0 -1 0
    outer loop
      vertex 10 0 4
      vertex 10 0 6
      vertex 5 0 6
    endloop
  endfacet
  facet normal 0 1 0
    outer loop
      vertex -10 10 6
      vertex 2.22045e-015 10 4
      vertex -10 10 4
    endloop
  endfacet
  facet normal 0 1 0
    outer loop
      vertex 2.22045e-015 10 6
      vertex 10 10 4
      vertex 2.22045e-015 10 4
    endloop
  endfacet
  facet normal 0 1 0
    outer loop
      vertex 10 10 6
      vertex 10 10 4
      vertex 2.22045e-015 10 6
    endloop
  endfacet
  facet normal 0 1 0
    outer loop
      vertex 2.22045e-015 10 6
      vertex 2.22045e-015 10 4
      vertex -10 10 6
    endloop
  endfacet
  facet normal -0 -0 -1
    outer loop
      vertex -5 0 6
      vertex -4.75528 -1.54508 6
      vertex -10 0 6
    endloop
  endfacet
  facet normal -0 -0 -1
    outer loop
      vertex -4.75528 -1.54508 6
      vertex -4.04508 -2.93893 6
      vertex -10 0 6
    endloop
  endfacet
  facet normal 0 0 -1
    outer loop
      vertex -10 -10 6
      vertex -10 0 6
      vertex -4.04508 -2.93893 6
    endloop
  endfacet
  facet normal 0 0 -1
    outer loop
      vertex -10 -10 6
      vertex -4.04508 -2.93893 6
      vertex -2.93893 -4.04508 6
    endloop
  endfacet
  facet normal -0 0 -1
    outer loop
      vertex -1.11022e-015 -5 6
      vertex -2.22045e-015 -10 6
      vertex -1.54508 -4.75528 6
    endloop
  endfacet
  facet normal 0 0 -1
    outer loop
      vertex -2.22045e-015 -10 6
      vertex -2.93893 -4.04508 6
      vertex -1.54508 -4.75528 6
    endloop
  endfacet
  facet normal 0 0 -1
    outer loop
      vertex -2.22045e-015 -10 6
      vertex -10 -10 6
      vertex -2.93893 -4.04508 6
    endloop
  endfacet
  facet normal 0 0 -1
    outer loop
      vertex -10 -10 6
      vertex -10 1.77636e-015 6
      vertex -10 0 6
    endloop
  endfacet
  facet normal 0 0 1
    outer loop
      vertex 1.54508 4.75528 6
      vertex 2.22045e-015 10 6
      vertex 1.11022e-015 5 6
    endloop
  endfacet
  facet normal -0 -0 1
    outer loop
      vertex 1.54508 4.75528 6
      vertex 2.93893 4.04508 6
      vertex 2.22045e-015 10 6
    endloop
  endfacet
  facet normal 0 0 1
    outer loop
      vertex 10 10 6
      vertex 2.22045e-015 10 6
      vertex 2.93893 4.04508 6
    endloop
  endfacet
  facet normal 0 0 1
    outer loop
      vertex 10 10 6
      vertex 2.93893 4.04508 6
      vertex 4.04508 2.93893 6
    endloop
  endfacet
  facet normal 0 -0 1
    outer loop
      vertex 5 0 6
      vertex 10 0 6
      vertex 4.75528 1.54508 6
    endloop
  endfacet
  facet normal 0 0 1
    outer loop
      vertex 10 0 6
      vertex 4.04508 2.93893 6
      vertex 4.75528 1.54508 6
    endloop
  endfacet
  facet normal 0 -0 1
    outer loop
      vertex 10 0 6
      vertex 10 10 6
      vertex 4.04508 2.93893 6
    endloop
  endfacet
  facet normal 1 0 0
    outer loop
      vertex 10 10 4
      vertex 10 0 6
      vertex 10 0 4
    endloop
  endfacet
  facet normal 1 0 -0
    outer loop
      vertex 10 10 4
      vertex 10 10 6
      vertex 10 0 6
    endloop
  endfacet
  facet normal -1 1.77636e-016 0
    outer loop
      vertex -10 -10 8
      vertex -10 1.77636e-015 6
      vertex -10 -10 6
    endloop
  endfacet
  facet normal -1 1.77636e-016 0
    outer loop
      vertex -10 -10 8
      vertex -10 1.77636e-015 8
      vertex -10 1.77636e-015 6
    endloop
  endfacet
  facet normal -1 1.77636e-016 0
    outer loop
      vertex -10 1.77636e-015 8
      vertex -10 10 6
      vertex -10 1.77636e-015 6
    endloop
  endfacet
  facet normal -1 1.77636e-016 0
    outer loop
      vertex -10 10 8
      vertex -10 10 6
      vertex -10 1.77636e-015 8
    endloop
  endfacet
  facet normal 1 -2.22045e-016 0
    outer loop
      vertex 2.22045e-015 10 6
      vertex 1.11022e-015 5 8
      vertex 1.11022e-015 5 6
    endloop
  endfacet
  facet normal 1 -2.22045e-016 0
    outer loop
      vertex 2.22045e-015 10 6
      vertex 2.22045e-015 10 8
      vertex 1.11022e-015 5 8
    endloop
  endfacet
  facet normal 1 -2.22045e-016 0
    outer loop
      vertex -1.11022e-015 -5 6
      vertex -2.22045e-015 -10 8
      vertex -2.22045e-015 -10 6
    endloop
  endfacet
  facet normal 1 -2.22045e-016 0
    outer loop
      vertex -1.11022e-015 -5 6
      vertex -1.11022e-015 -5 8
      vertex -2.22045e-015 -10 8
    endloop
  endfacet
  facet normal -1.77636e-016 -1 0
    outer loop
      vertex -2.22045e-015 -10 6
      vertex -10 -10 8
      vertex -10 -10 6
    endloop
  endfacet
  facet normal -1.77636e-016 -1 0
    outer loop
      vertex -2.22045e-015 -10 6
      vertex -2.22045e-015 -10 8
      vertex -10 -10 8
    endloop
  endfacet
  facet normal 1.77636e-016 1 0
    outer loop
      vertex -10 10 8
      vertex 2.22045e-015 10 6
      vertex -10 10 6
    endloop
  endfacet
  facet normal 1.77636e-016 1 0
    outer loop
      vertex -10 10 8
      vertex 2.22045e-015 10 8
      vertex 2.22045e-015 10 6
    endloop
  endfacet
  facet normal 0 0 1
    outer loop
      vertex -2.22045e-015 -10 8
      vertex -2.93893 -4.04508 8
      vertex -10 -10 8
    endloop
  endfacet
  facet normal 0 0 1
    outer loop
      vertex -1.11022e-015 -5 8
      vertex -1.54508 -4.75528 8
      vertex -2.22045e-015 -10 8
    endloop
  endfacet
  facet normal 0 0 1
    outer loop
      vertex -4.04508 -2.93893 8
      vertex -10 -10 8
      vertex -2.93893 -4.04508 8
    endloop
  endfacet
  facet normal 0 0 1
    outer loop
      vertex -1.54508 -4.75528 8
      vertex -2.93893 -4.04508 8
      vertex -2.22045e-015 -10 8
    endloop
  endfacet
  facet normal 0 0 1
    outer loop
      vertex -4.75528 -1.54508 8
      vertex -10 0 8
      vertex -4.04508 -2.93893 8
    endloop
  endfacet
  facet normal 0 0 1
    outer loop
      vertex -5 0 8
      vertex -10 0 8
      vertex -4.75528 -1.54508 8
    endloop
  endfacet
  facet normal 0 0 1
    outer loop
      vertex -4.04508 -2.93893 8
      vertex -10 0 8
      vertex -10 -10 8
    endloop
  endfacet
  facet normal 0 -0 1
    outer loop
      vertex -10 0 8
      vertex -10 1.77636e-015 8
      vertex -10 -10 8
    endloop
  endfacet
  facet normal 0 0 -1
    outer loop
      vertex 10 0 8
      vertex 4.04508 2.93893 8
      vertex 10 10 8
    endloop
  endfacet
  facet normal 0 0 -1
    outer loop
      vertex 5 0 8
      vertex 4.75528 1.54508 8
      vertex 10 0 8
    endloop
  endfacet
  facet normal 0 0 -1
    outer loop
      vertex 2.93893 4.04508 8
      vertex 10 10 8
      vertex 4.04508 2.93893 8
    endloop
  endfacet
  facet normal 0 0 -1
    outer loop
      vertex 4.75528 1.54508 8
      vertex 4.04508 2.93893 8
      vertex 10 0 8
    endloop
  endfacet
  facet normal 0 0 -1
    outer loop
      vertex 2.93893 4.04508 8
      vertex 2.22045e-015 10 8
      vertex 10 10 8
    endloop
  endfacet
  facet normal 0 0 -1
    outer loop
      vertex 1.54508 4.75528 8
      vertex 2.22045e-015 10 8
      vertex 2.93893 4.04508 8
    endloop
  endfacet
  facet normal 0 0 -1
    outer loop
      vertex 1.11022e-015 5 8
      vertex 2.22045e-015 10 8
      vertex 1.54508 4.75528 8
    endloop
  endfacet
  facet normal -1 0 0
    outer loop
      vertex -10 0 10
      vertex -10 1.77636e-015 8
      vertex -10 0 8
    endloop
  endfacet
  facet normal -1 0 0
    outer loop
      vertex -10 0 10
      vertex -10 1.77636e-015 10
      vertex -10 1.77636e-015 8
    endloop
  endfacet
  facet normal -1 0 0
    outer loop
      vertex -10 1.77636e-015 10
      vertex -10 10 8
      vertex -10 1.77636e-015 8
    endloop
  endfacet
  facet normal -1 -0 -0
    outer loop
      vertex -10 10 10
      vertex -10 10 8
      vertex -10 1.77636e-015 10
    endloop
  endfacet
  facet normal 0 -1 0
    outer loop
      vertex -5 0 8
      vertex -10 0 10
      vertex -10 0 8
    endloop
  endfacet
  facet normal 0 -1 0
    outer loop
      vertex -5 0 8
      vertex -5 0 10
      vertex -10 0 10
    endloop
  endfacet
  facet normal 0 -1 0
    outer loop
      vertex 10 0 8
      vertex 5 0 10
      vertex 5 0 8
    endloop
  endfacet
  facet normal 0 -1 0
    outer loop
      vertex 10 0 8
      vertex 10 0 10
      vertex 5 0 10
    endloop
  endfacet
  facet normal 0 1 0
    outer loop
      vertex -10 10 10
      vertex 2.22045e-015 10 8
      vertex -10 10 8
    endloop
  endfacet
  facet normal 0 1 0
    outer loop
      vertex 2.22045e-015 10 10
      vertex 10 10 8
      vertex 2.22045e-015 10 8
    endloop
  endfacet
  facet normal 0 1 0
    outer loop
      vertex 10 10 10
      vertex 10 10 8
      vertex 2.22045e-015 10 10
    endloop
  endfacet
  facet normal 0 1 0
    outer loop
      vertex 2.22045e-015 10 10
      vertex 2.22045e-015 10 8
      vertex -10 10 10
    endloop
  endfacet
  facet normal -0 -0 -1
    outer loop
      vertex -5 0 10
      vertex -4.75528 -1.54508 10
      vertex -10 0 10
    endloop
  endfacet
  facet normal -0 -0 -1
    outer loop
      vertex -4.75528 -1.54508 10
      vertex -4.04508 -2.93893 10
      vertex -10 0 10
    endloop
  endfacet
  facet normal 0 0 -1
    outer loop
      vertex -10 -10 10
      vertex -10 0 10
      vertex -4.04508 -2.93893 10
    endloop
  endfacet
  facet normal 0 0 -1
    outer loop
      vertex -10 -10 10
      vertex -4.04508 -2.93893 10
      vertex -2.93893 -4.04508 10
    endloop
  endfacet
  facet normal -0 0 -1
    outer loop
      vertex -1.11022e-015 -5 10
      vertex -2.22045e-015 -10 10
      vertex -1.54508 -4.75528 10
    endloop
  endfacet
  facet normal 0 0 -1
    outer loop
      vertex -2.22045e-015 -10 10
      vertex -2.93893 -4.04508 10
      vertex -1.54508 -4.75528 10
    endloop
  endfacet
  facet normal 0 0 -1
    outer loop
      vertex -2.22045e-015 -10 10
      vertex -10 -10 10
      vertex -2.93893 -4.04508 10
    endloop
  endfacet
  facet normal 0 0 -1
    outer loop
      vertex -10 -10 10
      vertex -10 1.77636e-015 10
      vertex -10 0 10
    endloop
  endfacet
  facet normal 0 0 1
    outer loop
      vertex 1.54508 4.75528 10
      vertex 2.22045e-015 10 10
      vertex 1.11022e-015 5 10
    endloop
  endfacet
  facet normal -0 -0 1
    outer loop
      vertex 1.54508 4.75528 10
      vertex 2.93893 4.04508 10
      vertex 2.22045e-015 10 10
    endloop
  endfacet
  facet normal 0 0 1
    outer loop
      vertex 10 10 10
      vertex 2.22045e-015 10 10
      vertex 2.93893 4.04508 10
    endloop
  endfacet
  facet normal 0 0 1
    outer loop
      vertex 10 10 10
      vertex 2.93893 4.04508 10
      vertex 4.04508 2.93893 10
    endloop
  endfacet
  facet normal 0 -0 1
    outer loop
      vertex 5 0 10
      vertex 10 0 10
      vertex 4.75528 1.54508 10
    endloop
  endfacet
  facet normal 0 0 1
    outer loop
      vertex 10 0 10
      vertex 4.04508 2.93893 10
      vertex 4.75528 1.54508 10
    endloop
  endfacet
  facet normal 0 -0 1
    outer loop
      vertex 10 0 10
      vertex 10 10 10
      vertex 4.04508 2.93893 10
    endloop
  endfacet
  facet normal 1 0 0
    outer loop
      vertex 10 10 8
      vertex 10 0 10
      vertex 10 0 8
    endloop
  endfacet
  facet normal 1 0 -0
    outer loop
      vertex 10 10 8
      vertex 10 10 10
      vertex 10 0 10
    endloop
  endfacet
  facet normal -1 1.77636e-016 0
    outer loop
      vertex -10 -10 12
      vertex -10 1.77636e-015 10
      vertex -10 -10 10
    endloop
  endfacet
  facet normal -1 1.77636e-016 0
    outer loop
      vertex -10 -10 12
      vertex -10 10 12
      vertex -10 1.77636e-015 10
    endloop
  endfacet
  facet normal -1 1.77636e-016 -1.57772e-031
    outer loop
      vertex -10 10 12
      vertex -10 10 10
      vertex -10 1.77636e-015 10
    endloop
  endfacet
  facet normal 1 -2.22045e-016 0
    outer loop
      vertex 2.22045e-015 10 10
      vertex 1.11022e-015 5 12
      vertex 1.11022e-015 5 10
    endloop
  endfacet
  facet normal 1 -2.22045e-016 0
    outer loop
      vertex 2.22045e-015 10 10
      vertex 2.22045e-015 10 12
      vertex 1.11022e-015 5 12
    endloop
  endfacet
  facet normal 1 -2.22045e-016 0
    outer loop
      vertex -1.11022e-015 -5 10
      vertex -2.22045e-015 -10 12
      vertex -2.22045e-015 -10 10
    endloop
  endfacet
  facet normal 1 -2.22045e-016 0
    outer loop
      vertex -1.11022e-015 -5 10
      vertex -1.11022e-015 -5 12
      vertex -2.22045e-015 -10 12
    endloop
  endfacet
  facet normal -1.77636e-016 -1 0
    outer loop
      vertex -2.22045e-015 -10 10
      vertex -10 -10 12
      vertex -10 -10 10
    endloop
  endfacet
  facet normal -1.77636e-016 -1 0
    outer loop
      vertex -2.22045e-015 -10 10
      vertex -2.22045e-015 -10 12
      vertex -10 -10 12
    endloop
  endfacet
  facet normal 1.77636e-016 1 0
    outer loop
      vertex -10 10 12
      vertex 2.22045e-015 10 10
      vertex -10 10 10
    endloop
  endfacet
  facet normal 1.77636e-016 1 0
    outer loop
      vertex -10 10 12
      vertex 2.22045e-015 10 12
      vertex 2.22045e-015 10 10
    endloop
  endfacet
  facet normal 0 0 1
    outer loop
      vertex -2.22045e-015 -10 12
      vertex -2.93893 -4.04508 12
      vertex -10 -10 12
    endloop
  endfacet
  facet normal 0 0 1
    outer loop
      vertex -1.11022e-015 -5 12
      vertex -1.54508 -4.75528 12
      vertex -2.22045e-015 -10 12
    endloop
  endfacet
  facet normal 0 0 1
    outer loop
      vertex -1.54508 -4.75528 12
      vertex -2.93893 -4.04508 12
      vertex -2.22045e-015 -10 12
    endloop
  endfacet
  facet normal 0 0 1
    outer loop
      vertex -2.93893 -4.04508 12
      vertex -4.04508 -2.93893 12
      vertex -10 -10 12
    endloop
  endfacet
  facet normal 0 0 1
    outer loop
      vertex -4.04508 2.93893 12
      vertex -10 10 12
      vertex -4.75528 1.54508 12
    endloop
  endfacet
  facet normal 0 0 1
    outer loop
      vertex -4.04508 -2.93893 12
      vertex -4.75528 -1.54508 12
      vertex -10 -10 12
    endloop
  endfacet
  facet normal 0 0 1
    outer loop
      vertex -5 6.12303e-016 12
      vertex -10 10 12
      vertex -10 -10 12
    endloop
  endfacet
  facet normal 0 0 1
    outer loop
      vertex -5 6.12303e-016 12
      vertex -10 -10 12
      vertex -4.75528 -1.54508 12
    endloop
  endfacet
  facet normal 0 0 1
    outer loop
      vertex -4.75528 1.54508 12
      vertex -10 10 12
      vertex -5 6.12303e-016 12
    endloop
  endfacet
  facet normal 0 0 1
    outer loop
      vertex -2.93893 4.04508 12
      vertex -10 10 12
      vertex -4.04508 2.93893 12
    endloop
  endfacet
  facet normal 0 0 1
    outer loop
      vertex 2.22045e-015 10 12
      vertex -10 10 12
      vertex -2.93893 4.04508 12
    endloop
  endfacet
  facet normal 0 0 1
    outer loop
      vertex 2.22045e-015 10 12
      vertex -2.93893 4.04508 12
      vertex -1.54508 4.75528 12
    endloop
  endfacet
  facet normal 0 0 1
    outer loop
      vertex 2.22045e-015 10 12
      vertex -1.54508 4.75528 12
      vertex 3.06152e-016 5 12
    endloop
  endfacet
  facet normal 0 -0 1
    outer loop
      vertex 1.11022e-015 5 12
      vertex 2.22045e-015 10 12
      vertex 3.06152e-016 5 12
    endloop
  endfacet
  facet normal 0.987688 0.156434 3.90729e-016
    outer loop
      vertex -5 0 10
      vertex -5 6.12303e-016 12
      vertex -4.75528 -1.54508 12
    endloop
  endfacet
  facet normal 0.987688 0.156434 -0
    outer loop
      vertex -4.75528 -1.54508 10
      vertex -5 0 10
      vertex -4.75528 -1.54508 12
    endloop
  endfacet
  facet normal 0.567586 0.823314 -0
    outer loop
      vertex -5 0 8
      vertex -5 6.12303e-016 12
      vertex -5 0 10
    endloop
  endfacet
  facet normal 0.987688 0.156434 0
    outer loop
      vertex -4.75528 -1.54508 8
      vertex -5 0 6
      vertex -5 0 8
    endloop
  endfacet
  facet normal 0.987688 0.156434 -0
    outer loop
      vertex -4.75528 -1.54508 6
      vertex -5 0 6
      vertex -4.75528 -1.54508 8
    endloop
  endfacet
  facet normal 0.567586 0.823314 -0
    outer loop
      vertex -5 0 6
      vertex -5 6.12303e-016 12
      vertex -5 0 8
    endloop
  endfacet
  facet normal 0.567586 0.823314 -0
    outer loop
      vertex -5 6.12303e-016 0
      vertex -5 6.12303e-016 12
      vertex -5 0 6
    endloop
  endfacet
  facet normal 0.987688 0.156434 0
    outer loop
      vertex -4.75528 -1.54508 4
      vertex -5 0 2
      vertex -5 0 4
    endloop
  endfacet
  facet normal 0.987688 0.156434 -0
    outer loop
      vertex -4.75528 -1.54508 2
      vertex -5 0 2
      vertex -4.75528 -1.54508 4
    endloop
  endfacet
  facet normal 0.567586 0.823314 0
    outer loop
      vertex -5 6.12303e-016 0
      vertex -5 0 6
      vertex -5 0 4
    endloop
  endfacet
  facet normal 0.567586 0.823314 0
    outer loop
      vertex -5 6.12303e-016 0
      vertex -5 0 4
      vertex -5 0 2
    endloop
  endfacet
  facet normal 0.567586 0.823314 -0
    outer loop
      vertex -5 0 0
      vertex -5 6.12303e-016 0
      vertex -5 0 2
    endloop
  endfacet
  facet normal -0.156434 -0.987688 0
    outer loop
      vertex 1.11022e-015 5 2
      vertex 1.54508 4.75528 0
      vertex 1.54508 4.75528 2
    endloop
  endfacet
  facet normal -0.741336 -0.671134 0
    outer loop
      vertex 1.11022e-015 5 6
      vertex 3.06152e-016 5 12
      vertex 3.06152e-016 5 0
    endloop
  endfacet
  facet normal -0.156434 -0.987688 0
    outer loop
      vertex 1.11022e-015 5 4
      vertex 1.54508 4.75528 4
      vertex 1.11022e-015 5 6
    endloop
  endfacet
  facet normal -0.156434 -0.987688 0
    outer loop
      vertex 1.54508 4.75528 4
      vertex 1.54508 4.75528 6
      vertex 1.11022e-015 5 6
    endloop
  endfacet
  facet normal -0.741336 -0.671134 -0
    outer loop
      vertex 1.11022e-015 5 4
      vertex 3.06152e-016 5 0
      vertex 1.11022e-015 5 2
    endloop
  endfacet
  facet normal -0.741336 -0.671134 -0
    outer loop
      vertex 1.11022e-015 5 6
      vertex 3.06152e-016 5 0
      vertex 1.11022e-015 5 4
    endloop
  endfacet
  facet normal -0.156434 -0.987688 0
    outer loop
      vertex 1.11022e-015 5 8
      vertex 1.54508 4.75528 8
      vertex 1.11022e-015 5 10
    endloop
  endfacet
  facet normal -0.156434 -0.987688 0
    outer loop
      vertex 1.54508 4.75528 8
      vertex 1.54508 4.75528 10
      vertex 1.11022e-015 5 10
    endloop
  endfacet
  facet normal -0.741336 -0.671134 -0
    outer loop
      vertex 1.11022e-015 5 8
      vertex 3.06152e-016 5 12
      vertex 1.11022e-015 5 6
    endloop
  endfacet
  facet normal -0.741336 -0.671134 0
    outer loop
      vertex 1.11022e-015 5 10
      vertex 1.11022e-015 5 12
      vertex 3.06152e-016 5 12
    endloop
  endfacet
  facet normal -0.741336 -0.671134 -0
    outer loop
      vertex 1.11022e-015 5 10
      vertex 3.06152e-016 5 12
      vertex 1.11022e-015 5 8
    endloop
  endfacet
  facet normal -0.156434 -0.987688 -3.75729e-016
    outer loop
      vertex 1.11022e-015 5 2
      vertex 3.06152e-016 5 0
      vertex 1.54508 4.75528 0
    endloop
  endfacet
  facet normal 0.891007 0.45399 -0
    outer loop
      vertex -4.75528 -1.54508 2
      vertex -4.75528 -1.54508 4
      vertex -4.04508 -2.93893 4
    endloop
  endfacet
  facet normal 0.891007 0.45399 -0
    outer loop
      vertex -4.04508 -2.93893 2
      vertex -4.75528 -1.54508 2
      vertex -4.04508 -2.93893 4
    endloop
  endfacet
  facet normal 0.891007 0.45399 -0
    outer loop
      vertex -4.75528 -1.54508 6
      vertex -4.75528 -1.54508 8
      vertex -4.04508 -2.93893 8
    endloop
  endfacet
  facet normal 0.891007 0.45399 -0
    outer loop
      vertex -4.04508 -2.93893 6
      vertex -4.75528 -1.54508 6
      vertex -4.04508 -2.93893 8
    endloop
  endfacet
  facet normal 0.891007 0.45399 -0
    outer loop
      vertex -4.75528 -1.54508 10
      vertex -4.75528 -1.54508 12
      vertex -4.04508 -2.93893 12
    endloop
  endfacet
  facet normal 0.891007 0.45399 -0
    outer loop
      vertex -4.04508 -2.93893 10
      vertex -4.75528 -1.54508 10
      vertex -4.04508 -2.93893 12
    endloop
  endfacet
  facet normal 0.987688 -0.156434 0
    outer loop
      vertex -5 6.12303e-016 12
      vertex -4.75528 1.54508 0
      vertex -4.75528 1.54508 12
    endloop
  endfacet
  facet normal 0.987688 -0.156434 0
    outer loop
      vertex -5 6.12303e-016 12
      vertex -5 6.12303e-016 0
      vertex -4.75528 1.54508 0
    endloop
  endfacet
  facet normal -0.891007 -0.45399 0
    outer loop
      vertex 4.04508 2.93893 0
      vertex 4.75528 1.54508 0
      vertex 4.75528 1.54508 2
    endloop
  endfacet
  facet normal -0.891007 -0.45399 -0
    outer loop
      vertex 4.04508 2.93893 2
      vertex 4.04508 2.93893 0
      vertex 4.75528 1.54508 2
    endloop
  endfacet
  facet normal -0.891007 -0.45399 0
    outer loop
      vertex 4.04508 2.93893 4
      vertex 4.75528 1.54508 4
      vertex 4.75528 1.54508 6
    endloop
  endfacet
  facet normal -0.891007 -0.45399 -0
    outer loop
      vertex 4.04508 2.93893 6
      vertex 4.04508 2.93893 4
      vertex 4.75528 1.54508 6
    endloop
  endfacet
  facet normal -0.891007 -0.45399 0
    outer loop
      vertex 4.04508 2.93893 8
      vertex 4.75528 1.54508 8
      vertex 4.75528 1.54508 10
    endloop
  endfacet
  facet normal -0.891007 -0.45399 -0
    outer loop
      vertex 4.04508 2.93893 10
      vertex 4.04508 2.93893 8
      vertex 4.75528 1.54508 10
    endloop
  endfacet
  facet normal -0.987688 -0.156434 0
    outer loop
      vertex 4.75528 1.54508 0
      vertex 5 0 0
      vertex 5 0 2
    endloop
  endfacet
  facet normal -0.987688 -0.156434 -0
    outer loop
      vertex 4.75528 1.54508 2
      vertex 4.75528 1.54508 0
      vertex 5 0 2
    endloop
  endfacet
  facet normal -0.987688 -0.156434 0
    outer loop
      vertex 4.75528 1.54508 4
      vertex 5 0 4
      vertex 5 0 6
    endloop
  endfacet
  facet normal -0.987688 -0.156434 -0
    outer loop
      vertex 4.75528 1.54508 6
      vertex 4.75528 1.54508 4
      vertex 5 0 6
    endloop
  endfacet
  facet normal -0.987688 -0.156434 0
    outer loop
      vertex 4.75528 1.54508 8
      vertex 5 0 8
      vertex 5 0 10
    endloop
  endfacet
  facet normal -0.987688 -0.156434 -0
    outer loop
      vertex 4.75528 1.54508 10
      vertex 4.75528 1.54508 8
      vertex 5 0 10
    endloop
  endfacet
  facet normal -0.707107 -0.707107 0
    outer loop
      vertex 2.93893 4.04508 0
      vertex 4.04508 2.93893 0
      vertex 4.04508 2.93893 2
    endloop
  endfacet
  facet normal -0.707107 -0.707107 -0
    outer loop
      vertex 2.93893 4.04508 2
      vertex 2.93893 4.04508 0
      vertex 4.04508 2.93893 2
    endloop
  endfacet
  facet normal -0.707107 -0.707107 0
    outer loop
      vertex 2.93893 4.04508 4
      vertex 4.04508 2.93893 4
      vertex 4.04508 2.93893 6
    endloop
  endfacet
  facet normal -0.707107 -0.707107 -0
    outer loop
      vertex 2.93893 4.04508 6
      vertex 2.93893 4.04508 4
      vertex 4.04508 2.93893 6
    endloop
  endfacet
  facet normal -0.707107 -0.707107 0
    outer loop
      vertex 2.93893 4.04508 8
      vertex 4.04508 2.93893 8
      vertex 4.04508 2.93893 10
    endloop
  endfacet
  facet normal -0.707107 -0.707107 -0
    outer loop
      vertex 2.93893 4.04508 10
      vertex 2.93893 4.04508 8
      vertex 4.04508 2.93893 10
    endloop
  endfacet
  facet normal 0.45399 0.891007 -0
    outer loop
      vertex -1.54508 -4.75528 2
      vertex -2.93893 -4.04508 4
      vertex -1.54508 -4.75528 4
    endloop
  endfacet
  facet normal 0.45399 0.891007 0
    outer loop
      vertex -1.54508 -4.75528 2
      vertex -2.93893 -4.04508 2
      vertex -2.93893 -4.04508 4
    endloop
  endfacet
  facet normal 0.45399 0.891007 -0
    outer loop
      vertex -1.54508 -4.75528 6
      vertex -2.93893 -4.04508 8
      vertex -1.54508 -4.75528 8
    endloop
  endfacet
  facet normal 0.45399 0.891007 0
    outer loop
      vertex -1.54508 -4.75528 6
      vertex -2.93893 -4.04508 6
      vertex -2.93893 -4.04508 8
    endloop
  endfacet
  facet normal 0.45399 0.891007 -0
    outer loop
      vertex -1.54508 -4.75528 10
      vertex -2.93893 -4.04508 12
      vertex -1.54508 -4.75528 12
    endloop
  endfacet
  facet normal 0.45399 0.891007 0
    outer loop
      vertex -1.54508 -4.75528 10
      vertex -2.93893 -4.04508 10
      vertex -2.93893 -4.04508 12
    endloop
  endfacet
  facet normal 0.707107 0.707107 -0
    outer loop
      vertex -2.93893 -4.04508 2
      vertex -4.04508 -2.93893 4
      vertex -2.93893 -4.04508 4
    endloop
  endfacet
  facet normal 0.707107 0.707107 0
    outer loop
      vertex -2.93893 -4.04508 2
      vertex -4.04508 -2.93893 2
      vertex -4.04508 -2.93893 4
    endloop
  endfacet
  facet normal 0.707107 0.707107 -0
    outer loop
      vertex -2.93893 -4.04508 6
      vertex -4.04508 -2.93893 8
      vertex -2.93893 -4.04508 8
    endloop
  endfacet
  facet normal 0.707107 0.707107 0
    outer loop
      vertex -2.93893 -4.04508 6
      vertex -4.04508 -2.93893 6
      vertex -4.04508 -2.93893 8
    endloop
  endfacet
  facet normal 0.707107 0.707107 -0
    outer loop
      vertex -2.93893 -4.04508 10
      vertex -4.04508 -2.93893 12
      vertex -2.93893 -4.04508 12
    endloop
  endfacet
  facet normal 0.707107 0.707107 0
    outer loop
      vertex -2.93893 -4.04508 10
      vertex -4.04508 -2.93893 10
      vertex -4.04508 -2.93893 12
    endloop
  endfacet
  facet normal -0.45399 -0.891007 0
    outer loop
      vertex 1.54508 4.75528 2
      vertex 2.93893 4.04508 0
      vertex 2.93893 4.04508 2
    endloop
  endfacet
  facet normal -0.45399 -0.891007 -0
    outer loop
      vertex 1.54508 4.75528 2
      vertex 1.54508 4.75528 0
      vertex 2.93893 4.04508 0
    endloop
  endfacet
  facet normal -0.45399 -0.891007 0
    outer loop
      vertex 1.54508 4.75528 6
      vertex 2.93893 4.04508 4
      vertex 2.93893 4.04508 6
    endloop
  endfacet
  facet normal -0.45399 -0.891007 -0
    outer loop
      vertex 1.54508 4.75528 6
      vertex 1.54508 4.75528 4
      vertex 2.93893 4.04508 4
    endloop
  endfacet
  facet normal -0.45399 -0.891007 0
    outer loop
      vertex 1.54508 4.75528 10
      vertex 2.93893 4.04508 8
      vertex 2.93893 4.04508 10
    endloop
  endfacet
  facet normal -0.45399 -0.891007 -0
    outer loop
      vertex 1.54508 4.75528 10
      vertex 1.54508 4.75528 8
      vertex 2.93893 4.04508 8
    endloop
  endfacet
  facet normal 0.707107 -0.707107 0
    outer loop
      vertex -4.04508 2.93893 12
      vertex -2.93893 4.04508 0
      vertex -2.93893 4.04508 12
    endloop
  endfacet
  facet normal 0.707107 -0.707107 0
    outer loop
      vertex -4.04508 2.93893 12
      vertex -4.04508 2.93893 0
      vertex -2.93893 4.04508 0
    endloop
  endfacet
  facet normal 0.156434 -0.987688 0
    outer loop
      vertex -1.54508 4.75528 12
      vertex 3.06152e-016 5 0
      vertex 3.06152e-016 5 12
    endloop
  endfacet
  facet normal 0.156434 -0.987688 0
    outer loop
      vertex -1.54508 4.75528 12
      vertex -1.54508 4.75528 0
      vertex 3.06152e-016 5 0
    endloop
  endfacet
  facet normal 0.891007 -0.45399 0
    outer loop
      vertex -4.75528 1.54508 12
      vertex -4.04508 2.93893 0
      vertex -4.04508 2.93893 12
    endloop
  endfacet
  facet normal 0.891007 -0.45399 0
    outer loop
      vertex -4.75528 1.54508 12
      vertex -4.75528 1.54508 0
      vertex -4.04508 2.93893 0
    endloop
  endfacet
  facet normal 0.156434 0.987688 -0
    outer loop
      vertex -1.11022e-015 -5 2
      vertex -1.54508 -4.75528 4
      vertex -1.11022e-015 -5 4
    endloop
  endfacet
  facet normal 0.156434 0.987688 0
    outer loop
      vertex -1.11022e-015 -5 2
      vertex -1.54508 -4.75528 2
      vertex -1.54508 -4.75528 4
    endloop
  endfacet
  facet normal 0.156434 0.987688 -0
    outer loop
      vertex -1.11022e-015 -5 6
      vertex -1.54508 -4.75528 8
      vertex -1.11022e-015 -5 8
    endloop
  endfacet
  facet normal 0.156434 0.987688 0
    outer loop
      vertex -1.11022e-015 -5 6
      vertex -1.54508 -4.75528 6
      vertex -1.54508 -4.75528 8
    endloop
  endfacet
  facet normal 0.156434 0.987688 -0
    outer loop
      vertex -1.11022e-015 -5 10
      vertex -1.54508 -4.75528 12
      vertex -1.11022e-015 -5 12
    endloop
  endfacet
  facet normal 0.156434 0.987688 0
    outer loop
      vertex -1.11022e-015 -5 10
      vertex -1.54508 -4.75528 10
      vertex -1.54508 -4.75528 12
    endloop
  endfacet
  facet normal 0.45399 -0.891007 0
    outer loop
      vertex -2.93893 4.04508 12
      vertex -1.54508 4.75528 0
      vertex -1.54508 4.75528 12
    endloop
  endfacet
  facet normal 0.45399 -0.891007 0
    outer loop
      vertex -2.93893 4.04508 12
      vertex -2.93893 4.04508 0
      vertex -1.54508 4.75528 0
    endloop
  endfacet
endsolid OpenSCAD_Model
