solid OpenSCAD_Model
  facet normal -1 0 -0
    outer loop
      vertex 0 30 10
      vertex 0 30 0
      vertex 0 20 2
    endloop
  endfacet
  facet normal -1 0 0
    outer loop
      vertex 0 0 10
      vertex 0 10 2
      vertex 0 0 0
    endloop
  endfacet
  facet normal -1 -0 -0
    outer loop
      vertex 0 10 10
      vertex 0 10 2
      vertex 0 0 10
    endloop
  endfacet
  facet normal -1 0 -0
    outer loop
      vertex 0 20 2
      vertex 0 30 0
      vertex 0 0 0
    endloop
  endfacet
  facet normal -1 -0 0
    outer loop
      vertex 0 20 2
      vertex 0 0 0
      vertex 0 10 2
    endloop
  endfacet
  facet normal -1 0 0
    outer loop
      vertex 0 20 10
      vertex 0 30 10
      vertex 0 20 2
    endloop
  endfacet
  facet normal -0 -1 0
    outer loop
      vertex 20 0 10
      vertex 0 0 10
      vertex 2 0 8
    endloop
  endfacet
  facet normal 0 -1 0
    outer loop
      vertex 30 0 0
      vertex 30 0 10
      vertex 28 0 8
    endloop
  endfacet
  facet normal 0 -1 0
    outer loop
      vertex 30 0 0
      vertex 2 0 2
      vertex 0 0 0
    endloop
  endfacet
  facet normal -0 -1 0
    outer loop
      vertex 2 0 8
      vertex 0 0 10
      vertex 0 0 0
    endloop
  endfacet
  facet normal 0 -1 -0
    outer loop
      vertex 2 0 8
      vertex 0 0 0
      vertex 2 0 2
    endloop
  endfacet
  facet normal 0 -1 0
    outer loop
      vertex 30 0 0
      vertex 28 0 8
      vertex 28 0 2
    endloop
  endfacet
  facet normal 0 -1 0
    outer loop
      vertex 28 0 8
      vertex 30 0 10
      vertex 20 0 10
    endloop
  endfacet
  facet normal 0 -1 0
    outer loop
      vertex 30 0 0
      vertex 28 0 2
      vertex 2 0 2
    endloop
  endfacet
  facet normal 0 -1 -0
    outer loop
      vertex 20 0 10
      vertex 2 0 8
      vertex 28 0 8
    endloop
  endfacet
  facet normal 0 0 -1
    outer loop
      vertex 0 30 0
      vertex 30 0 0
      vertex 0 0 0
    endloop
  endfacet
  facet normal 0 0 -1
    outer loop
      vertex 0 30 0
      vertex 30 30 0
      vertex 30 0 0
    endloop
  endfacet
  facet normal 0 1 0
    outer loop
      vertex 2 10 8
      vertex 2 10 2
      vertex 0 10 2
    endloop
  endfacet
  facet normal -0 1 0
    outer loop
      vertex 0 10 10
      vertex 10 10 10
      vertex 2 10 8
    endloop
  endfacet
  facet normal 0 1 0
    outer loop
      vertex 30 10 10
      vertex 30 10 2
      vertex 28 10 8
    endloop
  endfacet
  facet normal 0 1 0
    outer loop
      vertex 30 10 2
      vertex 28 10 2
      vertex 28 10 8
    endloop
  endfacet
  facet normal 0 1 0
    outer loop
      vertex 30 10 10
      vertex 28 10 8
      vertex 20 10 10
    endloop
  endfacet
  facet normal 0 1 0
    outer loop
      vertex 0 10 10
      vertex 2 10 8
      vertex 0 10 2
    endloop
  endfacet
  facet normal 0 1 0
    outer loop
      vertex 10 10 10
      vertex 28 10 8
      vertex 2 10 8
    endloop
  endfacet
  facet normal 0 1 0
    outer loop
      vertex 20 10 10
      vertex 28 10 8
      vertex 10 10 10
    endloop
  endfacet
  facet normal 0 0 1
    outer loop
      vertex 10 10 10
      vertex 0 10 10
      vertex 10 2.22045e-015 10
    endloop
  endfacet
  facet normal 0 0 1
    outer loop
      vertex 10 2.22045e-015 10
      vertex 0 10 10
      vertex 0 0 10
    endloop
  endfacet
  facet normal 0 0 1
    outer loop
      vertex 20 0 10
      vertex 10 2.22045e-015 10
      vertex 0 0 10
    endloop
  endfacet
  facet normal 0 0 1
    outer loop
      vertex 30 0 10
      vertex 20 10 10
      vertex 20 0 10
    endloop
  endfacet
  facet normal 0 -0 1
    outer loop
      vertex 30 0 10
      vertex 30 10 10
      vertex 20 10 10
    endloop
  endfacet
  facet normal 0 0 1
    outer loop
      vertex 30 20 10
      vertex 20 30 10
      vertex 20 20 10
    endloop
  endfacet
  facet normal 0 -0 1
    outer loop
      vertex 30 20 10
      vertex 30 30 10
      vertex 20 30 10
    endloop
  endfacet
  facet normal 0 0 1
    outer loop
      vertex 10 20 10
      vertex 0 30 10
      vertex 0 20 10
    endloop
  endfacet
  facet normal 0 -0 1
    outer loop
      vertex 10 20 10
      vertex 10 30 10
      vertex 0 30 10
    endloop
  endfacet
  facet normal 0 0 -1
    outer loop
      vertex 20 10 10
      vertex 10 20 10
      vertex 20 20 10
    endloop
  endfacet
  facet normal 0 0 -1
    outer loop
      vertex 20 10 10
      vertex 10 10 10
      vertex 10 20 10
    endloop
  endfacet
  facet normal 1 0 -0
    outer loop
      vertex 30 30 0
      vertex 30 30 10
      vertex 30 20 2
    endloop
  endfacet
  facet normal 1 0 0
    outer loop
      vertex 30 30 10
      vertex 30 20 10
      vertex 30 20 2
    endloop
  endfacet
  facet normal 1 0 0
    outer loop
      vertex 30 30 0
      vertex 30 10 2
      vertex 30 0 0
    endloop
  endfacet
  facet normal 1 0 0
    outer loop
      vertex 30 20 2
      vertex 30 10 2
      vertex 30 30 0
    endloop
  endfacet
  facet normal 1 0 0
    outer loop
      vertex 30 10 2
      vertex 30 0 10
      vertex 30 0 0
    endloop
  endfacet
  facet normal 1 0 0
    outer loop
      vertex 30 10 10
      vertex 30 0 10
      vertex 30 10 2
    endloop
  endfacet
  facet normal 1 -0 0
    outer loop
      vertex 2 0 8
      vertex 2 10 2
      vertex 2 10 8
    endloop
  endfacet
  facet normal 1 0 0
    outer loop
      vertex 2 0 8
      vertex 2 0 2
      vertex 2 10 2
    endloop
  endfacet
  facet normal 0 0 1
    outer loop
      vertex 28 0 2
      vertex 2 10 2
      vertex 2 0 2
    endloop
  endfacet
  facet normal 0 -0 1
    outer loop
      vertex 28 0 2
      vertex 28 10 2
      vertex 2 10 2
    endloop
  endfacet
  facet normal 0 0 1
    outer loop
      vertex 30 10 2
      vertex 28 20 2
      vertex 28 10 2
    endloop
  endfacet
  facet normal 0 0 1
    outer loop
      vertex 2 20 2
      vertex 2 10 2
      vertex 28 10 2
    endloop
  endfacet
  facet normal 0 0 1
    outer loop
      vertex 30 20 2
      vertex 28 20 2
      vertex 30 10 2
    endloop
  endfacet
  facet normal 0 0 1
    outer loop
      vertex 28 30 2
      vertex 2 30 2
      vertex 28 20 2
    endloop
  endfacet
  facet normal 0 0 1
    outer loop
      vertex 2 30 2
      vertex 2 20 2
      vertex 28 20 2
    endloop
  endfacet
  facet normal -0 0 1
    outer loop
      vertex 2 20 2
      vertex 28 10 2
      vertex 28 20 2
    endloop
  endfacet
  facet normal -0 0 1
    outer loop
      vertex 0 20 2
      vertex 2 10 2
      vertex 2 20 2
    endloop
  endfacet
  facet normal 0 0 1
    outer loop
      vertex 0 10 2
      vertex 2 10 2
      vertex 0 20 2
    endloop
  endfacet
  facet normal 0 0 -1
    outer loop
      vertex 28 0 8
      vertex 2 10 8
      vertex 28 10 8
    endloop
  endfacet
  facet normal 0 0 -1
    outer loop
      vertex 28 0 8
      vertex 2 0 8
      vertex 2 10 8
    endloop
  endfacet
  facet normal -1 0 0
    outer loop
      vertex 28 10 2
      vertex 28 0 8
      vertex 28 10 8
    endloop
  endfacet
  facet normal -1 0 0
    outer loop
      vertex 28 10 2
      vertex 28 0 2
      vertex 28 0 8
    endloop
  endfacet
  facet normal -0 -1 0
    outer loop
      vertex 2 20 8
      vertex 0 20 10
      vertex 0 20 2
    endloop
  endfacet
  facet normal 0 -1 0
    outer loop
      vertex 2 20 2
      vertex 2 20 8
      vertex 0 20 2
    endloop
  endfacet
  facet normal 0 -1 0
    outer loop
      vertex 28 20 2
      vertex 30 20 2
      vertex 28 20 8
    endloop
  endfacet
  facet normal 0 -1 0
    outer loop
      vertex 30 20 2
      vertex 30 20 10
      vertex 28 20 8
    endloop
  endfacet
  facet normal -0 -1 0
    outer loop
      vertex 30 20 10
      vertex 20 20 10
      vertex 28 20 8
    endloop
  endfacet
  facet normal -0 -1 0
    outer loop
      vertex 10 20 10
      vertex 0 20 10
      vertex 2 20 8
    endloop
  endfacet
  facet normal -0 -1 -0
    outer loop
      vertex 20 20 10
      vertex 10 20 10
      vertex 28 20 8
    endloop
  endfacet
  facet normal 0 -1 -0
    outer loop
      vertex 10 20 10
      vertex 2 20 8
      vertex 28 20 8
    endloop
  endfacet
  facet normal 0 1 0
    outer loop
      vertex 30 30 10
      vertex 30 30 0
      vertex 28 30 8
    endloop
  endfacet
  facet normal -0 1 0
    outer loop
      vertex 0 30 10
      vertex 10 30 10
      vertex 2 30 8
    endloop
  endfacet
  facet normal -0 1 0
    outer loop
      vertex 20 30 10
      vertex 30 30 10
      vertex 28 30 8
    endloop
  endfacet
  facet normal 0 1 0
    outer loop
      vertex 0 30 10
      vertex 2 30 2
      vertex 0 30 0
    endloop
  endfacet
  facet normal 0 1 0
    outer loop
      vertex 2 30 8
      vertex 2 30 2
      vertex 0 30 10
    endloop
  endfacet
  facet normal 0 1 0
    outer loop
      vertex 28 30 2
      vertex 30 30 0
      vertex 0 30 0
    endloop
  endfacet
  facet normal 0 1 0
    outer loop
      vertex 28 30 2
      vertex 0 30 0
      vertex 2 30 2
    endloop
  endfacet
  facet normal 0 1 0
    outer loop
      vertex 28 30 8
      vertex 30 30 0
      vertex 28 30 2
    endloop
  endfacet
  facet normal 0 1 0
    outer loop
      vertex 10 30 10
      vertex 28 30 8
      vertex 2 30 8
    endloop
  endfacet
  facet normal 0 1 0
    outer loop
      vertex 20 30 10
      vertex 28 30 8
      vertex 10 30 10
    endloop
  endfacet
  facet normal 1 -0 0
    outer loop
      vertex 2 20 8
      vertex 2 30 2
      vertex 2 30 8
    endloop
  endfacet
  facet normal 1 0 0
    outer loop
      vertex 2 20 8
      vertex 2 20 2
      vertex 2 30 2
    endloop
  endfacet
  facet normal 0 0 -1
    outer loop
      vertex 28 20 8
      vertex 2 30 8
      vertex 28 30 8
    endloop
  endfacet
  facet normal 0 0 -1
    outer loop
      vertex 28 20 8
      vertex 2 20 8
      vertex 2 30 8
    endloop
  endfacet
  facet normal -1 0 0
    outer loop
      vertex 28 30 2
      vertex 28 20 8
      vertex 28 30 8
    endloop
  endfacet
  facet normal -1 0 0
    outer loop
      vertex 28 30 2
      vertex 28 20 2
      vertex 28 20 8
    endloop
  endfacet
  facet normal -2.22045e-016 -1 0
    outer loop
      vertex 20 0 10
      vertex 10 2.22045e-015 20
      vertex 10 2.22045e-015 10
    endloop
  endfacet
  facet normal -2.22045e-016 -1 0
    outer loop
      vertex 20 0 10
      vertex 20 0 20
      vertex 10 2.22045e-015 20
    endloop
  endfacet
  facet normal 1 0 0
    outer loop
      vertex 20 2 18
      vertex 20 0 10
      vertex 20 2 12
    endloop
  endfacet
  facet normal 1 -1.36643e-016 -1.36643e-016
    outer loop
      vertex 20 28 18
      vertex 20 0 20
      vertex 20 2 18
    endloop
  endfacet
  facet normal 1 0 -0
    outer loop
      vertex 20 30 10
      vertex 20 30 20
      vertex 20 28 18
    endloop
  endfacet
  facet normal 1 0 0
    outer loop
      vertex 20 10 10
      vertex 20 2 12
      vertex 20 0 10
    endloop
  endfacet
  facet normal 1 0 0
    outer loop
      vertex 20 2 18
      vertex 20 0 20
      vertex 20 0 10
    endloop
  endfacet
  facet normal 1 -1.18424e-016 1.18424e-016
    outer loop
      vertex 20 28 18
      vertex 20 30 20
      vertex 20 0 20
    endloop
  endfacet
  facet normal 1 0 0
    outer loop
      vertex 20 30 10
      vertex 20 28 18
      vertex 20 28 12
    endloop
  endfacet
  facet normal 1 0 0
    outer loop
      vertex 20 30 10
      vertex 20 28 12
      vertex 20 20 10
    endloop
  endfacet
  facet normal 1 -3.55271e-016 -1.42109e-015
    outer loop
      vertex 20 10 10
      vertex 20 20 10
      vertex 20 2 12
    endloop
  endfacet
  facet normal 1 -1.36643e-016 5.46571e-016
    outer loop
      vertex 20 20 10
      vertex 20 28 12
      vertex 20 2 12
    endloop
  endfacet
  facet normal -1 0 -0
    outer loop
      vertex 10 30 20
      vertex 10 30 10
      vertex 10 28 18
    endloop
  endfacet
  facet normal -1 2.04964e-016 2.04964e-016
    outer loop
      vertex 10 28 18
      vertex 10 2 18
      vertex 10 2.22045e-015 20
    endloop
  endfacet
  facet normal -1 0 0
    outer loop
      vertex 10 2.22045e-015 20
      vertex 10 2 12
      vertex 10 2.22045e-015 10
    endloop
  endfacet
  facet normal -1 -0 -0
    outer loop
      vertex 10 2 18
      vertex 10 2 12
      vertex 10 2.22045e-015 20
    endloop
  endfacet
  facet normal -1 1.77636e-016 -1.77636e-016
    outer loop
      vertex 10 2 12
      vertex 10 10 10
      vertex 10 2.22045e-015 10
    endloop
  endfacet
  facet normal -1 0 0
    outer loop
      vertex 10 30 10
      vertex 10 28 12
      vertex 10 28 18
    endloop
  endfacet
  facet normal -1 1.77636e-016 1.77636e-016
    outer loop
      vertex 10 28 12
      vertex 10 30 10
      vertex 10 20 10
    endloop
  endfacet
  facet normal -1 1.77636e-016 -1.77636e-016
    outer loop
      vertex 10 30 20
      vertex 10 28 18
      vertex 10 2.22045e-015 20
    endloop
  endfacet
  facet normal -1 2.04964e-016 6.83214e-017
    outer loop
      vertex 10 20 10
      vertex 10 2 12
      vertex 10 28 12
    endloop
  endfacet
  facet normal -1 1.77636e-016 -1.77636e-016
    outer loop
      vertex 10 10 10
      vertex 10 2 12
      vertex 10 20 10
    endloop
  endfacet
  facet normal 0 0 1
    outer loop
      vertex 20 30 20
      vertex 10 30 20
      vertex 10 2.22045e-015 20
    endloop
  endfacet
  facet normal 0 -0 1
    outer loop
      vertex 20 0 20
      vertex 20 30 20
      vertex 10 2.22045e-015 20
    endloop
  endfacet
  facet normal 0 1 0
    outer loop
      vertex 10 30 20
      vertex 20 30 10
      vertex 10 30 10
    endloop
  endfacet
  facet normal -0 1 0
    outer loop
      vertex 10 30 20
      vertex 20 30 20
      vertex 20 30 10
    endloop
  endfacet
  facet normal 2.22045e-016 1 -0
    outer loop
      vertex 20 2 12
      vertex 10 2 18
      vertex 20 2 18
    endloop
  endfacet
  facet normal 2.22045e-016 1 0
    outer loop
      vertex 20 2 12
      vertex 10 2 12
      vertex 10 2 18
    endloop
  endfacet
  facet normal -0 0 1
    outer loop
      vertex 10 2 12
      vertex 20 2 12
      vertex 20 28 12
    endloop
  endfacet
  facet normal -0 0 1
    outer loop
      vertex 10 28 12
      vertex 10 2 12
      vertex 20 28 12
    endloop
  endfacet
  facet normal 0 0 -1
    outer loop
      vertex 20 2 18
      vertex 10 28 18
      vertex 20 28 18
    endloop
  endfacet
  facet normal 0 0 -1
    outer loop
      vertex 20 2 18
      vertex 10 2 18
      vertex 10 28 18
    endloop
  endfacet
  facet normal 0 -1 0
    outer loop
      vertex 10 28 18
      vertex 20 28 12
      vertex 20 28 18
    endloop
  endfacet
  facet normal 0 -1 0
    outer loop
      vertex 10 28 18
      vertex 10 28 12
      vertex 20 28 12
    endloop
  endfacet
endsolid OpenSCAD_Model
