solid OpenSCAD_Model
  facet normal -0.994522 -0.104528 -0
    outer loop
      vertex -11 6.23205e-015 7
      vertex -11 6.23205e-015 0
      vertex -10.7596 -2.28703 0
    endloop
  endfacet
  facet normal -0.994522 -0.104528 -0
    outer loop
      vertex -10.7596 -2.28703 7
      vertex -11 6.23205e-015 7
      vertex -10.7596 -2.28703 0
    endloop
  endfacet
  facet normal 0 -0 -1
    outer loop
      vertex -10.049 4.4741 0
      vertex -3.88377 0.957263 0
      vertex -10.7596 2.28703 0
    endloop
  endfacet
  facet normal 0 0 -1
    outer loop
      vertex -2.99404 2.65249 0
      vertex -7.36044 8.17459 0
      vertex -5.5 9.52628 0
    endloop
  endfacet
  facet normal 0 -0 -1
    outer loop
      vertex -10.7596 2.28703 0
      vertex -3.88377 0.957263 0
      vertex -11 6.23205e-015 0
    endloop
  endfacet
  facet normal 0 0 -1
    outer loop
      vertex -1.14981 10.9397 0
      vertex -1.41842 3.74006 0
      vertex -3.39919 10.4616 0
    endloop
  endfacet
  facet normal 0 0 -1
    outer loop
      vertex -2.99404 2.65249 0
      vertex -5.5 9.52628 0
      vertex -1.41842 3.74006 0
    endloop
  endfacet
  facet normal 0 0 -1
    outer loop
      vertex 3.39919 10.4616 0
      vertex 2.27226 3.29194 0
      vertex 0.482147 3.97084 0
    endloop
  endfacet
  facet normal 0 0 -1
    outer loop
      vertex 0.482147 3.97084 0
      vertex -1.14981 10.9397 0
      vertex 1.14981 10.9397 0
    endloop
  endfacet
  facet normal 0 -0 -1
    outer loop
      vertex -8.89919 6.46564 0
      vertex -2.99404 2.65249 0
      vertex -10.049 4.4741 0
    endloop
  endfacet
  facet normal -0 0 -1
    outer loop
      vertex 11 0 0
      vertex 10.7596 -2.28703 0
      vertex 4 0 0
    endloop
  endfacet
  facet normal -0 0 -1
    outer loop
      vertex 10.049 4.4741 0
      vertex 3.54182 1.85889 0
      vertex 8.89919 6.46564 0
    endloop
  endfacet
  facet normal -0 0 -1
    outer loop
      vertex 10.7596 2.28703 0
      vertex 3.54182 1.85889 0
      vertex 10.049 4.4741 0
    endloop
  endfacet
  facet normal 0 0 -1
    outer loop
      vertex 11 0 0
      vertex 4 0 0
      vertex 10.7596 2.28703 0
    endloop
  endfacet
  facet normal 0 0 -1
    outer loop
      vertex 10.049 -4.4741 0
      vertex 3.54182 -1.85889 0
      vertex 10.7596 -2.28703 0
    endloop
  endfacet
  facet normal 0 0 -1
    outer loop
      vertex 8.89919 -6.46564 0
      vertex 3.54182 -1.85889 0
      vertex 10.049 -4.4741 0
    endloop
  endfacet
  facet normal 0 0 -1
    outer loop
      vertex 3.39919 -10.4616 0
      vertex 0.482147 -3.97084 0
      vertex 2.27226 -3.29194 0
    endloop
  endfacet
  facet normal 0 0 -1
    outer loop
      vertex 5.5 -9.52628 0
      vertex 2.27226 -3.29194 0
      vertex 7.36044 -8.17459 0
    endloop
  endfacet
  facet normal 0 0 -1
    outer loop
      vertex 3.39919 -10.4616 0
      vertex 2.27226 -3.29194 0
      vertex 5.5 -9.52628 0
    endloop
  endfacet
  facet normal 0 0 -1
    outer loop
      vertex 1.14981 -10.9397 0
      vertex -1.14981 -10.9397 0
      vertex 0.482147 -3.97084 0
    endloop
  endfacet
  facet normal 0 0 -1
    outer loop
      vertex 2.27226 -3.29194 0
      vertex 3.54182 -1.85889 0
      vertex 8.89919 -6.46564 0
    endloop
  endfacet
  facet normal 0 0 -1
    outer loop
      vertex -5.5 -9.52628 0
      vertex -2.99404 -2.65249 0
      vertex -1.41842 -3.74006 0
    endloop
  endfacet
  facet normal 0 0 -1
    outer loop
      vertex -5.5 -9.52628 0
      vertex -1.41842 -3.74006 0
      vertex -3.39919 -10.4616 0
    endloop
  endfacet
  facet normal 0 0 -1
    outer loop
      vertex -3.39919 -10.4616 0
      vertex -1.41842 -3.74006 0
      vertex -1.14981 -10.9397 0
    endloop
  endfacet
  facet normal 0 0 -1
    outer loop
      vertex -8.89919 -6.46564 0
      vertex -2.99404 -2.65249 0
      vertex -7.36044 -8.17459 0
    endloop
  endfacet
  facet normal 0 0 -1
    outer loop
      vertex -10.049 -4.4741 0
      vertex -2.99404 -2.65249 0
      vertex -8.89919 -6.46564 0
    endloop
  endfacet
  facet normal 0 -0 -1
    outer loop
      vertex -3.88377 -0.957263 0
      vertex -2.99404 -2.65249 0
      vertex -10.049 -4.4741 0
    endloop
  endfacet
  facet normal 0 0 -1
    outer loop
      vertex -3.88377 -0.957263 0
      vertex -10.049 -4.4741 0
      vertex -10.7596 -2.28703 0
    endloop
  endfacet
  facet normal 0 0 -1
    outer loop
      vertex -3.88377 0.957263 0
      vertex -3.88377 -0.957263 0
      vertex -11 6.23205e-015 0
    endloop
  endfacet
  facet normal 0 0 -1
    outer loop
      vertex -10.7596 -2.28703 0
      vertex -11 6.23205e-015 0
      vertex -3.88377 -0.957263 0
    endloop
  endfacet
  facet normal -0 0 -1
    outer loop
      vertex 8.89919 6.46564 0
      vertex 2.27226 3.29194 0
      vertex 7.36044 8.17459 0
    endloop
  endfacet
  facet normal 0 0 -1
    outer loop
      vertex -2.99404 -2.65249 0
      vertex -5.5 -9.52628 0
      vertex -7.36044 -8.17459 0
    endloop
  endfacet
  facet normal 0 0 -1
    outer loop
      vertex -1.41842 -3.74006 0
      vertex 0.482147 -3.97084 0
      vertex -1.14981 -10.9397 0
    endloop
  endfacet
  facet normal -0 0 -1
    outer loop
      vertex 3.39919 -10.4616 0
      vertex 1.14981 -10.9397 0
      vertex 0.482147 -3.97084 0
    endloop
  endfacet
  facet normal 0 0 -1
    outer loop
      vertex 2.27226 -3.29194 0
      vertex 8.89919 -6.46564 0
      vertex 7.36044 -8.17459 0
    endloop
  endfacet
  facet normal 0 0 -1
    outer loop
      vertex 3.54182 -1.85889 0
      vertex 4 0 0
      vertex 10.7596 -2.28703 0
    endloop
  endfacet
  facet normal 0 0 -1
    outer loop
      vertex 4 0 0
      vertex 3.54182 1.85889 0
      vertex 10.7596 2.28703 0
    endloop
  endfacet
  facet normal 0 0 -1
    outer loop
      vertex 3.54182 1.85889 0
      vertex 2.27226 3.29194 0
      vertex 8.89919 6.46564 0
    endloop
  endfacet
  facet normal 0 -0 -1
    outer loop
      vertex 3.39919 10.4616 0
      vertex 5.5 9.52628 0
      vertex 2.27226 3.29194 0
    endloop
  endfacet
  facet normal 0 0 -1
    outer loop
      vertex 2.27226 3.29194 0
      vertex 5.5 9.52628 0
      vertex 7.36044 8.17459 0
    endloop
  endfacet
  facet normal 0 0 -1
    outer loop
      vertex 0.482147 3.97084 0
      vertex 1.14981 10.9397 0
      vertex 3.39919 10.4616 0
    endloop
  endfacet
  facet normal 0 0 -1
    outer loop
      vertex -1.41842 3.74006 0
      vertex -1.14981 10.9397 0
      vertex 0.482147 3.97084 0
    endloop
  endfacet
  facet normal 0 0 -1
    outer loop
      vertex -5.5 9.52628 0
      vertex -3.39919 10.4616 0
      vertex -1.41842 3.74006 0
    endloop
  endfacet
  facet normal 0 0 -1
    outer loop
      vertex -10.049 4.4741 0
      vertex -2.99404 2.65249 0
      vertex -3.88377 0.957263 0
    endloop
  endfacet
  facet normal 0 0 -1
    outer loop
      vertex -8.89919 6.46564 0
      vertex -7.36044 8.17459 0
      vertex -2.99404 2.65249 0
    endloop
  endfacet
  facet normal 0.207912 -0.978148 0
    outer loop
      vertex 1.14981 -10.9397 7
      vertex 1.14981 -10.9397 0
      vertex 3.39919 -10.4616 0
    endloop
  endfacet
  facet normal 0.207912 -0.978148 0
    outer loop
      vertex 3.39919 -10.4616 7
      vertex 1.14981 -10.9397 7
      vertex 3.39919 -10.4616 0
    endloop
  endfacet
  facet normal -0.743145 0.669131 0
    outer loop
      vertex -7.36044 8.17459 0
      vertex -8.89919 6.46564 0
      vertex -8.89919 6.46564 7
    endloop
  endfacet
  facet normal -0.743145 0.669131 0
    outer loop
      vertex -7.36044 8.17459 7
      vertex -7.36044 8.17459 0
      vertex -8.89919 6.46564 7
    endloop
  endfacet
  facet normal -0.951057 -0.309017 -0
    outer loop
      vertex -10.7596 -2.28703 7
      vertex -10.7596 -2.28703 0
      vertex -10.049 -4.4741 0
    endloop
  endfacet
  facet normal -0.951057 -0.309017 -0
    outer loop
      vertex -10.049 -4.4741 7
      vertex -10.7596 -2.28703 7
      vertex -10.049 -4.4741 0
    endloop
  endfacet
  facet normal 0.994522 -0.104528 0
    outer loop
      vertex 10.7596 -2.28703 7
      vertex 10.7596 -2.28703 0
      vertex 11 0 0
    endloop
  endfacet
  facet normal 0.994522 -0.104528 0
    outer loop
      vertex 11 0 7
      vertex 10.7596 -2.28703 7
      vertex 11 0 0
    endloop
  endfacet
  facet normal 0.406737 -0.913545 0
    outer loop
      vertex 3.39919 -10.4616 7
      vertex 3.39919 -10.4616 0
      vertex 5.5 -9.52628 0
    endloop
  endfacet
  facet normal 0.406737 -0.913545 0
    outer loop
      vertex 5.5 -9.52628 7
      vertex 3.39919 -10.4616 7
      vertex 5.5 -9.52628 0
    endloop
  endfacet
  facet normal 0.743145 -0.669131 0
    outer loop
      vertex 7.36044 -8.17459 7
      vertex 7.36044 -8.17459 0
      vertex 8.89919 -6.46564 0
    endloop
  endfacet
  facet normal 0.743145 -0.669131 0
    outer loop
      vertex 8.89919 -6.46564 7
      vertex 7.36044 -8.17459 7
      vertex 8.89919 -6.46564 0
    endloop
  endfacet
  facet normal -0.994522 0.104528 0
    outer loop
      vertex -10.7596 2.28703 0
      vertex -11 6.23205e-015 0
      vertex -11 6.23205e-015 7
    endloop
  endfacet
  facet normal -0.994522 0.104528 0
    outer loop
      vertex -10.7596 2.28703 7
      vertex -10.7596 2.28703 0
      vertex -11 6.23205e-015 7
    endloop
  endfacet
  facet normal 0.951057 -0.309017 0
    outer loop
      vertex 10.049 -4.4741 7
      vertex 10.049 -4.4741 0
      vertex 10.7596 -2.28703 0
    endloop
  endfacet
  facet normal 0.951057 -0.309017 0
    outer loop
      vertex 10.7596 -2.28703 7
      vertex 10.049 -4.4741 7
      vertex 10.7596 -2.28703 0
    endloop
  endfacet
  facet normal 0.866025 -0.5 0
    outer loop
      vertex 8.89919 -6.46564 7
      vertex 8.89919 -6.46564 0
      vertex 10.049 -4.4741 0
    endloop
  endfacet
  facet normal 0.866025 -0.5 0
    outer loop
      vertex 10.049 -4.4741 7
      vertex 8.89919 -6.46564 7
      vertex 10.049 -4.4741 0
    endloop
  endfacet
  facet normal 0.743145 0.669131 0
    outer loop
      vertex 8.89919 6.46564 0
      vertex 7.36044 8.17459 0
      vertex 7.36044 8.17459 7
    endloop
  endfacet
  facet normal 0.743145 0.669131 0
    outer loop
      vertex 8.89919 6.46564 7
      vertex 8.89919 6.46564 0
      vertex 7.36044 8.17459 7
    endloop
  endfacet
  facet normal 0.866025 0.5 0
    outer loop
      vertex 10.049 4.4741 0
      vertex 8.89919 6.46564 0
      vertex 8.89919 6.46564 7
    endloop
  endfacet
  facet normal 0.866025 0.5 0
    outer loop
      vertex 10.049 4.4741 7
      vertex 10.049 4.4741 0
      vertex 8.89919 6.46564 7
    endloop
  endfacet
  facet normal 0.951057 0.309017 0
    outer loop
      vertex 10.7596 2.28703 0
      vertex 10.049 4.4741 0
      vertex 10.049 4.4741 7
    endloop
  endfacet
  facet normal 0.951057 0.309017 0
    outer loop
      vertex 10.7596 2.28703 7
      vertex 10.7596 2.28703 0
      vertex 10.049 4.4741 7
    endloop
  endfacet
  facet normal 0.994522 0.104528 0
    outer loop
      vertex 11 0 0
      vertex 10.7596 2.28703 0
      vertex 10.7596 2.28703 7
    endloop
  endfacet
  facet normal 0.994522 0.104528 0
    outer loop
      vertex 11 0 7
      vertex 11 0 0
      vertex 10.7596 2.28703 7
    endloop
  endfacet
  facet normal 7.72455e-016 1 0
    outer loop
      vertex 1.14981 10.9397 0
      vertex -1.14981 10.9397 0
      vertex -1.14981 10.9397 7
    endloop
  endfacet
  facet normal 7.72455e-016 1 0
    outer loop
      vertex 1.14981 10.9397 7
      vertex 1.14981 10.9397 0
      vertex -1.14981 10.9397 7
    endloop
  endfacet
  facet normal -0.866025 0.5 0
    outer loop
      vertex -8.89919 6.46564 0
      vertex -10.049 4.4741 0
      vertex -10.049 4.4741 7
    endloop
  endfacet
  facet normal -0.866025 0.5 0
    outer loop
      vertex -8.89919 6.46564 7
      vertex -8.89919 6.46564 0
      vertex -10.049 4.4741 7
    endloop
  endfacet
  facet normal -0.587785 -0.809017 -0
    outer loop
      vertex -7.36044 -8.17459 7
      vertex -7.36044 -8.17459 0
      vertex -5.5 -9.52628 0
    endloop
  endfacet
  facet normal -0.587785 -0.809017 -0
    outer loop
      vertex -5.5 -9.52628 7
      vertex -7.36044 -8.17459 7
      vertex -5.5 -9.52628 0
    endloop
  endfacet
  facet normal -0.743145 -0.669131 -0
    outer loop
      vertex -8.89919 -6.46564 7
      vertex -8.89919 -6.46564 0
      vertex -7.36044 -8.17459 0
    endloop
  endfacet
  facet normal -0.743145 -0.669131 -0
    outer loop
      vertex -7.36044 -8.17459 7
      vertex -8.89919 -6.46564 7
      vertex -7.36044 -8.17459 0
    endloop
  endfacet
  facet normal -0.866025 -0.5 -0
    outer loop
      vertex -10.049 -4.4741 7
      vertex -10.049 -4.4741 0
      vertex -8.89919 -6.46564 0
    endloop
  endfacet
  facet normal -0.866025 -0.5 -0
    outer loop
      vertex -8.89919 -6.46564 7
      vertex -10.049 -4.4741 7
      vertex -8.89919 -6.46564 0
    endloop
  endfacet
  facet normal 0.587785 -0.809017 0
    outer loop
      vertex 5.5 -9.52628 7
      vertex 5.5 -9.52628 0
      vertex 7.36044 -8.17459 0
    endloop
  endfacet
  facet normal 0.587785 -0.809017 0
    outer loop
      vertex 7.36044 -8.17459 7
      vertex 5.5 -9.52628 7
      vertex 7.36044 -8.17459 0
    endloop
  endfacet
  facet normal -0.587785 0.809017 0
    outer loop
      vertex -5.5 9.52628 0
      vertex -7.36044 8.17459 0
      vertex -7.36044 8.17459 7
    endloop
  endfacet
  facet normal -0.587785 0.809017 0
    outer loop
      vertex -5.5 9.52628 7
      vertex -5.5 9.52628 0
      vertex -7.36044 8.17459 7
    endloop
  endfacet
  facet normal -0.406737 0.913545 0
    outer loop
      vertex -3.39919 10.4616 0
      vertex -5.5 9.52628 0
      vertex -5.5 9.52628 7
    endloop
  endfacet
  facet normal -0.406737 0.913545 0
    outer loop
      vertex -3.39919 10.4616 7
      vertex -3.39919 10.4616 0
      vertex -5.5 9.52628 7
    endloop
  endfacet
  facet normal -0.207912 0.978148 0
    outer loop
      vertex -1.14981 10.9397 0
      vertex -3.39919 10.4616 0
      vertex -3.39919 10.4616 7
    endloop
  endfacet
  facet normal -0.207912 0.978148 0
    outer loop
      vertex -1.14981 10.9397 7
      vertex -1.14981 10.9397 0
      vertex -3.39919 10.4616 7
    endloop
  endfacet
  facet normal -0.951057 0.309017 0
    outer loop
      vertex -10.049 4.4741 0
      vertex -10.7596 2.28703 0
      vertex -10.7596 2.28703 7
    endloop
  endfacet
  facet normal -0.951057 0.309017 0
    outer loop
      vertex -10.049 4.4741 7
      vertex -10.049 4.4741 0
      vertex -10.7596 2.28703 7
    endloop
  endfacet
  facet normal 0 -0 1
    outer loop
      vertex -10.049 -4.4741 7
      vertex -3.88377 -0.957263 7
      vertex -10.7596 -2.28703 7
    endloop
  endfacet
  facet normal 0 0 1
    outer loop
      vertex -2.99404 -2.65249 7
      vertex -7.36044 -8.17459 7
      vertex -5.5 -9.52628 7
    endloop
  endfacet
  facet normal 0 0 1
    outer loop
      vertex 1.14981 -10.9397 7
      vertex 0.482147 -3.97084 7
      vertex -1.14981 -10.9397 7
    endloop
  endfacet
  facet normal 0 0 1
    outer loop
      vertex -1.14981 -10.9397 7
      vertex -1.41842 -3.74006 7
      vertex -3.39919 -10.4616 7
    endloop
  endfacet
  facet normal 0 0 1
    outer loop
      vertex -2.99404 -2.65249 7
      vertex -5.5 -9.52628 7
      vertex -1.41842 -3.74006 7
    endloop
  endfacet
  facet normal 0 0 1
    outer loop
      vertex 3.39919 -10.4616 7
      vertex 2.27226 -3.29194 7
      vertex 0.482147 -3.97084 7
    endloop
  endfacet
  facet normal 0 0 1
    outer loop
      vertex 5.5 -9.52628 7
      vertex 2.27226 -3.29194 7
      vertex 3.39919 -10.4616 7
    endloop
  endfacet
  facet normal 0 0 1
    outer loop
      vertex 3.54182 -1.85889 7
      vertex 10.049 -4.4741 7
      vertex 10.7596 -2.28703 7
    endloop
  endfacet
  facet normal 0 0 1
    outer loop
      vertex 11 0 7
      vertex 10.7596 2.28703 7
      vertex 4 0 7
    endloop
  endfacet
  facet normal 0 0 1
    outer loop
      vertex 11 0 7
      vertex 4 0 7
      vertex 10.7596 -2.28703 7
    endloop
  endfacet
  facet normal 0 -0 1
    outer loop
      vertex 7.36044 -8.17459 7
      vertex 8.89919 -6.46564 7
      vertex 2.27226 -3.29194 7
    endloop
  endfacet
  facet normal 0 0 1
    outer loop
      vertex 10.049 4.4741 7
      vertex 8.89919 6.46564 7
      vertex 3.54182 1.85889 7
    endloop
  endfacet
  facet normal 0 0 1
    outer loop
      vertex 7.36044 8.17459 7
      vertex 2.27226 3.29194 7
      vertex 8.89919 6.46564 7
    endloop
  endfacet
  facet normal -0 0 1
    outer loop
      vertex 2.27226 3.29194 7
      vertex 3.54182 1.85889 7
      vertex 8.89919 6.46564 7
    endloop
  endfacet
  facet normal 0 -0 1
    outer loop
      vertex 0.482147 3.97084 7
      vertex 1.14981 10.9397 7
      vertex -1.14981 10.9397 7
    endloop
  endfacet
  facet normal 0 0 1
    outer loop
      vertex 3.39919 10.4616 7
      vertex 2.27226 3.29194 7
      vertex 5.5 9.52628 7
    endloop
  endfacet
  facet normal 0 0 1
    outer loop
      vertex 3.39919 10.4616 7
      vertex 0.482147 3.97084 7
      vertex 2.27226 3.29194 7
    endloop
  endfacet
  facet normal 0 0 1
    outer loop
      vertex -1.41842 3.74006 7
      vertex -3.39919 10.4616 7
      vertex -5.5 9.52628 7
    endloop
  endfacet
  facet normal 0 0 1
    outer loop
      vertex -2.99404 2.65249 7
      vertex -8.89919 6.46564 7
      vertex -10.049 4.4741 7
    endloop
  endfacet
  facet normal 0 0 1
    outer loop
      vertex -2.99404 2.65249 7
      vertex -10.049 4.4741 7
      vertex -3.88377 0.957263 7
    endloop
  endfacet
  facet normal 0 -0 1
    outer loop
      vertex -2.99404 2.65249 7
      vertex -1.41842 3.74006 7
      vertex -5.5 9.52628 7
    endloop
  endfacet
  facet normal -0 0 1
    outer loop
      vertex -8.89919 6.46564 7
      vertex -2.99404 2.65249 7
      vertex -7.36044 8.17459 7
    endloop
  endfacet
  facet normal 0 0 1
    outer loop
      vertex -10.7596 2.28703 7
      vertex -11 6.23205e-015 7
      vertex -3.88377 0.957263 7
    endloop
  endfacet
  facet normal 0 -0 1
    outer loop
      vertex -10.7596 -2.28703 7
      vertex -3.88377 -0.957263 7
      vertex -11 6.23205e-015 7
    endloop
  endfacet
  facet normal 0 0 1
    outer loop
      vertex -3.88377 0.957263 7
      vertex -10.049 4.4741 7
      vertex -10.7596 2.28703 7
    endloop
  endfacet
  facet normal 0 -0 1
    outer loop
      vertex -3.88377 -0.957263 7
      vertex -3.88377 0.957263 7
      vertex -11 6.23205e-015 7
    endloop
  endfacet
  facet normal -0 0 1
    outer loop
      vertex -10.049 -4.4741 7
      vertex -8.89919 -6.46564 7
      vertex -2.99404 -2.65249 7
    endloop
  endfacet
  facet normal 0 0 1
    outer loop
      vertex -2.99404 2.65249 7
      vertex -5.5 9.52628 7
      vertex -7.36044 8.17459 7
    endloop
  endfacet
  facet normal 0 0 1
    outer loop
      vertex 0.482147 3.97084 7
      vertex -1.14981 10.9397 7
      vertex -1.41842 3.74006 7
    endloop
  endfacet
  facet normal 0 -0 1
    outer loop
      vertex -1.41842 3.74006 7
      vertex -1.14981 10.9397 7
      vertex -3.39919 10.4616 7
    endloop
  endfacet
  facet normal 0 0 1
    outer loop
      vertex 3.39919 10.4616 7
      vertex 1.14981 10.9397 7
      vertex 0.482147 3.97084 7
    endloop
  endfacet
  facet normal 0 0 1
    outer loop
      vertex 7.36044 8.17459 7
      vertex 5.5 9.52628 7
      vertex 2.27226 3.29194 7
    endloop
  endfacet
  facet normal 0 -0 1
    outer loop
      vertex 4 0 7
      vertex 10.7596 2.28703 7
      vertex 3.54182 1.85889 7
    endloop
  endfacet
  facet normal 0 0 1
    outer loop
      vertex 3.54182 1.85889 7
      vertex 10.7596 2.28703 7
      vertex 10.049 4.4741 7
    endloop
  endfacet
  facet normal 0 0 1
    outer loop
      vertex 4 0 7
      vertex 3.54182 -1.85889 7
      vertex 10.7596 -2.28703 7
    endloop
  endfacet
  facet normal -0 0 1
    outer loop
      vertex 2.27226 -3.29194 7
      vertex 8.89919 -6.46564 7
      vertex 3.54182 -1.85889 7
    endloop
  endfacet
  facet normal 0 0 1
    outer loop
      vertex 3.54182 -1.85889 7
      vertex 8.89919 -6.46564 7
      vertex 10.049 -4.4741 7
    endloop
  endfacet
  facet normal 0 -0 1
    outer loop
      vertex 5.5 -9.52628 7
      vertex 7.36044 -8.17459 7
      vertex 2.27226 -3.29194 7
    endloop
  endfacet
  facet normal 0 0 1
    outer loop
      vertex 0.482147 -3.97084 7
      vertex 1.14981 -10.9397 7
      vertex 3.39919 -10.4616 7
    endloop
  endfacet
  facet normal 0 0 1
    outer loop
      vertex -1.41842 -3.74006 7
      vertex -1.14981 -10.9397 7
      vertex 0.482147 -3.97084 7
    endloop
  endfacet
  facet normal -0 0 1
    outer loop
      vertex -5.5 -9.52628 7
      vertex -3.39919 -10.4616 7
      vertex -1.41842 -3.74006 7
    endloop
  endfacet
  facet normal 0 0 1
    outer loop
      vertex -10.049 -4.4741 7
      vertex -2.99404 -2.65249 7
      vertex -3.88377 -0.957263 7
    endloop
  endfacet
  facet normal -0 0 1
    outer loop
      vertex -8.89919 -6.46564 7
      vertex -7.36044 -8.17459 7
      vertex -2.99404 -2.65249 7
    endloop
  endfacet
  facet normal -0.406737 -0.913545 -0
    outer loop
      vertex -5.5 -9.52628 7
      vertex -5.5 -9.52628 0
      vertex -3.39919 -10.4616 0
    endloop
  endfacet
  facet normal -0.406737 -0.913545 -0
    outer loop
      vertex -3.39919 -10.4616 7
      vertex -5.5 -9.52628 7
      vertex -3.39919 -10.4616 0
    endloop
  endfacet
  facet normal -0.207912 -0.978148 -0
    outer loop
      vertex -3.39919 -10.4616 7
      vertex -3.39919 -10.4616 0
      vertex -1.14981 -10.9397 0
    endloop
  endfacet
  facet normal -0.207912 -0.978148 -0
    outer loop
      vertex -1.14981 -10.9397 7
      vertex -3.39919 -10.4616 7
      vertex -1.14981 -10.9397 0
    endloop
  endfacet
  facet normal -7.72455e-016 -1 -0
    outer loop
      vertex -1.14981 -10.9397 7
      vertex -1.14981 -10.9397 0
      vertex 1.14981 -10.9397 0
    endloop
  endfacet
  facet normal -7.72455e-016 -1 -0
    outer loop
      vertex 1.14981 -10.9397 7
      vertex -1.14981 -10.9397 7
      vertex 1.14981 -10.9397 0
    endloop
  endfacet
  facet normal 0.207912 0.978148 0
    outer loop
      vertex 3.39919 10.4616 0
      vertex 1.14981 10.9397 0
      vertex 1.14981 10.9397 7
    endloop
  endfacet
  facet normal 0.207912 0.978148 0
    outer loop
      vertex 3.39919 10.4616 7
      vertex 3.39919 10.4616 0
      vertex 1.14981 10.9397 7
    endloop
  endfacet
  facet normal 0.406737 0.913545 0
    outer loop
      vertex 5.5 9.52628 0
      vertex 3.39919 10.4616 0
      vertex 3.39919 10.4616 7
    endloop
  endfacet
  facet normal 0.406737 0.913545 0
    outer loop
      vertex 5.5 9.52628 7
      vertex 5.5 9.52628 0
      vertex 3.39919 10.4616 7
    endloop
  endfacet
  facet normal 0.587785 0.809017 0
    outer loop
      vertex 7.36044 8.17459 0
      vertex 5.5 9.52628 0
      vertex 5.5 9.52628 7
    endloop
  endfacet
  facet normal 0.587785 0.809017 0
    outer loop
      vertex 7.36044 8.17459 7
      vertex 7.36044 8.17459 0
      vertex 5.5 9.52628 7
    endloop
  endfacet
  facet normal 1 -2.31958e-016 0
    outer loop
      vertex -3.88377 0.957263 0
      vertex -3.88377 0.957263 7
      vertex -3.88377 -0.957263 7
    endloop
  endfacet
  facet normal 1 -2.31958e-016 0
    outer loop
      vertex -3.88377 -0.957263 0
      vertex -3.88377 0.957263 0
      vertex -3.88377 -0.957263 7
    endloop
  endfacet
  facet normal -0.970942 0.239316 0
    outer loop
      vertex 3.54182 -1.85889 7
      vertex 4 0 7
      vertex 4 0 0
    endloop
  endfacet
  facet normal -0.970942 0.239316 0
    outer loop
      vertex 3.54182 -1.85889 0
      vertex 3.54182 -1.85889 7
      vertex 4 0 0
    endloop
  endfacet
  facet normal -0.354605 -0.935016 0
    outer loop
      vertex 2.27226 3.29194 0
      vertex 2.27226 3.29194 7
      vertex 0.482147 3.97084 7
    endloop
  endfacet
  facet normal -0.354605 -0.935016 0
    outer loop
      vertex 0.482147 3.97084 0
      vertex 2.27226 3.29194 0
      vertex 0.482147 3.97084 7
    endloop
  endfacet
  facet normal 0.885456 -0.464723 0
    outer loop
      vertex -2.99404 2.65249 0
      vertex -2.99404 2.65249 7
      vertex -3.88377 0.957263 7
    endloop
  endfacet
  facet normal 0.885456 -0.464723 0
    outer loop
      vertex -3.88377 0.957263 0
      vertex -2.99404 2.65249 0
      vertex -3.88377 0.957263 7
    endloop
  endfacet
  facet normal 0.120537 0.992709 0
    outer loop
      vertex -1.41842 -3.74006 7
      vertex 0.482147 -3.97084 7
      vertex 0.482147 -3.97084 0
    endloop
  endfacet
  facet normal 0.120537 0.992709 -0
    outer loop
      vertex -1.41842 -3.74006 0
      vertex -1.41842 -3.74006 7
      vertex 0.482147 -3.97084 0
    endloop
  endfacet
  facet normal 0.885456 0.464723 0
    outer loop
      vertex -3.88377 -0.957263 7
      vertex -2.99404 -2.65249 7
      vertex -2.99404 -2.65249 0
    endloop
  endfacet
  facet normal 0.885456 0.464723 -0
    outer loop
      vertex -3.88377 -0.957263 0
      vertex -3.88377 -0.957263 7
      vertex -2.99404 -2.65249 0
    endloop
  endfacet
  facet normal 0.568065 0.822984 0
    outer loop
      vertex -2.99404 -2.65249 7
      vertex -1.41842 -3.74006 7
      vertex -1.41842 -3.74006 0
    endloop
  endfacet
  facet normal 0.568065 0.822984 -0
    outer loop
      vertex -2.99404 -2.65249 0
      vertex -2.99404 -2.65249 7
      vertex -1.41842 -3.74006 0
    endloop
  endfacet
  facet normal -0.354605 0.935016 0
    outer loop
      vertex 0.482147 -3.97084 7
      vertex 2.27226 -3.29194 7
      vertex 2.27226 -3.29194 0
    endloop
  endfacet
  facet normal -0.354605 0.935016 0
    outer loop
      vertex 0.482147 -3.97084 0
      vertex 0.482147 -3.97084 7
      vertex 2.27226 -3.29194 0
    endloop
  endfacet
  facet normal 0.568065 -0.822984 0
    outer loop
      vertex -1.41842 3.74006 0
      vertex -1.41842 3.74006 7
      vertex -2.99404 2.65249 7
    endloop
  endfacet
  facet normal 0.568065 -0.822984 0
    outer loop
      vertex -2.99404 2.65249 0
      vertex -1.41842 3.74006 0
      vertex -2.99404 2.65249 7
    endloop
  endfacet
  facet normal 0.120537 -0.992709 0
    outer loop
      vertex 0.482147 3.97084 0
      vertex 0.482147 3.97084 7
      vertex -1.41842 3.74006 7
    endloop
  endfacet
  facet normal 0.120537 -0.992709 0
    outer loop
      vertex -1.41842 3.74006 0
      vertex 0.482147 3.97084 0
      vertex -1.41842 3.74006 7
    endloop
  endfacet
  facet normal -0.748511 0.663123 0
    outer loop
      vertex 2.27226 -3.29194 7
      vertex 3.54182 -1.85889 7
      vertex 3.54182 -1.85889 0
    endloop
  endfacet
  facet normal -0.748511 0.663123 0
    outer loop
      vertex 2.27226 -3.29194 0
      vertex 2.27226 -3.29194 7
      vertex 3.54182 -1.85889 0
    endloop
  endfacet
  facet normal -0.748511 -0.663123 0
    outer loop
      vertex 3.54182 1.85889 0
      vertex 3.54182 1.85889 7
      vertex 2.27226 3.29194 7
    endloop
  endfacet
  facet normal -0.748511 -0.663123 0
    outer loop
      vertex 2.27226 3.29194 0
      vertex 3.54182 1.85889 0
      vertex 2.27226 3.29194 7
    endloop
  endfacet
  facet normal -0.970942 -0.239316 0
    outer loop
      vertex 4 0 0
      vertex 4 0 7
      vertex 3.54182 1.85889 7
    endloop
  endfacet
  facet normal -0.970942 -0.239316 0
    outer loop
      vertex 3.54182 1.85889 0
      vertex 4 0 0
      vertex 3.54182 1.85889 7
    endloop
  endfacet
endsolid OpenSCAD_Model
