solid OpenSCAD_Model
  facet normal -1 0 0
    outer loop
      vertex 0 0 2
      vertex 0 0 6.7
      vertex 0 13.2744 2
    endloop
  endfacet
  facet normal -1 0 0
    outer loop
      vertex 0 13.2744 2
      vertex 0 0 6.7
      vertex 0 13.2744 6.7
    endloop
  endfacet
  facet normal 0 -1 0
    outer loop
      vertex 0 0 6.7
      vertex 0 0 2
      vertex 16.7333 0 2
    endloop
  endfacet
  facet normal 0 -1 0
    outer loop
      vertex 16.7333 0 6.7
      vertex 0 0 6.7
      vertex 16.7333 0 2
    endloop
  endfacet
  facet normal 0 0 -1
    outer loop
      vertex 0 0 2
      vertex 0 13.2744 2
      vertex 16.7333 0 2
    endloop
  endfacet
  facet normal 0 0 -1
    outer loop
      vertex 4.998 10.275 2
      vertex 0 13.2744 2
      vertex 4.998 10.2756 2
    endloop
  endfacet
  facet normal 0 0 -1
    outer loop
      vertex 16.7333 0 2
      vertex 0 13.2744 2
      vertex 4.998 10.275 2
    endloop
  endfacet
  facet normal 0 0 -1
    outer loop
      vertex 0 18.7256 2
      vertex 4.998 21.725 2
      vertex 4.998 21.7244 2
    endloop
  endfacet
  facet normal 0 0 -1
    outer loop
      vertex 5.223 10.275 2
      vertex 5.223 21.725 2
      vertex 16.7333 0 2
    endloop
  endfacet
  facet normal 0 0 -1
    outer loop
      vertex 5.223 21.725 2
      vertex 0 32 2
      vertex 16.7333 0 2
    endloop
  endfacet
  facet normal 0 0 -1
    outer loop
      vertex 16.7333 13.5 2
      vertex 21.7333 21.5 2
      vertex 21.7333 10.5 2
    endloop
  endfacet
  facet normal 0 0 -1
    outer loop
      vertex 4.998 21.725 2
      vertex 0 18.7256 2
      vertex 0 32 2
    endloop
  endfacet
  facet normal 0 0 -1
    outer loop
      vertex 4.998 21.725 2
      vertex 0 32 2
      vertex 5.223 21.725 2
    endloop
  endfacet
  facet normal 0 0 -1
    outer loop
      vertex 16.7333 26 2
      vertex 0 32 2
      vertex 16.7333 32 2
    endloop
  endfacet
  facet normal 0 0 -1
    outer loop
      vertex 16.7333 0 2
      vertex 0 32 2
      vertex 16.7333 6 2
    endloop
  endfacet
  facet normal 0 0 -1
    outer loop
      vertex 16.7333 13.5 2
      vertex 16.7333 18.5 2
      vertex 21.7333 21.5 2
    endloop
  endfacet
  facet normal 0 0 -1
    outer loop
      vertex 16.7333 6 2
      vertex 16.7333 26 2
      vertex 16.7333 18.5 2
    endloop
  endfacet
  facet normal 0 0 -1
    outer loop
      vertex 16.7333 6 2
      vertex 16.7333 18.5 2
      vertex 16.7333 13.5 2
    endloop
  endfacet
  facet normal 0 0 -1
    outer loop
      vertex 16.7333 26 2
      vertex 16.7333 6 2
      vertex 0 32 2
    endloop
  endfacet
  facet normal 0 0 -1
    outer loop
      vertex 5.223 10.275 2
      vertex 16.7333 0 2
      vertex 4.998 10.275 2
    endloop
  endfacet
  facet normal 0.514496 0.857493 0
    outer loop
      vertex 4.998 10.2756 6.7
      vertex 4.998 10.2756 2
      vertex 0 13.2744 6.7
    endloop
  endfacet
  facet normal 0.514496 0.857493 0
    outer loop
      vertex 0 13.2744 6.7
      vertex 4.998 10.2756 2
      vertex 0 13.2744 2
    endloop
  endfacet
  facet normal 0 0 1
    outer loop
      vertex 0 13.2744 6.7
      vertex 0 0 6.7
      vertex 16.7333 0 6.7
    endloop
  endfacet
  facet normal 0 0 1
    outer loop
      vertex 4.998 10.275 6.7
      vertex 0 13.2744 6.7
      vertex 16.7333 0 6.7
    endloop
  endfacet
  facet normal 0 0 1
    outer loop
      vertex 21.7333 21.5 6.7
      vertex 16.7333 13.5 6.7
      vertex 21.7333 10.5 6.7
    endloop
  endfacet
  facet normal 0 0 1
    outer loop
      vertex 21.7333 21.5 6.7
      vertex 16.7333 18.5 6.7
      vertex 16.7333 13.5 6.7
    endloop
  endfacet
  facet normal 0 0 1
    outer loop
      vertex 4.998 21.725 6.7
      vertex 5.223 21.725 6.7
      vertex 16.7333 32 6.7
    endloop
  endfacet
  facet normal 0 0 1
    outer loop
      vertex 0 32 6.7
      vertex 0 18.7256 6.7
      vertex 16.7333 32 6.7
    endloop
  endfacet
  facet normal 0 0 1
    outer loop
      vertex 5.223 21.725 6.7
      vertex 16.7333 26 6.7
      vertex 16.7333 32 6.7
    endloop
  endfacet
  facet normal 0 0 1
    outer loop
      vertex 0 18.7256 6.7
      vertex 4.998 21.725 6.7
      vertex 16.7333 32 6.7
    endloop
  endfacet
  facet normal 0 0 1
    outer loop
      vertex 0 18.7256 6.7
      vertex 4.998 21.7244 6.7
      vertex 4.998 21.725 6.7
    endloop
  endfacet
  facet normal 0 0 1
    outer loop
      vertex 16.7333 6 6.7
      vertex 5.223 10.275 6.7
      vertex 16.7333 0 6.7
    endloop
  endfacet
  facet normal 0 0 1
    outer loop
      vertex 5.223 10.275 6.7
      vertex 4.998 10.275 6.7
      vertex 16.7333 0 6.7
    endloop
  endfacet
  facet normal 0 0 1
    outer loop
      vertex 4.998 10.2756 6.7
      vertex 0 13.2744 6.7
      vertex 4.998 10.275 6.7
    endloop
  endfacet
  facet normal 0 0 1
    outer loop
      vertex 5.223 21.725 6.7
      vertex 16.7333 18.5 6.7
      vertex 16.7333 26 6.7
    endloop
  endfacet
  facet normal 0 0 1
    outer loop
      vertex 5.223 21.725 6.7
      vertex 16.7333 13.5 6.7
      vertex 16.7333 18.5 6.7
    endloop
  endfacet
  facet normal 0 0 1
    outer loop
      vertex 5.223 21.725 6.7
      vertex 16.7333 6 6.7
      vertex 16.7333 13.5 6.7
    endloop
  endfacet
  facet normal 0 0 1
    outer loop
      vertex 5.223 21.725 6.7
      vertex 5.223 10.275 6.7
      vertex 16.7333 6 6.7
    endloop
  endfacet
  facet normal 1 0 0
    outer loop
      vertex 16.7333 0 6.7
      vertex 16.7333 0 2
      vertex 16.7333 6 2
    endloop
  endfacet
  facet normal 1 0 0
    outer loop
      vertex 16.7333 6 6.7
      vertex 16.7333 0 6.7
      vertex 16.7333 6 2
    endloop
  endfacet
  facet normal 1 2.22045e-016 0
    outer loop
      vertex 16.7333 13.5 6.7
      vertex 16.7333 6 6.7
      vertex 16.7333 6 2
    endloop
  endfacet
  facet normal 1 2.22045e-016 0
    outer loop
      vertex 16.7333 13.5 2
      vertex 16.7333 13.5 6.7
      vertex 16.7333 6 2
    endloop
  endfacet
  facet normal -0.514496 -0.857493 0
    outer loop
      vertex 16.7333 13.5 6.7
      vertex 16.7333 13.5 2
      vertex 21.7333 10.5 2
    endloop
  endfacet
  facet normal -0.514496 -0.857493 0
    outer loop
      vertex 21.7333 10.5 6.7
      vertex 16.7333 13.5 6.7
      vertex 21.7333 10.5 2
    endloop
  endfacet
  facet normal 1 2.22045e-016 0
    outer loop
      vertex 21.7333 10.5 2
      vertex 21.7333 21.5 2
      vertex 21.7333 21.5 6.7
    endloop
  endfacet
  facet normal 1 2.22045e-016 0
    outer loop
      vertex 21.7333 10.5 6.7
      vertex 21.7333 10.5 2
      vertex 21.7333 21.5 6.7
    endloop
  endfacet
  facet normal -0.514496 0.857493 0
    outer loop
      vertex 16.7333 18.5 2
      vertex 16.7333 18.5 6.7
      vertex 21.7333 21.5 2
    endloop
  endfacet
  facet normal -0.514496 0.857493 0
    outer loop
      vertex 21.7333 21.5 2
      vertex 16.7333 18.5 6.7
      vertex 21.7333 21.5 6.7
    endloop
  endfacet
  facet normal 1 2.22045e-016 0
    outer loop
      vertex 16.7333 26 6.7
      vertex 16.7333 18.5 6.7
      vertex 16.7333 18.5 2
    endloop
  endfacet
  facet normal 1 2.22045e-016 0
    outer loop
      vertex 16.7333 26 2
      vertex 16.7333 26 6.7
      vertex 16.7333 18.5 2
    endloop
  endfacet
  facet normal 1 0 0
    outer loop
      vertex 16.7333 26 6.7
      vertex 16.7333 26 2
      vertex 16.7333 32 2
    endloop
  endfacet
  facet normal 1 0 0
    outer loop
      vertex 16.7333 32 6.7
      vertex 16.7333 26 6.7
      vertex 16.7333 32 2
    endloop
  endfacet
  facet normal 0 1 0
    outer loop
      vertex 0 32 2
      vertex 0 32 6.7
      vertex 16.7333 32 2
    endloop
  endfacet
  facet normal 0 1 0
    outer loop
      vertex 16.7333 32 2
      vertex 0 32 6.7
      vertex 16.7333 32 6.7
    endloop
  endfacet
  facet normal -1 0 0
    outer loop
      vertex 0 18.7256 2
      vertex 0 18.7256 6.7
      vertex 0 32 2
    endloop
  endfacet
  facet normal -1 0 0
    outer loop
      vertex 0 32 2
      vertex 0 18.7256 6.7
      vertex 0 32 6.7
    endloop
  endfacet
  facet normal 0.514496 -0.857493 0
    outer loop
      vertex 4.998 21.7244 2
      vertex 4.998 21.7244 6.7
      vertex 0 18.7256 6.7
    endloop
  endfacet
  facet normal 0.514496 -0.857493 0
    outer loop
      vertex 0 18.7256 2
      vertex 4.998 21.7244 2
      vertex 0 18.7256 6.7
    endloop
  endfacet
  facet normal 1 2.22045e-016 0
    outer loop
      vertex 4.998 21.725 6.7
      vertex 4.998 21.7244 6.7
      vertex 4.998 21.7244 2
    endloop
  endfacet
  facet normal 1 2.22045e-016 0
    outer loop
      vertex 4.998 21.725 2
      vertex 4.998 21.725 6.7
      vertex 4.998 21.7244 2
    endloop
  endfacet
  facet normal 2.22045e-016 -1 0
    outer loop
      vertex 5.223 21.725 2
      vertex 5.223 21.725 6.7
      vertex 4.998 21.725 6.7
    endloop
  endfacet
  facet normal 2.22045e-016 -1 0
    outer loop
      vertex 4.998 21.725 2
      vertex 5.223 21.725 2
      vertex 4.998 21.725 6.7
    endloop
  endfacet
  facet normal -1 -2.22045e-016 0
    outer loop
      vertex 5.223 10.275 6.7
      vertex 5.223 21.725 6.7
      vertex 5.223 10.275 2
    endloop
  endfacet
  facet normal -1 -2.22045e-016 0
    outer loop
      vertex 5.223 10.275 2
      vertex 5.223 21.725 6.7
      vertex 5.223 21.725 2
    endloop
  endfacet
  facet normal -2.22045e-016 1 0
    outer loop
      vertex 5.223 10.275 6.7
      vertex 5.223 10.275 2
      vertex 4.998 10.275 6.7
    endloop
  endfacet
  facet normal -2.22045e-016 1 0
    outer loop
      vertex 4.998 10.275 6.7
      vertex 5.223 10.275 2
      vertex 4.998 10.275 2
    endloop
  endfacet
  facet normal 1 2.22045e-016 0
    outer loop
      vertex 4.998 10.2756 6.7
      vertex 4.998 10.275 6.7
      vertex 4.998 10.275 2
    endloop
  endfacet
  facet normal 1 2.22045e-016 0
    outer loop
      vertex 4.998 10.2756 2
      vertex 4.998 10.2756 6.7
      vertex 4.998 10.275 2
    endloop
  endfacet
endsolid OpenSCAD_Model
