solid OpenSCAD_Model
  facet normal -0.994522 -0.104528 0
    outer loop
      vertex -6 0 0
      vertex -5.86889 -1.24747 0
      vertex -6 0 12
    endloop
  endfacet
  facet normal -0.994522 -0.104528 0
    outer loop
      vertex -6 0 12
      vertex -5.86889 -1.24747 0
      vertex -5.86889 -1.24747 12
    endloop
  endfacet
  facet normal 0 0 -1
    outer loop
      vertex -6 0 0
      vertex -5.86889 1.24747 0
      vertex -5.86889 -1.24747 0
    endloop
  endfacet
  facet normal 0 0 -1
    outer loop
      vertex -5.86889 -1.24747 0
      vertex -5.86889 1.24747 0
      vertex -5.48127 2.44042 0
    endloop
  endfacet
  facet normal 0 0 -1
    outer loop
      vertex -5.86889 -1.24747 0
      vertex -5.48127 2.44042 0
      vertex -4.8541 3.52671 0
    endloop
  endfacet
  facet normal 0 0 -1
    outer loop
      vertex -5.86889 -1.24747 0
      vertex -4.8541 3.52671 0
      vertex -4.01478 4.45887 0
    endloop
  endfacet
  facet normal 0 0 -1
    outer loop
      vertex -5.86889 -1.24747 0
      vertex -4.01478 4.45887 0
      vertex -3 5.19615 0
    endloop
  endfacet
  facet normal 0 0 -1
    outer loop
      vertex -5.86889 -1.24747 0
      vertex -3 5.19615 0
      vertex -1.8541 5.70634 0
    endloop
  endfacet
  facet normal 0 0 -1
    outer loop
      vertex -5.86889 -1.24747 0
      vertex -1.8541 5.70634 0
      vertex -0.627171 5.96713 0
    endloop
  endfacet
  facet normal 0 0 -1
    outer loop
      vertex -5.86889 -1.24747 0
      vertex -0.627171 5.96713 0
      vertex 11.6272 5.96713 0
    endloop
  endfacet
  facet normal 0 0 -1
    outer loop
      vertex -5.86889 -1.24747 0
      vertex 11.6272 5.96713 0
      vertex 12.8541 5.70634 0
    endloop
  endfacet
  facet normal 0 0 -1
    outer loop
      vertex -5.86889 -1.24747 0
      vertex 12.8541 5.70634 0
      vertex 14 5.19615 0
    endloop
  endfacet
  facet normal 0 0 -1
    outer loop
      vertex -5.86889 -1.24747 0
      vertex 14 5.19615 0
      vertex 15.0148 4.45887 0
    endloop
  endfacet
  facet normal 0 0 -1
    outer loop
      vertex -5.86889 -1.24747 0
      vertex 15.0148 4.45887 0
      vertex 15.8541 3.52671 0
    endloop
  endfacet
  facet normal 0 0 -1
    outer loop
      vertex -5.86889 -1.24747 0
      vertex 15.8541 3.52671 0
      vertex 16.4813 2.44042 0
    endloop
  endfacet
  facet normal 0 0 -1
    outer loop
      vertex -5.86889 -1.24747 0
      vertex 16.4813 2.44042 0
      vertex 16.8689 1.24747 0
    endloop
  endfacet
  facet normal 0 0 -1
    outer loop
      vertex -5.86889 -1.24747 0
      vertex 16.8689 1.24747 0
      vertex 17 0 0
    endloop
  endfacet
  facet normal 0 0 -1
    outer loop
      vertex -5.86889 -1.24747 0
      vertex 17 0 0
      vertex 16.8689 -1.24747 0
    endloop
  endfacet
  facet normal 0 0 -1
    outer loop
      vertex -5.86889 -1.24747 0
      vertex 16.8689 -1.24747 0
      vertex 16.4813 -2.44042 0
    endloop
  endfacet
  facet normal 0 0 -1
    outer loop
      vertex -5.86889 -1.24747 0
      vertex 16.4813 -2.44042 0
      vertex 15.8541 -3.52671 0
    endloop
  endfacet
  facet normal 0 0 -1
    outer loop
      vertex -5.86889 -1.24747 0
      vertex 15.8541 -3.52671 0
      vertex 15.0148 -4.45887 0
    endloop
  endfacet
  facet normal 0 0 -1
    outer loop
      vertex -5.86889 -1.24747 0
      vertex 15.0148 -4.45887 0
      vertex 14 -5.19615 0
    endloop
  endfacet
  facet normal 0 0 -1
    outer loop
      vertex -5.86889 -1.24747 0
      vertex 14 -5.19615 0
      vertex 12.8541 -5.70634 0
    endloop
  endfacet
  facet normal 0 0 -1
    outer loop
      vertex -5.86889 -1.24747 0
      vertex 12.8541 -5.70634 0
      vertex 11.6272 -5.96713 0
    endloop
  endfacet
  facet normal 0 0 -1
    outer loop
      vertex -5.86889 -1.24747 0
      vertex 11.6272 -5.96713 0
      vertex -0.627171 -5.96713 0
    endloop
  endfacet
  facet normal 0 0 -1
    outer loop
      vertex -5.86889 -1.24747 0
      vertex -0.627171 -5.96713 0
      vertex -1.8541 -5.70634 0
    endloop
  endfacet
  facet normal 0 0 -1
    outer loop
      vertex -5.86889 -1.24747 0
      vertex -1.8541 -5.70634 0
      vertex -3 -5.19615 0
    endloop
  endfacet
  facet normal 0 0 -1
    outer loop
      vertex -5.86889 -1.24747 0
      vertex -3 -5.19615 0
      vertex -4.01478 -4.45887 0
    endloop
  endfacet
  facet normal 0 0 -1
    outer loop
      vertex -5.86889 -1.24747 0
      vertex -4.01478 -4.45887 0
      vertex -4.8541 -3.52671 0
    endloop
  endfacet
  facet normal 0 0 -1
    outer loop
      vertex -5.86889 -1.24747 0
      vertex -4.8541 -3.52671 0
      vertex -5.48127 -2.44042 0
    endloop
  endfacet
  facet normal -0.994522 0.104528 0
    outer loop
      vertex -6 0 0
      vertex -6 0 12
      vertex -5.86889 1.24747 0
    endloop
  endfacet
  facet normal -0.994522 0.104528 0
    outer loop
      vertex -5.86889 1.24747 0
      vertex -6 0 12
      vertex -5.86889 1.24747 12
    endloop
  endfacet
  facet normal 0 0 1
    outer loop
      vertex -5.86889 1.24747 12
      vertex -6 0 12
      vertex -5.86889 -1.24747 12
    endloop
  endfacet
  facet normal 0 0 1
    outer loop
      vertex -4.8541 -3.52671 12
      vertex -5.86889 1.24747 12
      vertex -5.48127 -2.44042 12
    endloop
  endfacet
  facet normal 0 0 1
    outer loop
      vertex -5.48127 -2.44042 12
      vertex -5.86889 1.24747 12
      vertex -5.86889 -1.24747 12
    endloop
  endfacet
  facet normal 0 0 1
    outer loop
      vertex -4.01478 -4.45887 12
      vertex -5.86889 1.24747 12
      vertex -4.8541 -3.52671 12
    endloop
  endfacet
  facet normal 0 0 1
    outer loop
      vertex -5.02768 -1.06867 12
      vertex -5.86889 1.24747 12
      vertex -4.01478 -4.45887 12
    endloop
  endfacet
  facet normal 0 0 1
    outer loop
      vertex 15.1583 3.02122 12
      vertex 15.6956 2.09063 12
      vertex 16.4813 2.44042 12
    endloop
  endfacet
  facet normal 0 0 1
    outer loop
      vertex 13.57 4.45137 12
      vertex 14.4393 3.81976 12
      vertex 15.0148 4.45887 12
    endloop
  endfacet
  facet normal 0 0 1
    outer loop
      vertex 11.5373 5.11184 12
      vertex 12.5883 4.88843 12
      vertex 14 5.19615 12
    endloop
  endfacet
  facet normal 0 0 1
    outer loop
      vertex -0.537276 5.11184 12
      vertex 11.5373 5.11184 12
      vertex 12.8541 5.70634 12
    endloop
  endfacet
  facet normal 0 0 1
    outer loop
      vertex -4.69562 2.09063 12
      vertex -4.15835 3.02122 12
      vertex -5.86889 1.24747 12
    endloop
  endfacet
  facet normal 0 0 1
    outer loop
      vertex -3 5.19615 12
      vertex -5.86889 1.24747 12
      vertex -1.8541 5.70634 12
    endloop
  endfacet
  facet normal 0 0 1
    outer loop
      vertex -4.01478 4.45887 12
      vertex -5.86889 1.24747 12
      vertex -3 5.19615 12
    endloop
  endfacet
  facet normal 0 0 1
    outer loop
      vertex -4.8541 3.52671 12
      vertex -5.86889 1.24747 12
      vertex -4.01478 4.45887 12
    endloop
  endfacet
  facet normal 0 0 1
    outer loop
      vertex -5.48127 2.44042 12
      vertex -5.86889 1.24747 12
      vertex -4.8541 3.52671 12
    endloop
  endfacet
  facet normal 0 0 1
    outer loop
      vertex -4.69562 -2.09063 12
      vertex -5.02768 -1.06867 12
      vertex -4.01478 -4.45887 12
    endloop
  endfacet
  facet normal 0 0 1
    outer loop
      vertex 11.5373 -5.11184 12
      vertex 11.6272 -5.96713 12
      vertex 12.8541 -5.70634 12
    endloop
  endfacet
  facet normal 0 0 1
    outer loop
      vertex 16.0277 1.06867 12
      vertex 16.14 0 12
      vertex 17 0 12
    endloop
  endfacet
  facet normal 0 0 1
    outer loop
      vertex 14.4393 -3.81976 12
      vertex 13.57 -4.45137 12
      vertex 15.0148 -4.45887 12
    endloop
  endfacet
  facet normal 0 0 1
    outer loop
      vertex 15.6956 -2.09063 12
      vertex 15.1583 -3.02122 12
      vertex 16.4813 -2.44042 12
    endloop
  endfacet
  facet normal 0 0 1
    outer loop
      vertex -0.537276 5.11184 12
      vertex 12.8541 5.70634 12
      vertex 11.6272 5.96713 12
    endloop
  endfacet
  facet normal 0 0 1
    outer loop
      vertex -1.8541 5.70634 12
      vertex -5.86889 1.24747 12
      vertex -4.15835 3.02122 12
    endloop
  endfacet
  facet normal 0 0 1
    outer loop
      vertex -1.8541 5.70634 12
      vertex -3.43933 3.81976 12
      vertex -0.627171 5.96713 12
    endloop
  endfacet
  facet normal 0 0 1
    outer loop
      vertex -1.8541 5.70634 12
      vertex -4.15835 3.02122 12
      vertex -3.43933 3.81976 12
    endloop
  endfacet
  facet normal 0 0 1
    outer loop
      vertex -3.43933 3.81976 12
      vertex -2.57 4.45137 12
      vertex -0.627171 5.96713 12
    endloop
  endfacet
  facet normal 0 0 1
    outer loop
      vertex -0.627171 5.96713 12
      vertex -0.537276 5.11184 12
      vertex 11.6272 5.96713 12
    endloop
  endfacet
  facet normal 0 0 1
    outer loop
      vertex -0.627171 5.96713 12
      vertex -1.58835 4.88843 12
      vertex -0.537276 5.11184 12
    endloop
  endfacet
  facet normal 0 0 1
    outer loop
      vertex 12.8541 5.70634 12
      vertex 11.5373 5.11184 12
      vertex 14 5.19615 12
    endloop
  endfacet
  facet normal 0 0 1
    outer loop
      vertex -2.57 4.45137 12
      vertex -1.58835 4.88843 12
      vertex -0.627171 5.96713 12
    endloop
  endfacet
  facet normal 0 0 1
    outer loop
      vertex 14 5.19615 12
      vertex 12.5883 4.88843 12
      vertex 15.0148 4.45887 12
    endloop
  endfacet
  facet normal 0 0 1
    outer loop
      vertex 12.5883 4.88843 12
      vertex 13.57 4.45137 12
      vertex 15.0148 4.45887 12
    endloop
  endfacet
  facet normal 0 0 1
    outer loop
      vertex 15.0148 4.45887 12
      vertex 14.4393 3.81976 12
      vertex 15.8541 3.52671 12
    endloop
  endfacet
  facet normal 0 0 1
    outer loop
      vertex 15.8541 3.52671 12
      vertex 15.1583 3.02122 12
      vertex 16.4813 2.44042 12
    endloop
  endfacet
  facet normal 0 0 1
    outer loop
      vertex 16.4813 2.44042 12
      vertex 15.6956 2.09063 12
      vertex 16.8689 1.24747 12
    endloop
  endfacet
  facet normal 0 0 1
    outer loop
      vertex 16.8689 1.24747 12
      vertex 16.0277 1.06867 12
      vertex 17 0 12
    endloop
  endfacet
  facet normal 0 0 1
    outer loop
      vertex 17 0 12
      vertex 16.14 0 12
      vertex 16.8689 -1.24747 12
    endloop
  endfacet
  facet normal 0 0 1
    outer loop
      vertex 16.14 0 12
      vertex 16.0277 -1.06867 12
      vertex 16.8689 -1.24747 12
    endloop
  endfacet
  facet normal 0 0 1
    outer loop
      vertex 16.8689 -1.24747 12
      vertex 15.6956 -2.09063 12
      vertex 16.4813 -2.44042 12
    endloop
  endfacet
  facet normal 0 0 1
    outer loop
      vertex 16.4813 -2.44042 12
      vertex 15.1583 -3.02122 12
      vertex 15.8541 -3.52671 12
    endloop
  endfacet
  facet normal 0 0 1
    outer loop
      vertex 15.8541 -3.52671 12
      vertex 14.4393 -3.81976 12
      vertex 15.0148 -4.45887 12
    endloop
  endfacet
  facet normal 0 0 1
    outer loop
      vertex 15.0148 -4.45887 12
      vertex 13.57 -4.45137 12
      vertex 14 -5.19615 12
    endloop
  endfacet
  facet normal 0 0 1
    outer loop
      vertex 14 -5.19615 12
      vertex 12.5883 -4.88843 12
      vertex 12.8541 -5.70634 12
    endloop
  endfacet
  facet normal 0 0 1
    outer loop
      vertex 14.4393 3.81976 12
      vertex 15.1583 3.02122 12
      vertex 15.8541 3.52671 12
    endloop
  endfacet
  facet normal 0 0 1
    outer loop
      vertex 12.5883 -4.88843 12
      vertex 11.5373 -5.11184 12
      vertex 12.8541 -5.70634 12
    endloop
  endfacet
  facet normal 0 0 1
    outer loop
      vertex 11.6272 -5.96713 12
      vertex -0.537276 -5.11184 12
      vertex -0.627171 -5.96713 12
    endloop
  endfacet
  facet normal 0 0 1
    outer loop
      vertex 15.6956 2.09063 12
      vertex 16.0277 1.06867 12
      vertex 16.8689 1.24747 12
    endloop
  endfacet
  facet normal 0 0 1
    outer loop
      vertex -0.627171 -5.96713 12
      vertex -1.58835 -4.88843 12
      vertex -1.8541 -5.70634 12
    endloop
  endfacet
  facet normal 0 0 1
    outer loop
      vertex -1.58835 -4.88843 12
      vertex -2.57 -4.45137 12
      vertex -1.8541 -5.70634 12
    endloop
  endfacet
  facet normal 0 0 1
    outer loop
      vertex -1.8541 -5.70634 12
      vertex -3.43933 -3.81976 12
      vertex -3 -5.19615 12
    endloop
  endfacet
  facet normal 0 0 1
    outer loop
      vertex 13.57 -4.45137 12
      vertex 12.5883 -4.88843 12
      vertex 14 -5.19615 12
    endloop
  endfacet
  facet normal 0 0 1
    outer loop
      vertex -3 -5.19615 12
      vertex -4.15835 -3.02122 12
      vertex -4.01478 -4.45887 12
    endloop
  endfacet
  facet normal 0 0 1
    outer loop
      vertex -4.15835 -3.02122 12
      vertex -4.69562 -2.09063 12
      vertex -4.01478 -4.45887 12
    endloop
  endfacet
  facet normal 0 0 1
    outer loop
      vertex -5.02768 -1.06867 12
      vertex -5.14 0 12
      vertex -5.86889 1.24747 12
    endloop
  endfacet
  facet normal 0 0 1
    outer loop
      vertex -0.537276 -5.11184 12
      vertex -1.58835 -4.88843 12
      vertex -0.627171 -5.96713 12
    endloop
  endfacet
  facet normal 0 0 1
    outer loop
      vertex -3.43933 -3.81976 12
      vertex -4.15835 -3.02122 12
      vertex -3 -5.19615 12
    endloop
  endfacet
  facet normal 0 0 1
    outer loop
      vertex -2.57 -4.45137 12
      vertex -3.43933 -3.81976 12
      vertex -1.8541 -5.70634 12
    endloop
  endfacet
  facet normal 0 0 1
    outer loop
      vertex -5.14 0 12
      vertex -5.02768 1.06867 12
      vertex -5.86889 1.24747 12
    endloop
  endfacet
  facet normal 0 0 1
    outer loop
      vertex 16.0277 -1.06867 12
      vertex 15.6956 -2.09063 12
      vertex 16.8689 -1.24747 12
    endloop
  endfacet
  facet normal 0 0 1
    outer loop
      vertex 11.5373 -5.11184 12
      vertex -0.537276 -5.11184 12
      vertex 11.6272 -5.96713 12
    endloop
  endfacet
  facet normal 0 0 1
    outer loop
      vertex 15.1583 -3.02122 12
      vertex 14.4393 -3.81976 12
      vertex 15.8541 -3.52671 12
    endloop
  endfacet
  facet normal 0 0 1
    outer loop
      vertex -5.02768 1.06867 12
      vertex -4.69562 2.09063 12
      vertex -5.86889 1.24747 12
    endloop
  endfacet
  facet normal -0.951057 -0.309017 0
    outer loop
      vertex -5.86889 -1.24747 0
      vertex -5.48127 -2.44042 0
      vertex -5.86889 -1.24747 12
    endloop
  endfacet
  facet normal -0.951057 -0.309017 0
    outer loop
      vertex -5.86889 -1.24747 12
      vertex -5.48127 -2.44042 0
      vertex -5.48127 -2.44042 12
    endloop
  endfacet
  facet normal -0.866025 -0.5 0
    outer loop
      vertex -5.48127 -2.44042 0
      vertex -4.8541 -3.52671 0
      vertex -5.48127 -2.44042 12
    endloop
  endfacet
  facet normal -0.866025 -0.5 0
    outer loop
      vertex -5.48127 -2.44042 12
      vertex -4.8541 -3.52671 0
      vertex -4.8541 -3.52671 12
    endloop
  endfacet
  facet normal -0.743145 -0.669131 0
    outer loop
      vertex -4.8541 -3.52671 0
      vertex -4.01478 -4.45887 0
      vertex -4.8541 -3.52671 12
    endloop
  endfacet
  facet normal -0.743145 -0.669131 0
    outer loop
      vertex -4.8541 -3.52671 12
      vertex -4.01478 -4.45887 0
      vertex -4.01478 -4.45887 12
    endloop
  endfacet
  facet normal -0.587785 -0.809017 0
    outer loop
      vertex -4.01478 -4.45887 12
      vertex -4.01478 -4.45887 0
      vertex -3 -5.19615 0
    endloop
  endfacet
  facet normal -0.587785 -0.809017 0
    outer loop
      vertex -3 -5.19615 12
      vertex -4.01478 -4.45887 12
      vertex -3 -5.19615 0
    endloop
  endfacet
  facet normal -0.406737 -0.913545 0
    outer loop
      vertex -3 -5.19615 12
      vertex -3 -5.19615 0
      vertex -1.8541 -5.70634 0
    endloop
  endfacet
  facet normal -0.406737 -0.913545 0
    outer loop
      vertex -1.8541 -5.70634 12
      vertex -3 -5.19615 12
      vertex -1.8541 -5.70634 0
    endloop
  endfacet
  facet normal -0.207912 -0.978148 0
    outer loop
      vertex -1.8541 -5.70634 12
      vertex -1.8541 -5.70634 0
      vertex -0.627171 -5.96713 0
    endloop
  endfacet
  facet normal -0.207912 -0.978148 0
    outer loop
      vertex -0.627171 -5.96713 12
      vertex -1.8541 -5.70634 12
      vertex -0.627171 -5.96713 0
    endloop
  endfacet
  facet normal 0 -1 0
    outer loop
      vertex -0.627171 -5.96713 12
      vertex -0.627171 -5.96713 0
      vertex 11.6272 -5.96713 0
    endloop
  endfacet
  facet normal 0 -1 0
    outer loop
      vertex 11.6272 -5.96713 12
      vertex -0.627171 -5.96713 12
      vertex 11.6272 -5.96713 0
    endloop
  endfacet
  facet normal 0.207912 -0.978148 0
    outer loop
      vertex 11.6272 -5.96713 12
      vertex 11.6272 -5.96713 0
      vertex 12.8541 -5.70634 0
    endloop
  endfacet
  facet normal 0.207912 -0.978148 0
    outer loop
      vertex 12.8541 -5.70634 12
      vertex 11.6272 -5.96713 12
      vertex 12.8541 -5.70634 0
    endloop
  endfacet
  facet normal 0.406737 -0.913545 0
    outer loop
      vertex 12.8541 -5.70634 12
      vertex 12.8541 -5.70634 0
      vertex 14 -5.19615 0
    endloop
  endfacet
  facet normal 0.406737 -0.913545 0
    outer loop
      vertex 14 -5.19615 12
      vertex 12.8541 -5.70634 12
      vertex 14 -5.19615 0
    endloop
  endfacet
  facet normal 0.587785 -0.809017 0
    outer loop
      vertex 14 -5.19615 12
      vertex 14 -5.19615 0
      vertex 15.0148 -4.45887 0
    endloop
  endfacet
  facet normal 0.587785 -0.809017 0
    outer loop
      vertex 15.0148 -4.45887 12
      vertex 14 -5.19615 12
      vertex 15.0148 -4.45887 0
    endloop
  endfacet
  facet normal 0.743145 -0.669131 0
    outer loop
      vertex 15.0148 -4.45887 12
      vertex 15.0148 -4.45887 0
      vertex 15.8541 -3.52671 0
    endloop
  endfacet
  facet normal 0.743145 -0.669131 0
    outer loop
      vertex 15.8541 -3.52671 12
      vertex 15.0148 -4.45887 12
      vertex 15.8541 -3.52671 0
    endloop
  endfacet
  facet normal 0.866025 -0.5 0
    outer loop
      vertex 15.8541 -3.52671 12
      vertex 15.8541 -3.52671 0
      vertex 16.4813 -2.44042 0
    endloop
  endfacet
  facet normal 0.866025 -0.5 0
    outer loop
      vertex 16.4813 -2.44042 12
      vertex 15.8541 -3.52671 12
      vertex 16.4813 -2.44042 0
    endloop
  endfacet
  facet normal 0.951057 -0.309017 0
    outer loop
      vertex 16.4813 -2.44042 12
      vertex 16.4813 -2.44042 0
      vertex 16.8689 -1.24747 0
    endloop
  endfacet
  facet normal 0.951057 -0.309017 0
    outer loop
      vertex 16.8689 -1.24747 12
      vertex 16.4813 -2.44042 12
      vertex 16.8689 -1.24747 0
    endloop
  endfacet
  facet normal 0.994522 -0.104528 0
    outer loop
      vertex 16.8689 -1.24747 12
      vertex 16.8689 -1.24747 0
      vertex 17 0 0
    endloop
  endfacet
  facet normal 0.994522 -0.104528 0
    outer loop
      vertex 17 0 12
      vertex 16.8689 -1.24747 12
      vertex 17 0 0
    endloop
  endfacet
  facet normal 0.994522 0.104528 0
    outer loop
      vertex 17 0 0
      vertex 16.8689 1.24747 0
      vertex 16.8689 1.24747 12
    endloop
  endfacet
  facet normal 0.994522 0.104528 0
    outer loop
      vertex 17 0 12
      vertex 17 0 0
      vertex 16.8689 1.24747 12
    endloop
  endfacet
  facet normal 0.951057 0.309017 0
    outer loop
      vertex 16.8689 1.24747 0
      vertex 16.4813 2.44042 0
      vertex 16.4813 2.44042 12
    endloop
  endfacet
  facet normal 0.951057 0.309017 0
    outer loop
      vertex 16.8689 1.24747 12
      vertex 16.8689 1.24747 0
      vertex 16.4813 2.44042 12
    endloop
  endfacet
  facet normal 0.866025 0.5 0
    outer loop
      vertex 16.4813 2.44042 0
      vertex 15.8541 3.52671 0
      vertex 15.8541 3.52671 12
    endloop
  endfacet
  facet normal 0.866025 0.5 0
    outer loop
      vertex 16.4813 2.44042 12
      vertex 16.4813 2.44042 0
      vertex 15.8541 3.52671 12
    endloop
  endfacet
  facet normal 0.743145 0.669131 0
    outer loop
      vertex 15.8541 3.52671 0
      vertex 15.0148 4.45887 0
      vertex 15.0148 4.45887 12
    endloop
  endfacet
  facet normal 0.743145 0.669131 0
    outer loop
      vertex 15.8541 3.52671 12
      vertex 15.8541 3.52671 0
      vertex 15.0148 4.45887 12
    endloop
  endfacet
  facet normal 0.587785 0.809017 0
    outer loop
      vertex 14 5.19615 0
      vertex 14 5.19615 12
      vertex 15.0148 4.45887 0
    endloop
  endfacet
  facet normal 0.587785 0.809017 0
    outer loop
      vertex 15.0148 4.45887 0
      vertex 14 5.19615 12
      vertex 15.0148 4.45887 12
    endloop
  endfacet
  facet normal 0.406737 0.913545 0
    outer loop
      vertex 12.8541 5.70634 0
      vertex 12.8541 5.70634 12
      vertex 14 5.19615 0
    endloop
  endfacet
  facet normal 0.406737 0.913545 0
    outer loop
      vertex 14 5.19615 0
      vertex 12.8541 5.70634 12
      vertex 14 5.19615 12
    endloop
  endfacet
  facet normal 0.207912 0.978148 0
    outer loop
      vertex 11.6272 5.96713 0
      vertex 11.6272 5.96713 12
      vertex 12.8541 5.70634 0
    endloop
  endfacet
  facet normal 0.207912 0.978148 0
    outer loop
      vertex 12.8541 5.70634 0
      vertex 11.6272 5.96713 12
      vertex 12.8541 5.70634 12
    endloop
  endfacet
  facet normal 0 1 0
    outer loop
      vertex -0.627171 5.96713 0
      vertex -0.627171 5.96713 12
      vertex 11.6272 5.96713 0
    endloop
  endfacet
  facet normal 0 1 0
    outer loop
      vertex 11.6272 5.96713 0
      vertex -0.627171 5.96713 12
      vertex 11.6272 5.96713 12
    endloop
  endfacet
  facet normal -0.207912 0.978148 0
    outer loop
      vertex -1.8541 5.70634 0
      vertex -1.8541 5.70634 12
      vertex -0.627171 5.96713 0
    endloop
  endfacet
  facet normal -0.207912 0.978148 0
    outer loop
      vertex -0.627171 5.96713 0
      vertex -1.8541 5.70634 12
      vertex -0.627171 5.96713 12
    endloop
  endfacet
  facet normal -0.406737 0.913545 0
    outer loop
      vertex -3 5.19615 0
      vertex -3 5.19615 12
      vertex -1.8541 5.70634 0
    endloop
  endfacet
  facet normal -0.406737 0.913545 0
    outer loop
      vertex -1.8541 5.70634 0
      vertex -3 5.19615 12
      vertex -1.8541 5.70634 12
    endloop
  endfacet
  facet normal -0.587785 0.809017 0
    outer loop
      vertex -4.01478 4.45887 0
      vertex -4.01478 4.45887 12
      vertex -3 5.19615 0
    endloop
  endfacet
  facet normal -0.587785 0.809017 0
    outer loop
      vertex -3 5.19615 0
      vertex -4.01478 4.45887 12
      vertex -3 5.19615 12
    endloop
  endfacet
  facet normal -0.743145 0.669131 0
    outer loop
      vertex -4.8541 3.52671 0
      vertex -4.8541 3.52671 12
      vertex -4.01478 4.45887 0
    endloop
  endfacet
  facet normal -0.743145 0.669131 0
    outer loop
      vertex -4.01478 4.45887 0
      vertex -4.8541 3.52671 12
      vertex -4.01478 4.45887 12
    endloop
  endfacet
  facet normal -0.866025 0.5 0
    outer loop
      vertex -5.48127 2.44042 0
      vertex -5.48127 2.44042 12
      vertex -4.8541 3.52671 0
    endloop
  endfacet
  facet normal -0.866025 0.5 0
    outer loop
      vertex -4.8541 3.52671 0
      vertex -5.48127 2.44042 12
      vertex -4.8541 3.52671 12
    endloop
  endfacet
  facet normal -0.951057 0.309017 0
    outer loop
      vertex -5.86889 1.24747 0
      vertex -5.86889 1.24747 12
      vertex -5.48127 2.44042 0
    endloop
  endfacet
  facet normal -0.951057 0.309017 0
    outer loop
      vertex -5.48127 2.44042 0
      vertex -5.86889 1.24747 12
      vertex -5.48127 2.44042 12
    endloop
  endfacet
  facet normal 0.951056 0.309017 0
    outer loop
      vertex -5.02768 -1.06867 12
      vertex -4.69562 -2.09063 12
      vertex -4.69562 -2.09063 0.86
    endloop
  endfacet
  facet normal 0.951056 0.309017 0
    outer loop
      vertex -5.02768 -1.06867 0.86
      vertex -5.02768 -1.06867 12
      vertex -4.69562 -2.09063 0.86
    endloop
  endfacet
  facet normal 0.994522 0.104528 0
    outer loop
      vertex -5.14 0 12
      vertex -5.02768 -1.06867 12
      vertex -5.02768 -1.06867 0.86
    endloop
  endfacet
  facet normal 0.994522 0.104528 0
    outer loop
      vertex -5.14 0 0.86
      vertex -5.14 0 12
      vertex -5.02768 -1.06867 0.86
    endloop
  endfacet
  facet normal 0.866025 0.5 0
    outer loop
      vertex -4.69562 -2.09063 12
      vertex -4.15835 -3.02122 12
      vertex -4.15835 -3.02122 0.86
    endloop
  endfacet
  facet normal 0.866025 0.5 0
    outer loop
      vertex -4.69562 -2.09063 0.86
      vertex -4.69562 -2.09063 12
      vertex -4.15835 -3.02122 0.86
    endloop
  endfacet
  facet normal 0.743145 0.669131 0
    outer loop
      vertex -4.15835 -3.02122 12
      vertex -3.43933 -3.81976 12
      vertex -3.43933 -3.81976 0.86
    endloop
  endfacet
  facet normal 0.743145 0.669131 0
    outer loop
      vertex -4.15835 -3.02122 0.86
      vertex -4.15835 -3.02122 12
      vertex -3.43933 -3.81976 0.86
    endloop
  endfacet
  facet normal 0.587786 0.809017 0
    outer loop
      vertex -2.57 -4.45137 12
      vertex -2.57 -4.45137 0.86
      vertex -3.43933 -3.81976 12
    endloop
  endfacet
  facet normal 0.587786 0.809017 0
    outer loop
      vertex -3.43933 -3.81976 12
      vertex -2.57 -4.45137 0.86
      vertex -3.43933 -3.81976 0.86
    endloop
  endfacet
  facet normal 0.406736 0.913546 0
    outer loop
      vertex -1.58835 -4.88843 12
      vertex -1.58835 -4.88843 0.86
      vertex -2.57 -4.45137 12
    endloop
  endfacet
  facet normal 0.406736 0.913546 0
    outer loop
      vertex -2.57 -4.45137 12
      vertex -1.58835 -4.88843 0.86
      vertex -2.57 -4.45137 0.86
    endloop
  endfacet
  facet normal 0.207913 0.978147 0
    outer loop
      vertex -0.537276 -5.11184 12
      vertex -0.537276 -5.11184 0.86
      vertex -1.58835 -4.88843 12
    endloop
  endfacet
  facet normal 0.207913 0.978147 0
    outer loop
      vertex -1.58835 -4.88843 12
      vertex -0.537276 -5.11184 0.86
      vertex -1.58835 -4.88843 0.86
    endloop
  endfacet
  facet normal 0 1 0
    outer loop
      vertex 11.5373 -5.11184 12
      vertex 11.5373 -5.11184 0.86
      vertex -0.537276 -5.11184 12
    endloop
  endfacet
  facet normal 0 1 0
    outer loop
      vertex -0.537276 -5.11184 12
      vertex 11.5373 -5.11184 0.86
      vertex -0.537276 -5.11184 0.86
    endloop
  endfacet
  facet normal -0.207913 0.978147 0
    outer loop
      vertex 12.5883 -4.88843 12
      vertex 12.5883 -4.88843 0.86
      vertex 11.5373 -5.11184 12
    endloop
  endfacet
  facet normal -0.207913 0.978147 0
    outer loop
      vertex 11.5373 -5.11184 12
      vertex 12.5883 -4.88843 0.86
      vertex 11.5373 -5.11184 0.86
    endloop
  endfacet
  facet normal -0.406736 0.913546 0
    outer loop
      vertex 13.57 -4.45137 12
      vertex 13.57 -4.45137 0.86
      vertex 12.5883 -4.88843 12
    endloop
  endfacet
  facet normal -0.406736 0.913546 0
    outer loop
      vertex 12.5883 -4.88843 12
      vertex 13.57 -4.45137 0.86
      vertex 12.5883 -4.88843 0.86
    endloop
  endfacet
  facet normal -0.587786 0.809017 0
    outer loop
      vertex 14.4393 -3.81976 12
      vertex 14.4393 -3.81976 0.86
      vertex 13.57 -4.45137 12
    endloop
  endfacet
  facet normal -0.587786 0.809017 0
    outer loop
      vertex 13.57 -4.45137 12
      vertex 14.4393 -3.81976 0.86
      vertex 13.57 -4.45137 0.86
    endloop
  endfacet
  facet normal -0.743145 0.669131 0
    outer loop
      vertex 15.1583 -3.02122 12
      vertex 15.1583 -3.02122 0.86
      vertex 14.4393 -3.81976 12
    endloop
  endfacet
  facet normal -0.743145 0.669131 0
    outer loop
      vertex 14.4393 -3.81976 12
      vertex 15.1583 -3.02122 0.86
      vertex 14.4393 -3.81976 0.86
    endloop
  endfacet
  facet normal -0.866025 0.5 0
    outer loop
      vertex 15.6956 -2.09063 12
      vertex 15.6956 -2.09063 0.86
      vertex 15.1583 -3.02122 12
    endloop
  endfacet
  facet normal -0.866025 0.5 0
    outer loop
      vertex 15.1583 -3.02122 12
      vertex 15.6956 -2.09063 0.86
      vertex 15.1583 -3.02122 0.86
    endloop
  endfacet
  facet normal -0.951056 0.309017 0
    outer loop
      vertex 16.0277 -1.06867 12
      vertex 16.0277 -1.06867 0.86
      vertex 15.6956 -2.09063 12
    endloop
  endfacet
  facet normal -0.951056 0.309017 0
    outer loop
      vertex 15.6956 -2.09063 12
      vertex 16.0277 -1.06867 0.86
      vertex 15.6956 -2.09063 0.86
    endloop
  endfacet
  facet normal -0.994522 0.104528 0
    outer loop
      vertex 16.14 0 12
      vertex 16.14 0 0.86
      vertex 16.0277 -1.06867 12
    endloop
  endfacet
  facet normal -0.994522 0.104528 0
    outer loop
      vertex 16.0277 -1.06867 12
      vertex 16.14 0 0.86
      vertex 16.0277 -1.06867 0.86
    endloop
  endfacet
  facet normal -0.994522 -0.104528 0
    outer loop
      vertex 16.14 0 12
      vertex 16.0277 1.06867 12
      vertex 16.14 0 0.86
    endloop
  endfacet
  facet normal -0.994522 -0.104528 0
    outer loop
      vertex 16.14 0 0.86
      vertex 16.0277 1.06867 12
      vertex 16.0277 1.06867 0.86
    endloop
  endfacet
  facet normal -0.951056 -0.309017 0
    outer loop
      vertex 16.0277 1.06867 12
      vertex 15.6956 2.09063 12
      vertex 16.0277 1.06867 0.86
    endloop
  endfacet
  facet normal -0.951056 -0.309017 0
    outer loop
      vertex 16.0277 1.06867 0.86
      vertex 15.6956 2.09063 12
      vertex 15.6956 2.09063 0.86
    endloop
  endfacet
  facet normal -0.866025 -0.5 0
    outer loop
      vertex 15.6956 2.09063 12
      vertex 15.1583 3.02122 12
      vertex 15.6956 2.09063 0.86
    endloop
  endfacet
  facet normal -0.866025 -0.5 0
    outer loop
      vertex 15.6956 2.09063 0.86
      vertex 15.1583 3.02122 12
      vertex 15.1583 3.02122 0.86
    endloop
  endfacet
  facet normal -0.743145 -0.669131 0
    outer loop
      vertex 15.1583 3.02122 12
      vertex 14.4393 3.81976 12
      vertex 15.1583 3.02122 0.86
    endloop
  endfacet
  facet normal -0.743145 -0.669131 0
    outer loop
      vertex 15.1583 3.02122 0.86
      vertex 14.4393 3.81976 12
      vertex 14.4393 3.81976 0.86
    endloop
  endfacet
  facet normal -0.587786 -0.809017 0
    outer loop
      vertex 14.4393 3.81976 0.86
      vertex 14.4393 3.81976 12
      vertex 13.57 4.45137 12
    endloop
  endfacet
  facet normal -0.587786 -0.809017 0
    outer loop
      vertex 13.57 4.45137 0.86
      vertex 14.4393 3.81976 0.86
      vertex 13.57 4.45137 12
    endloop
  endfacet
  facet normal -0.406736 -0.913546 0
    outer loop
      vertex 13.57 4.45137 0.86
      vertex 13.57 4.45137 12
      vertex 12.5883 4.88843 12
    endloop
  endfacet
  facet normal -0.406736 -0.913546 0
    outer loop
      vertex 12.5883 4.88843 0.86
      vertex 13.57 4.45137 0.86
      vertex 12.5883 4.88843 12
    endloop
  endfacet
  facet normal -0.207913 -0.978147 0
    outer loop
      vertex 12.5883 4.88843 0.86
      vertex 12.5883 4.88843 12
      vertex 11.5373 5.11184 12
    endloop
  endfacet
  facet normal -0.207913 -0.978147 0
    outer loop
      vertex 11.5373 5.11184 0.86
      vertex 12.5883 4.88843 0.86
      vertex 11.5373 5.11184 12
    endloop
  endfacet
  facet normal 0 -1 0
    outer loop
      vertex 11.5373 5.11184 0.86
      vertex 11.5373 5.11184 12
      vertex -0.537276 5.11184 12
    endloop
  endfacet
  facet normal 0 -1 0
    outer loop
      vertex -0.537276 5.11184 0.86
      vertex 11.5373 5.11184 0.86
      vertex -0.537276 5.11184 12
    endloop
  endfacet
  facet normal 0.207913 -0.978147 0
    outer loop
      vertex -0.537276 5.11184 0.86
      vertex -0.537276 5.11184 12
      vertex -1.58835 4.88843 12
    endloop
  endfacet
  facet normal 0.207913 -0.978147 0
    outer loop
      vertex -1.58835 4.88843 0.86
      vertex -0.537276 5.11184 0.86
      vertex -1.58835 4.88843 12
    endloop
  endfacet
  facet normal 0.406736 -0.913546 0
    outer loop
      vertex -1.58835 4.88843 0.86
      vertex -1.58835 4.88843 12
      vertex -2.57 4.45137 12
    endloop
  endfacet
  facet normal 0.406736 -0.913546 0
    outer loop
      vertex -2.57 4.45137 0.86
      vertex -1.58835 4.88843 0.86
      vertex -2.57 4.45137 12
    endloop
  endfacet
  facet normal 0.587786 -0.809017 0
    outer loop
      vertex -2.57 4.45137 0.86
      vertex -2.57 4.45137 12
      vertex -3.43933 3.81976 12
    endloop
  endfacet
  facet normal 0.587786 -0.809017 0
    outer loop
      vertex -3.43933 3.81976 0.86
      vertex -2.57 4.45137 0.86
      vertex -3.43933 3.81976 12
    endloop
  endfacet
  facet normal 0.743145 -0.669131 0
    outer loop
      vertex -3.43933 3.81976 0.86
      vertex -3.43933 3.81976 12
      vertex -4.15835 3.02122 12
    endloop
  endfacet
  facet normal 0.743145 -0.669131 0
    outer loop
      vertex -4.15835 3.02122 0.86
      vertex -3.43933 3.81976 0.86
      vertex -4.15835 3.02122 12
    endloop
  endfacet
  facet normal 0.866025 -0.5 0
    outer loop
      vertex -4.15835 3.02122 0.86
      vertex -4.15835 3.02122 12
      vertex -4.69562 2.09063 12
    endloop
  endfacet
  facet normal 0.866025 -0.5 0
    outer loop
      vertex -4.69562 2.09063 0.86
      vertex -4.15835 3.02122 0.86
      vertex -4.69562 2.09063 12
    endloop
  endfacet
  facet normal 0.951056 -0.309017 0
    outer loop
      vertex -4.69562 2.09063 0.86
      vertex -4.69562 2.09063 12
      vertex -5.02768 1.06867 12
    endloop
  endfacet
  facet normal 0.951056 -0.309017 0
    outer loop
      vertex -5.02768 1.06867 0.86
      vertex -4.69562 2.09063 0.86
      vertex -5.02768 1.06867 12
    endloop
  endfacet
  facet normal 0.994522 -0.104528 0
    outer loop
      vertex -5.02768 1.06867 0.86
      vertex -5.02768 1.06867 12
      vertex -5.14 0 12
    endloop
  endfacet
  facet normal 0.994522 -0.104528 0
    outer loop
      vertex -5.14 0 0.86
      vertex -5.02768 1.06867 0.86
      vertex -5.14 0 12
    endloop
  endfacet
  facet normal 0 0 1
    outer loop
      vertex -5.02768 -1.06867 0.86
      vertex -4.69562 -2.09063 0.86
      vertex -4.15835 -3.02122 0.86
    endloop
  endfacet
  facet normal 0 0 1
    outer loop
      vertex -2.57 -4.45137 0.86
      vertex -5.02768 -1.06867 0.86
      vertex -3.43933 -3.81976 0.86
    endloop
  endfacet
  facet normal 0 0 1
    outer loop
      vertex -3.43933 -3.81976 0.86
      vertex -5.02768 -1.06867 0.86
      vertex -4.15835 -3.02122 0.86
    endloop
  endfacet
  facet normal 0 0 1
    outer loop
      vertex -1.58835 -4.88843 0.86
      vertex -5.02768 -1.06867 0.86
      vertex -2.57 -4.45137 0.86
    endloop
  endfacet
  facet normal 0 0 1
    outer loop
      vertex -0.537276 -5.11184 0.86
      vertex -5.02768 -1.06867 0.86
      vertex -1.58835 -4.88843 0.86
    endloop
  endfacet
  facet normal 0 0 1
    outer loop
      vertex 11.5373 -5.11184 0.86
      vertex -5.02768 -1.06867 0.86
      vertex -0.537276 -5.11184 0.86
    endloop
  endfacet
  facet normal 0 0 1
    outer loop
      vertex 12.5883 -4.88843 0.86
      vertex -5.02768 -1.06867 0.86
      vertex 11.5373 -5.11184 0.86
    endloop
  endfacet
  facet normal 0 0 1
    outer loop
      vertex 13.57 -4.45137 0.86
      vertex -5.02768 -1.06867 0.86
      vertex 12.5883 -4.88843 0.86
    endloop
  endfacet
  facet normal 0 0 1
    outer loop
      vertex 14.4393 -3.81976 0.86
      vertex -5.02768 -1.06867 0.86
      vertex 13.57 -4.45137 0.86
    endloop
  endfacet
  facet normal 0 0 1
    outer loop
      vertex 15.1583 -3.02122 0.86
      vertex -5.02768 -1.06867 0.86
      vertex 14.4393 -3.81976 0.86
    endloop
  endfacet
  facet normal 0 0 1
    outer loop
      vertex 15.6956 -2.09063 0.86
      vertex -5.02768 -1.06867 0.86
      vertex 15.1583 -3.02122 0.86
    endloop
  endfacet
  facet normal 0 0 1
    outer loop
      vertex 16.0277 -1.06867 0.86
      vertex -5.02768 -1.06867 0.86
      vertex 15.6956 -2.09063 0.86
    endloop
  endfacet
  facet normal 0 0 1
    outer loop
      vertex 16.14 0 0.86
      vertex -5.02768 -1.06867 0.86
      vertex 16.0277 -1.06867 0.86
    endloop
  endfacet
  facet normal 0 0 1
    outer loop
      vertex 16.0277 1.06867 0.86
      vertex -5.02768 -1.06867 0.86
      vertex 16.14 0 0.86
    endloop
  endfacet
  facet normal 0 0 1
    outer loop
      vertex 15.6956 2.09063 0.86
      vertex -5.02768 -1.06867 0.86
      vertex 16.0277 1.06867 0.86
    endloop
  endfacet
  facet normal 0 0 1
    outer loop
      vertex 15.1583 3.02122 0.86
      vertex -5.02768 -1.06867 0.86
      vertex 15.6956 2.09063 0.86
    endloop
  endfacet
  facet normal 0 0 1
    outer loop
      vertex 14.4393 3.81976 0.86
      vertex -5.02768 -1.06867 0.86
      vertex 15.1583 3.02122 0.86
    endloop
  endfacet
  facet normal 0 0 1
    outer loop
      vertex 13.57 4.45137 0.86
      vertex -5.02768 -1.06867 0.86
      vertex 14.4393 3.81976 0.86
    endloop
  endfacet
  facet normal 0 0 1
    outer loop
      vertex 12.5883 4.88843 0.86
      vertex -5.02768 -1.06867 0.86
      vertex 13.57 4.45137 0.86
    endloop
  endfacet
  facet normal 0 0 1
    outer loop
      vertex 11.5373 5.11184 0.86
      vertex -5.02768 -1.06867 0.86
      vertex 12.5883 4.88843 0.86
    endloop
  endfacet
  facet normal 0 0 1
    outer loop
      vertex -0.537276 5.11184 0.86
      vertex -5.02768 -1.06867 0.86
      vertex 11.5373 5.11184 0.86
    endloop
  endfacet
  facet normal 0 0 1
    outer loop
      vertex -1.58835 4.88843 0.86
      vertex -5.02768 -1.06867 0.86
      vertex -0.537276 5.11184 0.86
    endloop
  endfacet
  facet normal 0 0 1
    outer loop
      vertex -2.57 4.45137 0.86
      vertex -5.02768 -1.06867 0.86
      vertex -1.58835 4.88843 0.86
    endloop
  endfacet
  facet normal 0 0 1
    outer loop
      vertex -3.43933 3.81976 0.86
      vertex -5.02768 -1.06867 0.86
      vertex -2.57 4.45137 0.86
    endloop
  endfacet
  facet normal 0 0 1
    outer loop
      vertex -4.15835 3.02122 0.86
      vertex -5.02768 -1.06867 0.86
      vertex -3.43933 3.81976 0.86
    endloop
  endfacet
  facet normal 0 0 1
    outer loop
      vertex -4.69562 2.09063 0.86
      vertex -5.02768 -1.06867 0.86
      vertex -4.15835 3.02122 0.86
    endloop
  endfacet
  facet normal 0 0 1
    outer loop
      vertex -5.02768 1.06867 0.86
      vertex -5.02768 -1.06867 0.86
      vertex -4.69562 2.09063 0.86
    endloop
  endfacet
  facet normal 0 0 1
    outer loop
      vertex -5.14 0 0.86
      vertex -5.02768 -1.06867 0.86
      vertex -5.02768 1.06867 0.86
    endloop
  endfacet
endsolid OpenSCAD_Model
