999
DXF generated by OpenJsCad
  0
SECTION
  2
HEADER
  0
ENDSEC
  0
SECTION
  2
TABLES
  0
TABLE
  2
LTYPE
  70
1
  0
LTYPE
  2
CONTINUOUS
  3
Solid Line
  72
65
  73
0
  40
0.0
  0
ENDTAB
  0
TABLE
  2
LAYER
  70
1
  0
LAYER
  2
OpenJsCad
  62
7
  6
continuous
  0
ENDTAB
  0
TABLE
  2
STYLE
  70
0
  0
ENDTAB
  0
TABLE
  2
VIEW
  70
0
  0
ENDTAB
  0
ENDSEC
  0
SECTION
  2
BLOCKS
  0
ENDSEC
  0
SECTION
  2
ENTITIES
  0
LWPOLYLINE
  8
OpenJsCad
  90
2017
  70
1
 10
52.81547250551893
 20
-11.748864162835037
 30
0.0
 10
53.072920665901215
 20
-10.556860293407185
 30
0.0
 10
53.291229711986446
 20
-9.357071170097424
 30
0.0
 10
53.05877799086055
 20
-9.182657416320547
 30
0.0
 10
52.68347786632337
 20
-8.912413139321288
 30
0.0
 10
52.31823137210403
 20
-8.66014789743353
 30
0.0
 10
51.96359391906687
 20
-8.425358656111232
 30
0.0
 10
51.62010496228967
 20
-8.207527619019853
 30
0.0
 10
51.28828763778442
 20
-8.006122662146186
 30
0.0
 10
50.96864841055373
 20
-7.820597776702926
 30
0.0
 10
50.6616767326084
 20
-7.650393519466638
 30
0.0
 10
50.3678447139768
 20
-7.494937472454859
 30
0.0
 10
50.08760680380711
 20
-7.353644709060918
 30
0.0
 10
49.82139948372054
 20
-7.22591826831702
 30
0.0
 10
49.569640972998485
 20
-7.111149636188893
 30
0.0
 10
49.332730945605235
 20
-7.00871923371453
 30
0.0
 10
49.11105025912834
 20
-6.917996913288692
 30
0.0
 10
48.9049603390166
 20
-6.838343406623256
 30
0.0
 10
48.714761061133416
 20
-6.76909114138731
 30
0.0
 10
48.54090524772916
 20
-6.709628951351856
 30
0.0
 10
48.38356539940291
 20
-6.659243719493376
 30
0.0
 10
48.24306834215977
 20
-6.617275016088406
 30
0.0
 10
48.168369848854674
 20
-6.596549853512101
 30
0.0
 10
47.990310490187845
 20
-6.541772229547257
 30
0.0
 10
47.832987064725025
 20
-6.482930996784503
 30
0.0
 10
47.69648292724023
 20
-6.420819509160022
 30
0.0
 10
47.58085819506526
 20
-6.35623288605272
 30
0.0
 10
47.486149020420186
 20
-6.289969163565528
 30
0.0
 10
47.41237223478195
 20
-6.222816767132173
 30
0.0
 10
47.35951527906293
 20
-6.155579849465725
 30
0.0
 10
47.32754666037996
 20
-6.089050734255165
 30
0.0
 10
47.316410673263746
 20
-6.024023050864366
 30
0.0
 10
47.42091243037213
 20
-5.141092162986747
 30
0.0
 10
47.512710220575144
 20
-4.209053557684728
 30
0.0
 10
47.582467706677335
 20
-3.3227006577979106
 30
0.0
 10
47.606075990615686
 20
-3.2610949864194083
 30
0.0
 10
47.650409527766385
 20
-3.2020809776240045
 30
0.0
 10
47.715368126329906
 20
-3.1464478918858387
 30
0.0
 10
47.80082860975911
 20
-3.094981906949977
 30
0.0
 10
47.90664490208146
 20
-3.048465519926904
 30
0.0
 10
48.03264812782536
 20
-3.0076769516075954
 30
0.0
 10
48.17864672650343
 20
-2.973389553338751
 30
0.0
 10
48.344426581585715
 20
-2.946371216801537
 30
0.0
 10
48.52975116389257
 20
-2.927383787034165
 30
0.0
 10
48.607057623281264
 20
-2.921629805942513
 30
0.0
 10
48.753042761884984
 20
-2.907877135008452
 30
0.0
 10
48.91718903718266
 20
-2.889155523450791
 30
0.0
 10
49.09935049551633
 20
-2.864747340665279
 30
0.0
 10
49.29936002251642
 20
-2.83393891121076
 30
0.0
 10
49.51702944489104
 20
-2.796021068706099
 30
0.0
 10
49.752149645773244
 20
-2.7502897072055714
 30
0.0
 10
50.00449069361786
 20
-2.6960463297253465
 30
0.0
 10
50.27380198455058
 20
-2.632598593608818
 30
0.0
 10
50.55981239741252
 20
-2.5592608498139633
 30
0.0
 10
50.86223051142467
 20
-2.4753546804410242
 30
0.0
 10
51.180744555140905
 20
-2.380209474460992
 30
0.0
 10
51.51502306169425
 20
-2.27316284783144
 30
0.0
 10
51.86471462055203
 20
-2.1535612907511252
 30
0.0
 10
52.229448326027004
 20
-2.0207606223646297
 30
0.0
 10
52.60883396599389
 20
-1.874126518754189
 30
0.0
 10
53.00246226850784
 20
-1.713035021780272
 30
0.0
 10
53.40990516103006
 20
-1.536873041952059
 30
0.0
 10
53.8307160419332
 20
-1.3450388551062678
 30
0.0
 10
54.09272770380573
 20
-1.2193254938299516
 30
0.0
 10
54.11268065124441
 20
0
 30
0.0
 10
54.09272770380573
 20
1.2193254938299134
 30
0.0
 10
53.83071604193268
 20
1.3450388551064911
 30
0.0
 10
53.409905161030316
 20
1.536873041951928
 30
0.0
 10
53.00246226850774
 20
1.7130350217802874
 30
0.0
 10
52.60883396599371
 20
1.8741265187542382
 30
0.0
 10
52.22944832603431
 20
2.020760622361786
 30
0.0
 10
51.86471462048465
 20
2.1535612907754675
 30
0.0
 10
51.5150230617342
 20
2.273162847797291
 30
0.0
 10
51.18074455515199
 20
2.3802094744564206
 30
0.0
 10
50.862230466096065
 20
2.4753546939817586
 30
0.0
 10
50.559812398081604
 20
2.559260852409901
 30
0.0
 10
50.2738019845504
 20
2.632598593611071
 30
0.0
 10
50.00449069361874
 20
2.6960463297272863
 30
0.0
 10
49.752149645768554
 20
2.75028970720692
 30
0.0
 10
49.5170294448164
 20
2.796021067175074
 30
0.0
 10
49.29935985646625
 20
2.833937905166156
 30
0.0
 10
49.099304757649875
 20
2.864753469174688
 30
0.0
 10
48.91718903714865
 20
2.8891555232805874
 30
0.0
 10
48.75304275878126
 20
2.9078771353611526
 30
0.0
 10
48.60705762523535
 20
2.9216298057584726
 30
0.0
 10
48.52975116389256
 20
2.927383787034267
 30
0.0
 10
48.34442658157551
 20
2.9463712166941525
 30
0.0
 10
48.17864672657146
 20
2.97338955393442
 30
0.0
 10
48.03264812769067
 20
3.007676950602016
 30
0.0
 10
47.90664486722296
 20
3.0484652936235648
 30
0.0
 10
47.800828091853916
 20
3.094978933884338
 30
0.0
 10
47.71536812382013
 20
3.146447878982497
 30
0.0
 10
47.65040952776507
 20
3.2020809776174177
 30
0.0
 10
47.60607599061611
 20
3.261094986420913
 30
0.0
 10
47.5824677066771
 20
3.3227006577968616
 30
0.0
 10
47.51271022059124
 20
4.20905355768611
 30
0.0
 10
47.42091243035607
 20
5.141092162984963
 30
0.0
 10
47.31641067326418
 20
6.024023050863383
 30
0.0
 10
47.32754666037924
 20
6.089050734256558
 30
0.0
 10
47.3595152790655
 20
6.155579849459521
 30
0.0
 10
47.41237223976081
 20
6.222816754966398
 30
0.0
 10
47.48615010839031
 20
6.289966348664802
 30
0.0
 10
47.58085827340356
 20
6.356232670898292
 30
0.0
 10
47.69648292756851
 20
6.42081950820004
 30
0.0
 10
47.832987064542095
 20
6.482930997355455
 30
0.0
 10
47.990310490218796
 20
6.541772229443924
 30
0.0
 10
48.16836984885466
 20
6.596549853512203
 30
0.0
 10
48.24306834027914
 20
6.61727501552668
 30
0.0
 10
48.38356540237819
 20
6.659243720444806
 30
0.0
 10
48.54090524779571
 20
6.709628951191557
 30
0.0
 10
48.71480472454672
 20
6.769106075154223
 30
0.0
 10
48.904960698145715
 20
6.838342452304296
 30
0.0
 10
49.111050259500225
 20
6.917996911801646
 30
0.0
 10
49.332730945609576
 20
7.008719233716769
 30
0.0
 10
49.569640972997234
 20
7.111149636190623
 30
0.0
 10
49.82139948372027
 20
7.2259182683192655
 30
0.0
 10
50.087606802644444
 20
7.353644711476445
 30
0.0
 10
50.36784475579275
 20
7.4949374945785845
 30
0.0
 10
50.661676732598416
 20
7.650393519459993
 30
0.0
 10
50.96864841052121
 20
7.820597776661639
 30
0.0
 10
51.288287637845755
 20
8.006122662183204
 30
0.0
 10
51.62010496228306
 20
8.20752761901564
 30
0.0
 10
51.96359391906702
 20
8.425358656111316
 30
0.0
 10
52.31823137210412
 20
8.660147897433564
 30
0.0
 10
52.683477866323145
 20
8.91241313932111
 30
0.0
 10
53.05877799086102
 20
9.182657416320867
 30
0.0
 10
53.29122971198645
 20
9.357071170097385
 30
0.0
 10
53.072920665901215
 20
10.556860293407189
 30
0.0
 10
52.81547250551894
 20
11.74886416283498
 30
0.0
 10
52.53396986412668
 20
11.82104603763827
 30
0.0
 10
52.08381975301876
 20
11.927098054111264
 30
0.0
 10
51.64983826405599
 20
12.020386965788198
 30
0.0
 10
51.23234602698141
 20
12.101590062526245
 30
0.0
 10
50.831643281221524
 20
12.17139216628168
 30
0.0
 10
50.448009706386706
 20
12.23048509102371
 30
0.0
 10
50.08170426660999
 20
12.279567098861072
 30
0.0
 10
49.73296506693331
 20
12.319342353112972
 30
0.0
 10
49.40200922527073
 20
12.350520367723565
 30
0.0
 10
49.08903275616728
 20
12.373815454572634
 30
0.0
 10
48.79421046898696
 20
12.389946167964991
 30
0.0
 10
48.51769587972469
 20
12.399634747152247
 30
0.0
 10
48.259621136371955
 20
12.40360655706065
 30
0.0
 10
48.02009695841021
 20
12.402589526053983
 30
0.0
 10
47.79921262203144
 20
12.397312572550724
 30
0.0
 10
47.5969897075372
 20
12.388507210488559
 30
0.0
 10
47.41361268494619
 20
12.376911371410444
 30
0.0
 10
47.24896802596102
 20
12.36324990266004
 30
0.0
 10
47.10310494292509
 20
12.348258032638931
 30
0.0
 10
47.02616135750006
 20
12.338819710340651
 30
0.0
 10
46.840693471300014
 20
12.321287269422022
 30
0.0
 10
46.672828013612104
 20
12.315444411591718
 30
0.0
 10
46.52294559761336
 20
12.320590071877085
 30
0.0
 10
46.39140604348924
 20
12.336012661664931
 30
0.0
 10
46.27854814673093
 20
12.360988726589213
 30
0.0
 10
46.184689174946634
 20
12.394796297656171
 30
0.0
 10
46.11012526097273
 20
12.436687628478426
 30
0.0
 10
46.055130518327886
 20
12.485918655611975
 30
0.0
 10
46.01995719067817
 20
12.541734843570953
 30
0.0
 10
45.778621202467896
 20
13.39744771060152
 30
0.0
 10
45.50675556939248
 20
14.293668594988844
 30
0.0
 10
45.232010513026296
 20
15.139246931991046
 30
0.0
 10
45.23024625357838
 20
15.20519764999404
 30
0.0
 10
45.248621417712286
 20
15.276685195017269
 30
0.0
 10
45.2873454771824
 20
15.352942043721118
 30
0.0
 10
45.346605488895854
 20
15.433194724954163
 30
0.0
 10
45.42656594493149
 20
15.51666440479722
 30
0.0
 10
45.527368636900995
 20
15.602567475144616
 30
0.0
 10
45.6491325347386
 20
15.69011614549088
 30
0.0
 10
45.79195367998895
 20
15.77851903757999
 30
0.0
 10
45.95590509365829
 20
15.866981782575877
 30
0.0
 10
46.0251249959845
 20
15.901881669159767
 30
0.0
 10
46.15473475827407
 20
15.970453574268273
 30
0.0
 10
46.29922169178926
 20
16.050566148042883
 30
0.0
 10
46.458176327589996
 20
16.142826540663975
 30
0.0
 10
46.6311711603632
 20
16.24783015036393
 30
0.0
 10
46.81776095443111
 20
16.36616015064622
 30
0.0
 10
47.01748306132037
 20
16.498387025022403
 30
0.0
 10
47.22985774875926
 20
16.64506810956645
 30
0.0
 10
47.45438854089332
 20
16.806747143537493
 30
0.0
 10
47.690562567904244
 20
16.98395383047628
 30
0.0
 10
47.93785097280849
 20
17.17720342489091
 30
0.0
 10
48.1957090846178
 20
17.386996180818244
 30
0.0
 10
48.46357718447918
 20
17.61381721443938
 30
0.0
 10
48.74088052402014
 20
17.858135811095153
 30
0.0
 10
49.02702991372695
 20
18.120405176831657
 30
0.0
 10
49.321422099349626
 20
18.40106202281803
 30
0.0
 10
49.62344018447262
 20
18.700526189615925
 30
0.0
 10
49.9324540624482
 20
19.019200281789036
 30
0.0
 10
50.24782085730554
 20
19.357469312932402
 30
0.0
 10
50.44177964840147
 20
19.57388083646385
 30
0.0
 10
49.993598103004246
 20
20.70802636609419
 30
0.0
 10
49.50854831810327
 20
21.82690057090123
 30
0.0
 10
49.21837268583202
 20
21.842777050262598
 30
0.0
 10
48.75618236084131
 20
21.85897137684475
 30
0.0
 10
48.31233994067956
 20
21.865802179811535
 30
0.0
 10
47.887027761582864
 20
21.863996286845264
 30
0.0
 10
47.480406691825365
 20
21.854283935046727
 30
0.0
 10
47.09261607084211
 20
21.837398208158962
 30
0.0
 10
46.723773662663284
 20
21.814074472776184
 30
0.0
 10
46.373975621760515
 20
21.785049813906177
 30
0.0
 10
46.04329647488419
 20
21.75106246998537
 30
0.0
 10
45.731789114880165
 20
21.712851268131786
 30
0.0
 10
45.439484809208835
 20
21.67115505944588
 30
0.0
 10
45.16639322221013
 20
21.62671215503942
 30
0.0
 10
44.91250245101191
 20
21.58025976294923
 30
0.0
 10
44.67777907587294
 20
21.532533424898972
 30
0.0
 10
44.46216845263922
 20
21.48426547026515
 30
0.0
 10
44.2655490356632
 20
21.436177567258234
 30
0.0
 10
44.08795778712156
 20
21.389029456588858
 30
0.0
 10
43.92914194942964
 20
21.343509909590118
 30
0.0
 10
43.78900635338381
 20
21.300349628307952
 30
0.0
 10
43.71538254271395
 20
21.27608171186845
 30
0.0
 10
43.53689877948599
 20
21.222703162243505
 30
0.0
 10
43.37339869451314
 20
21.184223647092338
 30
0.0
 10
43.225392358588245
 20
21.160029826156432
 30
0.0
 10
43.09337150210446
 20
21.149493981234112
 30
0.0
 10
42.97780954963787
 20
21.151972654653605
 30
0.0
 10
42.87915852175202
 20
21.166819645692758
 30
0.0
 10
42.79785473925736
 20
21.193359348351777
 30
0.0
 10
42.73431220823507
 20
21.230915473051716
 30
0.0
 10
42.688925528130795
 20
21.278797192792542
 30
0.0
 10
42.28528544448026
 20
22.07098546137375
 30
0.0
 10
41.843799612379684
 20
22.896947358869
 30
0.0
 10
41.40936955517655
 20
23.67267804370978
 30
0.0
 10
41.39477284866682
 20
23.737017347215325
 30
0.0
 10
41.398848410995626
 20
23.81071609579426
 30
0.0
 10
41.4219514253518
 20
23.893062379764725
 30
0.0
 10
41.46441625113247
 20
23.983334082998844
 30
0.0
 10
41.526556162707394
 20
24.080799427465436
 30
0.0
 10
41.60866310155984
 20
24.184717524040025
 30
0.0
 10
41.71100744195356
 20
24.294338929273597
 30
0.0
 10
41.833837770260615
 20
24.408906207797273
 30
0.0
 10
41.977380678081126
 20
24.527654500041052
 30
0.0
 10
42.038461909281644
 20
24.575387928125018
 30
0.0
 10
42.15220354128294
 20
24.66792785356616
 30
0.0
 10
42.27828501107001
 20
24.774689089086113
 30
0.0
 10
42.41618626840945
 20
24.896187235217422
 30
0.0
 10
42.565371865950006
 20
25.032922847633195
 30
0.0
 10
42.72529135158603
 20
25.18538103314981
 30
0.0
 10
42.895379670692904
 20
25.354031055358462
 30
0.0
 10
43.07505757804583
 20
25.539325950153373
 30
0.0
 10
43.26373205916753
 20
25.741702151361956
 30
0.0
 10
43.4607967588551
 20
25.961579128481947
 30
0.0
 10
43.665632460795734
 20
26.199359060671334
 30
0.0
 10
43.87760736498037
 20
26.455426329687445
 30
0.0
 10
44.09607786592481
 20
26.7301475346087
 30
0.0
 10
44.32038870585714
 20
27.02387081574465
 30
0.0
 10
44.54987360026145
 20
27.336925725742326
 30
0.0
 10
44.78385568812639
 20
27.66962289542232
 30
0.0
 10
45.0216480196977
 20
28.022253747707246
 30
0.0
 10
45.26255405139622
 20
28.395090223518213
 30
0.0
 10
45.505868147506405
 20
28.7883845196418
 30
0.0
 10
45.65388028100434
 20
29.03847723944384
 30
0.0
 10
44.993049601741625
 20
30.063394598727175
 30
0.0
 10
44.29903838353667
 20
31.066141430694604
 30
0.0
 10
44.01134104720223
 20
31.02510239041583
 30
0.0
 10
43.55487222331881
 20
30.95081668821847
 30
0.0
 10
43.118225487255195
 20
30.870926878547856
 30
0.0
 10
42.70143787466125
 20
30.786181395331198
 30
0.0
 10
42.30452470058119
 20
30.69732782821156
 30
0.0
 10
41.9274796095384
 20
30.605112358708674
 30
0.0
 10
41.57027463985457
 20
30.510279198176413
 30
0.0
 10
41.232860300268605
 20
30.413570027547653
 30
0.0
 10
40.91516566234599
 20
30.315723439662
 30
0.0
 10
40.61709846459101
 20
30.217474384163907
 30
0.0
 10
40.338545230969466
 20
30.11955361531603
 30
0.0
 10
40.07937140277117
 20
30.022687143208344
 30
0.0
 10
39.83942148368103
 20
29.927595688496773
 30
0.0
 10
39.61851919903704
 20
29.83499413980896
 30
0.0
 10
39.416468084283416
 20
29.745590094472174
 30
0.0
 10
39.23300813875456
 20
29.66006764166506
 30
0.0
 10
39.068027396349436
 20
29.579179134856474
 30
0.0
 10
38.9211435835283
 20
29.50355080027291
 30
0.0
 10
38.792120806839655
 20
29.433880733134792
 30
0.0
 10
38.7246460926803
 20
29.395715824973237
 30
0.0
 10
38.56000548335043
 20
29.308542474369023
 30
0.0
 10
38.40715398766626
 20
29.23890504808469
 30
0.0
 10
38.26671153230188
 20
29.186301500898026
 30
0.0
 10
38.13928286093497
 20
29.150212107877337
 30
0.0
 10
38.02545783378551
 20
29.130098135762584
 30
0.0
 10
37.92580585347561
 20
29.12541398523459
 30
0.0
 10
37.84088666122579
 20
29.135582153840822
 30
0.0
 10
37.77123824565816
 20
29.160020115296653
 30
0.0
 10
37.71738239776259
 20
29.198127299182058
 30
0.0
 10
37.16694988072251
 20
29.896347618416627
 30
0.0
 10
36.57280990253629
 20
30.62030927650383
 30
0.0
 10
35.99538974796335
 20
31.296381413999544
 30
0.0
 10
35.96852153763705
 20
31.356636779655823
 30
0.0
 10
35.958140876586064
 20
31.429714530213296
 30
0.0
 10
35.96473500994291
 20
31.514985727937727
 30
0.0
 10
35.98877275035059
 20
31.611807362242587
 30
0.0
 10
36.03070411551143
 20
31.719522832804056
 30
0.0
 10
36.09095997763285
 20
31.83746244143242
 30
0.0
 10
36.1699517249767
 20
31.96494389242656
 30
0.0
 10
36.26807093570767
 20
32.10127280112121
 30
0.0
 10
36.38568906423159
 20
32.24574321033676
 30
0.0
 10
36.43628430684613
 20
32.30447581104876
 30
0.0
 10
36.529786781428385
 20
32.417427499384814
 30
0.0
 10
36.632617547310716
 20
32.54673462224147
 30
0.0
 10
36.744165958205215
 20
32.69280141626412
 30
0.0
 10
36.86380920166389
 20
32.85601435849279
 30
0.0
 10
36.990912762718935
 20
33.03674184667385
 30
0.0
 10
37.12483089532677
 20
33.23533389094152
 30
0.0
 10
37.26490710137869
 20
33.4521218170949
 30
0.0
 10
37.41047461698838
 20
33.68741798162246
 30
0.0
 10
37.56085690345876
 20
33.941515500001366
 30
0.0
 10
37.71536818128341
 20
34.21468802052
 30
0.0
 10
37.873313801152435
 20
34.50718928108077
 30
0.0
 10
38.033991004348316
 20
34.81925327546245
 30
0.0
 10
38.196689204888386
 20
35.15109362010644
 30
0.0
 10
38.360690628194845
 20
35.50290354973728
 30
0.0
 10
38.52527081788407
 20
35.87485567745882
 30
0.0
 10
38.68969916995689
 20
36.26710180933514
 30
0.0
 10
38.85323947168183
 20
36.67977277210764
 30
0.0
 10
39.01515044478346
 20
37.112978253973395
 30
0.0
 10
39.11152789739925
 20
37.38714124707766
 30
0.0
 10
38.26344343667701
 20
38.26344343667701
 30
0.0
 10
37.387141247077686
 20
39.11152789739922
 30
0.0
 10
37.11297825397287
 20
39.01515044478326
 30
0.0
 10
36.67977277210791
 20
38.85323947168193
 30
0.0
 10
36.26710180933505
 20
38.68969916995683
 30
0.0
 10
35.87485567745866
 20
38.525270817883985
 30
0.0
 10
35.50290354974447
 20
38.360690628198
 30
0.0
 10
35.151093620041586
 20
38.19668920485796
 30
0.0
 10
34.819253275514846
 20
38.03399100435242
 30
0.0
 10
34.50718928109183
 20
37.873313801157046
 30
0.0
 10
34.21468797889309
 20
37.715368158806
 30
0.0
 10
33.94151549863887
 20
37.56085690576749
 30
0.0
 10
33.68741798162074
 20
37.41047461698986
 30
0.0
 10
33.45212181709415
 20
37.264907101380686
 30
0.0
 10
33.235333890937255
 20
37.124830895324415
 30
0.0
 10
33.03674184770368
 20
36.990912761583566
 30
0.0
 10
32.85601495245856
 20
36.86380837286774
 30
0.0
 10
32.69276474119803
 20
36.74413795016025
 30
0.0
 10
32.54673462233778
 20
36.632617547166326
 30
0.0
 10
32.41742749694075
 20
36.529786779483125
 30
0.0
 10
32.304475812560646
 20
36.436284308097754
 30
0.0
 10
32.24574321033669
 20
36.38568906423166
 30
0.0
 10
32.101272801189936
 20
36.26807093562453
 30
0.0
 10
31.964943892053462
 20
36.16995172544601
 30
0.0
 10
31.837462442048235
 20
36.09095997682656
 30
0.0
 10
31.719522968175998
 20
36.03070393084212
 30
0.0
 10
31.61180909830319
 20
35.98877028186145
 30
0.0
 10
31.514985735287087
 20
35.9647349990442
 30
0.0
 10
31.429714530217026
 20
35.95814087658049
 30
0.0
 10
31.356636779655062
 20
35.96852153763842
 30
0.0
 10
31.29638141400012
 20
35.99538974796245
 30
0.0
 10
30.620309276514238
 20
36.57280990254866
 30
0.0
 10
29.896347618406537
 20
37.16694988070991
 30
0.0
 10
29.198127299183064
 20
37.71738239776221
 30
0.0
 10
29.160020115295165
 20
37.77123824565865
 30
0.0
 10
29.13558215384703
 20
37.84088666122322
 30
0.0
 10
29.125413997357686
 20
37.9258058483937
 30
0.0
 10
29.130100895509024
 20
38.025456612661166
 30
0.0
 10
29.150212315408034
 20
38.139282764191364
 30
0.0
 10
29.186301501808963
 20
38.26671153185521
 30
0.0
 10
29.238905047551615
 20
38.40715398794064
 30
0.0
 10
29.308542474463977
 20
38.560005483299264
 30
0.0
 10
29.39571582497316
 20
38.724646092680366
 30
0.0
 10
29.433880732202184
 20
38.79212080511265
 30
0.0
 10
29.503550801703984
 20
38.9211435863049
 30
0.0
 10
29.579179135016883
 20
39.068027396283156
 30
0.0
 10
29.660087956592836
 20
39.233049573218054
 30
0.0
 10
29.745591023220214
 20
39.41646766342064
 30
0.0
 10
29.834994141123424
 20
39.6185191982485
 30
0.0
 10
29.927595688498258
 20
39.83942148368568
 30
0.0
 10
30.022687143206237
 20
40.079371402771514
 30
0.0
 10
30.119553615314253
 20
40.33854523097087
 30
0.0
 10
30.217474381633746
 20
40.61709846547692
 30
0.0
 10
30.315723453586514
 20
40.915165707558174
 30
0.0
 10
30.413570027545294
 20
41.23286030025685
 30
0.0
 10
30.510279198182612
 20
41.57027463980238
 30
0.0
 10
30.60511235872587
 20
41.92747960960794
 30
0.0
 10
30.697327828209865
 20
42.30452470057354
 30
0.0
 10
30.786181395331248
 20
42.70143787466143
 30
0.0
 10
30.8709268785479
 20
43.118225487255295
 30
0.0
 10
30.950816688218435
 20
43.554872223318526
 30
0.0
 10
31.025102390415935
 20
44.01134104720279
 30
0.0
 10
31.06614143069464
 20
44.29903838353665
 30
0.0
 10
30.06339459872718
 20
44.99304960174164
 30
0.0
 10
29.038477239443875
 20
45.65388028100432
 30
0.0
 10
28.788384519641326
 20
45.5058681475061
 30
0.0
 10
28.395090223518466
 20
45.262554051396364
 30
0.0
 10
28.022253747707182
 20
45.02164801969762
 30
0.0
 10
27.669622895422183
 20
44.78385568812627
 30
0.0
 10
27.336925725748753
 20
44.54987360026595
 30
0.0
 10
27.023870815686983
 20
44.32038870581464
 30
0.0
 10
26.730147534659288
 20
44.09607786593905
 30
0.0
 10
26.455426329697403
 20
43.87760736498705
 30
0.0
 10
26.199359024229405
 20
43.665632430629216
 30
0.0
 10
25.961579126695227
 20
43.46079676085365
 30
0.0
 10
25.74170215135998
 20
43.26373205916863
 30
0.0
 10
25.539325950152246
 20
43.07505757804764
 30
0.0
 10
25.35403105535474
 20
42.895379670689756
 30
0.0
 10
25.185381034381347
 20
42.72529135067339
 30
0.0
 10
25.03292359187619
 20
42.5653711689559
 30
0.0
 10
24.89615672895096
 20
42.416151643580754
 30
0.0
 10
24.774689089208742
 20
42.27828501094717
 30
0.0
 10
24.667927851548566
 20
42.152203538898235
 30
0.0
 10
24.57538792936368
 20
42.038461910804166
 30
0.0
 10
24.527654500040967
 20
41.977380678081175
 30
0.0
 10
24.408906207880896
 20
41.833837770192474
 30
0.0
 10
24.29433892881611
 20
41.71100744234106
 30
0.0
 10
24.184717524801307
 20
41.60866310088919
 30
0.0
 10
24.08079959626344
 20
41.526556007996206
 30
0.0
 10
23.983336267279874
 20
41.46441416876327
 30
0.0
 10
23.893062389099107
 20
41.421951416096285
 30
0.0
 10
23.81071609579901
 20
41.39884841099087
 30
0.0
 10
23.737017347214312
 20
41.39477284866801
 30
0.0
 10
23.672678043710523
 20
41.40936955517577
 30
0.0
 10
22.896947358876794
 20
41.84379961239383
 30
0.0
 10
22.070985461366313
 20
42.28528544446591
 30
0.0
 10
21.278797192793604
 20
42.68892552813061
 30
0.0
 10
21.230915473050167
 20
42.734312208235245
 30
0.0
 10
21.193359348358367
 20
42.79785473925605
 30
0.0
 10
21.166819658574344
 20
42.87915851913286
 30
0.0
 10
21.151975599601833
 20
42.97780889037691
 30
0.0
 10
21.14949420365091
 20
43.09337144770698
 30
0.0
 10
21.16002982713701
 20
43.22539235832786
 30
0.0
 10
21.184223646515978
 20
43.373398694678244
 30
0.0
 10
21.22270316234662
 20
43.53689877945432
 30
0.0
 10
21.276081711868365
 20
43.715382542713996
 30
0.0
 10
21.30034962773019
 20
43.789006351508036
 30
0.0
 10
21.34350991045201
 20
43.92914195243207
 30
0.0
 10
21.38902945675912
 20
44.08795778708785
 30
0.0
 10
21.43618940837755
 20
44.26559363722089
 30
0.0
 10
21.484266463273812
 20
44.46216822105297
 30
0.0
 10
21.532533426342017
 20
44.677779075356
 30
0.0
 10
21.58025976294978
 20
44.912502451016756
 30
0.0
 10
21.626712155037293
 20
45.16639322221006
 30
0.0
 10
21.671155059443862
 20
45.43948480920986
 30
0.0
 10
21.712851265477404
 20
45.73178911525543
 30
0.0
 10
21.751062474821868
 20
46.04329652194417
 30
0.0
 10
21.785049813906156
 20
46.37397562174853
 30
0.0
 10
21.81407447279245
 20
46.7237736626133
 30
0.0
 10
21.837398208162256
 20
47.09261607091368
 30
0.0
 10
21.854283935046556
 20
47.48040669181752
 30
0.0
 10
21.863996286845286
 20
47.88702776158305
 30
0.0
 10
21.865802179811563
 20
48.31233994067966
 30
0.0
 10
21.858971376844774
 20
48.756182360841024
 30
0.0
 10
21.84277705026259
 20
49.21837268583259
 30
0.0
 10
21.826900570901266
 20
49.50854831810326
 30
0.0
 10
20.70802636609418
 20
49.99359810300424
 30
0.0
 10
19.57388083646387
 20
50.44177964840146
 30
0.0
 10
19.357469312931983
 20
50.24782085730516
 30
0.0
 10
19.019200281789246
 20
49.93245406244839
 30
0.0
 10
18.700526189615857
 20
49.623440184472535
 30
0.0
 10
18.40106202281791
 20
49.32142209934948
 30
0.0
 10
18.120405176837068
 20
49.02702991373261
 30
0.0
 10
17.858135811046868
 20
48.740880523967206
 30
0.0
 10
17.6138172144862
 20
48.46357718450302
 30
0.0
 10
17.3869961808267
 20
48.1957090846263
 30
0.0
 10
17.177203395034386
 20
47.93785093611214
 30
0.0
 10
16.98395382833398
 20
47.69056256951582
 30
0.0
 10
16.806747143535333
 20
47.45438854089402
 30
0.0
 10
16.64506810956498
 20
47.229857748760814
 30
0.0
 10
16.49838702501935
 20
47.017483061316554
 30
0.0
 10
16.36616015203213
 20
46.81776095377626
 30
0.0
 10
16.247831016283293
 20
46.63117062195626
 30
0.0
 10
16.14280337553583
 20
46.458136416590335
 30
0.0
 10
16.050566148187105
 20
46.299221691692715
 30
0.0
 10
15.970453572754668
 20
46.15473475554158
 30
0.0
 10
15.901881670077582
 20
46.025124997719416
 30
0.0
 10
15.866981782575767
 20
45.95590509365832
 30
0.0
 10
15.778519037675288
 20
45.79195367993844
 30
0.0
 10
15.690116144966574
 20
45.6491325350294
 30
0.0
 10
15.602567476022095
 20
45.527368636391735
 30
0.0
 10
15.51666460053446
 20
45.4265658261239
 30
0.0
 10
15.433197273514907
 20
45.34660387267088
 30
0.0
 10
15.35294205468179
 20
45.28734546992577
 30
0.0
 10
15.27668519502284
 20
45.248621417708556
 30
0.0
 10
15.205197649992801
 20
45.230246253579345
 30
0.0
 10
15.139246931991913
 20
45.232010513025685
 30
0.0
 10
14.293668594993715
 20
45.50675556940788
 30
0.0
 10
13.397447710597014
 20
45.778621202452385
 30
0.0
 10
12.541734843572016
 20
46.01995719067819
 30
0.0
 10
12.485918655610405
 20
46.05513051832776
 30
0.0
 10
12.43668762848513
 20
46.11012526097273
 30
0.0
 10
12.394796310801201
 20
46.18468917489086
 30
0.0
 10
12.36099174356651
 20
46.278548074668386
 30
0.0
 10
12.33601289042046
 20
46.39140603352835
 30
0.0
 10
12.32059007288961
 20
46.52294559754928
 30
0.0
 10
12.31544441099421
 20
46.6728280136616
 30
0.0
 10
12.321287269529321
 20
46.840693471289065
 30
0.0
 10
12.338819710340541
 20
47.02616135750008
 30
0.0
 10
12.348258032438197
 20
47.103104940972656
 30
0.0
 10
12.363249902919609
 20
47.248968029073914
 30
0.0
 10
12.376911371584
 20
47.41361268494634
 30
0.0
 10
12.388510122751823
 20
47.59703576217624
 30
0.0
 10
12.397313591659229
 20
47.79921258862143
 30
0.0
 10
12.402589527570138
 20
48.020096958184716
 30
0.0
 10
12.403606557060229
 20
48.259621136376815
 30
0.0
 10
12.399634747150161
 20
48.5176958797242
 30
0.0
 10
12.389946167962805
 20
48.79421046898757
 30
0.0
 10
12.373815451896029
 20
49.08903275601749
 30
0.0
 10
12.35052036328617
 20
49.402009272370016
 30
0.0
 10
12.319342353115282
 20
49.732965066921544
 30
0.0
 10
12.279567098886758
 20
50.081704266564145
 30
0.0
 10
12.230485091012966
 20
50.44800970645754
 30
0.0
 10
12.171392166283027
 20
50.83164328121381
 30
0.0
 10
12.10159006252622
 20
51.23234602698159
 30
0.0
 10
12.020386965788191
 20
51.649838264056086
 30
0.0
 10
11.92709805411133
 20
52.083819753018474
 30
0.0
 10
11.82104603763814
 20
52.53396986412724
 30
0.0
 10
11.748864162835009
 20
52.81547250551893
 30
0.0
 10
10.556860293407185
 20
53.072920665901215
 30
0.0
 10
9.357071170097424
 20
53.291229711986446
 30
0.0
 10
9.182657416320547
 20
53.05877799086055
 30
0.0
 10
8.912413139321288
 20
52.68347786632337
 30
0.0
 10
8.66014789743353
 20
52.31823137210403
 30
0.0
 10
8.425358656111232
 20
51.96359391906687
 30
0.0
 10
8.207527619019853
 20
51.62010496228967
 30
0.0
 10
8.006122662146186
 20
51.28828763778442
 30
0.0
 10
7.820597776702926
 20
50.96864841055373
 30
0.0
 10
7.650393519466638
 20
50.6616767326084
 30
0.0
 10
7.494937472454859
 20
50.3678447139768
 30
0.0
 10
7.353644709060918
 20
50.08760680380711
 30
0.0
 10
7.22591826831702
 20
49.82139948372054
 30
0.0
 10
7.111149636188893
 20
49.569640972998485
 30
0.0
 10
7.00871923371453
 20
49.332730945605235
 30
0.0
 10
6.917996913288692
 20
49.11105025912834
 30
0.0
 10
6.838343406623256
 20
48.9049603390166
 30
0.0
 10
6.76909114138731
 20
48.714761061133416
 30
0.0
 10
6.709628951351856
 20
48.54090524772916
 30
0.0
 10
6.659243719493376
 20
48.38356539940291
 30
0.0
 10
6.617275016088406
 20
48.24306834215977
 30
0.0
 10
6.596549853512101
 20
48.168369848854674
 30
0.0
 10
6.541772229547257
 20
47.990310490187845
 30
0.0
 10
6.482930996784503
 20
47.832987064725025
 30
0.0
 10
6.420819509160022
 20
47.69648292724023
 30
0.0
 10
6.35623288605272
 20
47.58085819506526
 30
0.0
 10
6.289969163565528
 20
47.486149020420186
 30
0.0
 10
6.222816767132173
 20
47.41237223478195
 30
0.0
 10
6.155579849465725
 20
47.35951527906293
 30
0.0
 10
6.089050734255165
 20
47.32754666037996
 30
0.0
 10
6.024023050864366
 20
47.316410673263746
 30
0.0
 10
5.141092162986747
 20
47.42091243037213
 30
0.0
 10
4.209053557684728
 20
47.512710220575144
 30
0.0
 10
3.3227006577979106
 20
47.582467706677335
 30
0.0
 10
3.2610949864194083
 20
47.606075990615686
 30
0.0
 10
3.2020809776240045
 20
47.650409527766385
 30
0.0
 10
3.1464478918858387
 20
47.715368126329906
 30
0.0
 10
3.094981906949977
 20
47.80082860975911
 30
0.0
 10
3.048465519926904
 20
47.90664490208146
 30
0.0
 10
3.0076769516075954
 20
48.03264812782536
 30
0.0
 10
2.973389553338751
 20
48.17864672650343
 30
0.0
 10
2.946371216801537
 20
48.344426581585715
 30
0.0
 10
2.927383787034165
 20
48.52975116389257
 30
0.0
 10
2.921629805942513
 20
48.607057623281264
 30
0.0
 10
2.907877135008452
 20
48.753042761884984
 30
0.0
 10
2.889155523450791
 20
48.91718903718266
 30
0.0
 10
2.864747340665279
 20
49.09935049551633
 30
0.0
 10
2.83393891121076
 20
49.29936002251642
 30
0.0
 10
2.796021068706099
 20
49.51702944489104
 30
0.0
 10
2.7502897072055714
 20
49.752149645773244
 30
0.0
 10
2.6960463297253465
 20
50.00449069361786
 30
0.0
 10
2.632598593608818
 20
50.27380198455058
 30
0.0
 10
2.5592608498139633
 20
50.55981239741252
 30
0.0
 10
2.4753546804410242
 20
50.86223051142467
 30
0.0
 10
2.380209474460992
 20
51.180744555140905
 30
0.0
 10
2.27316284783144
 20
51.51502306169425
 30
0.0
 10
2.1535612907511252
 20
51.86471462055203
 30
0.0
 10
2.0207606223646297
 20
52.229448326027004
 30
0.0
 10
1.874126518754189
 20
52.60883396599389
 30
0.0
 10
1.713035021780272
 20
53.00246226850784
 30
0.0
 10
1.536873041952059
 20
53.40990516103006
 30
0.0
 10
1.3450388551062678
 20
53.8307160419332
 30
0.0
 10
1.2193254938299516
 20
54.09272770380573
 30
0.0
 10
3.552713678800501e-15
 20
54.11268065124441
 30
0.0
 10
-1.2193254938299098
 20
54.09272770380573
 30
0.0
 10
-1.3450388551064894
 20
53.83071604193268
 30
0.0
 10
-1.5368730419519245
 20
53.409905161030316
 30
0.0
 10
-1.7130350217802839
 20
53.002462268507735
 30
0.0
 10
-1.8741265187542364
 20
52.6088339659937
 30
0.0
 10
-2.0207606223617844
 20
52.22944832603431
 30
0.0
 10
-2.153561290775464
 20
51.86471462048465
 30
0.0
 10
-2.2731628477972876
 20
51.5150230617342
 30
0.0
 10
-2.380209474456419
 20
51.18074455515199
 30
0.0
 10
-2.475354693981757
 20
50.862230466096065
 30
0.0
 10
-2.559260852409899
 20
50.559812398081604
 30
0.0
 10
-2.6325985936110694
 20
50.2738019845504
 30
0.0
 10
-2.6960463297272828
 20
50.00449069361874
 30
0.0
 10
-2.7502897072069183
 20
49.752149645768554
 30
0.0
 10
-2.7960210671750723
 20
49.5170294448164
 30
0.0
 10
-2.833937905166154
 20
49.29935985646625
 30
0.0
 10
-2.8647534691746843
 20
49.099304757649875
 30
0.0
 10
-2.889155523280584
 20
48.91718903714865
 30
0.0
 10
-2.9078771353611508
 20
48.75304275878126
 30
0.0
 10
-2.921629805758471
 20
48.60705762523535
 30
0.0
 10
-2.9273837870342634
 20
48.52975116389256
 30
0.0
 10
-2.946371216694149
 20
48.34442658157551
 30
0.0
 10
-2.9733895539344166
 20
48.17864672657145
 30
0.0
 10
-3.0076769506020122
 20
48.03264812769067
 30
0.0
 10
-3.0484652936235612
 20
47.90664486722296
 30
0.0
 10
-3.0949789338843345
 20
47.800828091853916
 30
0.0
 10
-3.1464478789824932
 20
47.71536812382013
 30
0.0
 10
-3.202080977617416
 20
47.65040952776507
 30
0.0
 10
-3.2610949864209093
 20
47.60607599061611
 30
0.0
 10
-3.322700657796858
 20
47.5824677066771
 30
0.0
 10
-4.209053557686108
 20
47.51271022059124
 30
0.0
 10
-5.141092162984959
 20
47.42091243035607
 30
0.0
 10
-6.02402305086338
 20
47.31641067326418
 30
0.0
 10
-6.0890507342565545
 20
47.32754666037924
 30
0.0
 10
-6.155579849459517
 20
47.3595152790655
 30
0.0
 10
-6.222816754966394
 20
47.41237223976081
 30
0.0
 10
-6.2899663486648
 20
47.48615010839031
 30
0.0
 10
-6.35623267089829
 20
47.58085827340356
 30
0.0
 10
-6.4208195082000366
 20
47.69648292756851
 30
0.0
 10
-6.482930997355453
 20
47.832987064542095
 30
0.0
 10
-6.5417722294439224
 20
47.990310490218796
 30
0.0
 10
-6.596549853512199
 20
48.16836984885466
 30
0.0
 10
-6.617275015526678
 20
48.24306834027914
 30
0.0
 10
-6.6592437204448025
 20
48.38356540237819
 30
0.0
 10
-6.709628951191555
 20
48.54090524779571
 30
0.0
 10
-6.76910607515422
 20
48.71480472454672
 30
0.0
 10
-6.838342452304294
 20
48.904960698145715
 30
0.0
 10
-6.917996911801643
 20
49.111050259500225
 30
0.0
 10
-7.008719233716765
 20
49.332730945609576
 30
0.0
 10
-7.1111496361906195
 20
49.569640972997234
 30
0.0
 10
-7.225918268319262
 20
49.82139948372027
 30
0.0
 10
-7.353644711476441
 20
50.087606802644444
 30
0.0
 10
-7.494937494578581
 20
50.36784475579275
 30
0.0
 10
-7.650393519459989
 20
50.661676732598416
 30
0.0
 10
-7.820597776661636
 20
50.96864841052121
 30
0.0
 10
-8.006122662183202
 20
51.288287637845755
 30
0.0
 10
-8.207527619015636
 20
51.62010496228306
 30
0.0
 10
-8.425358656111314
 20
51.96359391906702
 30
0.0
 10
-8.66014789743356
 20
52.31823137210412
 30
0.0
 10
-8.912413139321107
 20
52.683477866323145
 30
0.0
 10
-9.182657416320865
 20
53.05877799086102
 30
0.0
 10
-9.357071170097381
 20
53.29122971198645
 30
0.0
 10
-10.556860293407185
 20
53.072920665901215
 30
0.0
 10
-11.748864162834977
 20
52.81547250551894
 30
0.0
 10
-11.821046037638267
 20
52.53396986412668
 30
0.0
 10
-11.92709805411126
 20
52.08381975301876
 30
0.0
 10
-12.020386965788195
 20
51.64983826405598
 30
0.0
 10
-12.101590062526245
 20
51.23234602698141
 30
0.0
 10
-12.171392166281677
 20
50.831643281221524
 30
0.0
 10
-12.230485091023706
 20
50.448009706386706
 30
0.0
 10
-12.279567098861069
 20
50.08170426660999
 30
0.0
 10
-12.319342353112972
 20
49.73296506693331
 30
0.0
 10
-12.350520367723561
 20
49.40200922527073
 30
0.0
 10
-12.37381545457263
 20
49.08903275616728
 30
0.0
 10
-12.389946167964991
 20
48.79421046898696
 30
0.0
 10
-12.399634747152247
 20
48.51769587972469
 30
0.0
 10
-12.403606557060646
 20
48.259621136371955
 30
0.0
 10
-12.40258952605398
 20
48.02009695841021
 30
0.0
 10
-12.397312572550721
 20
47.79921262203144
 30
0.0
 10
-12.388507210488555
 20
47.5969897075372
 30
0.0
 10
-12.37691137141044
 20
47.41361268494619
 30
0.0
 10
-12.363249902660037
 20
47.24896802596102
 30
0.0
 10
-12.348258032638928
 20
47.10310494292509
 30
0.0
 10
-12.338819710340648
 20
47.02616135750006
 30
0.0
 10
-12.321287269422019
 20
46.840693471300014
 30
0.0
 10
-12.315444411591715
 20
46.672828013612104
 30
0.0
 10
-12.320590071877085
 20
46.52294559761336
 30
0.0
 10
-12.336012661664927
 20
46.39140604348924
 30
0.0
 10
-12.360988726589209
 20
46.27854814673093
 30
0.0
 10
-12.394796297656168
 20
46.18468917494663
 30
0.0
 10
-12.436687628478422
 20
46.11012526097273
 30
0.0
 10
-12.485918655611975
 20
46.055130518327886
 30
0.0
 10
-12.541734843570953
 20
46.01995719067816
 30
0.0
 10
-13.397447710601517
 20
45.778621202467896
 30
0.0
 10
-14.29366859498884
 20
45.50675556939248
 30
0.0
 10
-15.139246931991043
 20
45.232010513026296
 30
0.0
 10
-15.205197649994037
 20
45.23024625357838
 30
0.0
 10
-15.276685195017265
 20
45.248621417712286
 30
0.0
 10
-15.352942043721114
 20
45.2873454771824
 30
0.0
 10
-15.43319472495416
 20
45.346605488895854
 30
0.0
 10
-15.516664404797217
 20
45.42656594493149
 30
0.0
 10
-15.602567475144612
 20
45.52736863690099
 30
0.0
 10
-15.69011614549088
 20
45.6491325347386
 30
0.0
 10
-15.77851903757999
 20
45.79195367998895
 30
0.0
 10
-15.866981782575873
 20
45.95590509365829
 30
0.0
 10
-15.901881669159764
 20
46.0251249959845
 30
0.0
 10
-15.97045357426827
 20
46.15473475827407
 30
0.0
 10
-16.050566148042883
 20
46.29922169178926
 30
0.0
 10
-16.142826540663968
 20
46.458176327589996
 30
0.0
 10
-16.247830150363924
 20
46.6311711603632
 30
0.0
 10
-16.366160150646216
 20
46.81776095443111
 30
0.0
 10
-16.4983870250224
 20
47.01748306132037
 30
0.0
 10
-16.64506810956645
 20
47.22985774875926
 30
0.0
 10
-16.806747143537493
 20
47.45438854089332
 30
0.0
 10
-16.983953830476278
 20
47.690562567904244
 30
0.0
 10
-17.177203424890905
 20
47.93785097280849
 30
0.0
 10
-17.386996180818244
 20
48.1957090846178
 30
0.0
 10
-17.613817214439376
 20
48.46357718447918
 30
0.0
 10
-17.858135811095153
 20
48.74088052402014
 30
0.0
 10
-18.120405176831653
 20
49.02702991372695
 30
0.0
 10
-18.40106202281803
 20
49.321422099349626
 30
0.0
 10
-18.70052618961592
 20
49.62344018447262
 30
0.0
 10
-19.019200281789036
 20
49.9324540624482
 30
0.0
 10
-19.357469312932402
 20
50.24782085730554
 30
0.0
 10
-19.573880836463847
 20
50.44177964840147
 30
0.0
 10
-20.7080263660942
 20
49.993598103004246
 30
0.0
 10
-21.826900570901234
 20
49.50854831810327
 30
0.0
 10
-21.842777050262605
 20
49.21837268583202
 30
0.0
 10
-21.858971376844757
 20
48.756182360841315
 30
0.0
 10
-21.865802179811542
 20
48.31233994067956
 30
0.0
 10
-21.863996286845268
 20
47.887027761582864
 30
0.0
 10
-21.854283935046734
 20
47.480406691825365
 30
0.0
 10
-21.83739820815897
 20
47.09261607084211
 30
0.0
 10
-21.81407447277619
 20
46.723773662663284
 30
0.0
 10
-21.785049813906184
 20
46.373975621760515
 30
0.0
 10
-21.751062469985374
 20
46.04329647488419
 30
0.0
 10
-21.712851268131793
 20
45.731789114880165
 30
0.0
 10
-21.67115505944588
 20
45.439484809208835
 30
0.0
 10
-21.626712155039428
 20
45.16639322221013
 30
0.0
 10
-21.580259762949233
 20
44.91250245101191
 30
0.0
 10
-21.532533424898975
 20
44.67777907587294
 30
0.0
 10
-21.484265470265154
 20
44.46216845263922
 30
0.0
 10
-21.43617756725824
 20
44.2655490356632
 30
0.0
 10
-21.38902945658886
 20
44.08795778712157
 30
0.0
 10
-21.343509909590125
 20
43.92914194942964
 30
0.0
 10
-21.30034962830796
 20
43.78900635338381
 30
0.0
 10
-21.276081711868457
 20
43.71538254271395
 30
0.0
 10
-21.22270316224351
 20
43.53689877948599
 30
0.0
 10
-21.184223647092338
 20
43.37339869451314
 30
0.0
 10
-21.160029826156435
 20
43.225392358588245
 30
0.0
 10
-21.149493981234116
 20
43.09337150210446
 30
0.0
 10
-21.151972654653605
 20
42.97780954963787
 30
0.0
 10
-21.166819645692765
 20
42.87915852175202
 30
0.0
 10
-21.193359348351784
 20
42.79785473925737
 30
0.0
 10
-21.230915473051724
 20
42.73431220823507
 30
0.0
 10
-21.27879719279255
 20
42.688925528130795
 30
0.0
 10
-22.070985461373752
 20
42.28528544448026
 30
0.0
 10
-22.896947358869003
 20
41.843799612379684
 30
0.0
 10
-23.672678043709787
 20
41.40936955517655
 30
0.0
 10
-23.737017347215332
 20
41.394772848666825
 30
0.0
 10
-23.810716095794263
 20
41.398848410995626
 30
0.0
 10
-23.89306237976473
 20
41.4219514253518
 30
0.0
 10
-23.983334082998848
 20
41.46441625113247
 30
0.0
 10
-24.08079942746544
 20
41.526556162707394
 30
0.0
 10
-24.184717524040032
 20
41.60866310155984
 30
0.0
 10
-24.2943389292736
 20
41.71100744195356
 30
0.0
 10
-24.40890620779728
 20
41.833837770260615
 30
0.0
 10
-24.527654500041056
 20
41.977380678081126
 30
0.0
 10
-24.575387928125025
 20
42.038461909281644
 30
0.0
 10
-24.667927853566162
 20
42.15220354128294
 30
0.0
 10
-24.77468908908612
 20
42.27828501107001
 30
0.0
 10
-24.89618723521743
 20
42.41618626840945
 30
0.0
 10
-25.032922847633202
 20
42.565371865950006
 30
0.0
 10
-25.185381033149813
 20
42.72529135158603
 30
0.0
 10
-25.354031055358465
 20
42.895379670692904
 30
0.0
 10
-25.539325950153376
 20
43.07505757804583
 30
0.0
 10
-25.741702151361963
 20
43.26373205916753
 30
0.0
 10
-25.96157912848195
 20
43.4607967588551
 30
0.0
 10
-26.199359060671338
 20
43.665632460795734
 30
0.0
 10
-26.455426329687448
 20
43.87760736498037
 30
0.0
 10
-26.730147534608705
 20
44.09607786592481
 30
0.0
 10
-27.023870815744658
 20
44.32038870585714
 30
0.0
 10
-27.33692572574233
 20
44.54987360026145
 30
0.0
 10
-27.66962289542233
 20
44.78385568812639
 30
0.0
 10
-28.022253747707254
 20
45.0216480196977
 30
0.0
 10
-28.39509022351822
 20
45.26255405139622
 30
0.0
 10
-28.788384519641802
 20
45.505868147506405
 30
0.0
 10
-29.038477239443846
 20
45.65388028100434
 30
0.0
 10
-30.063394598727168
 20
44.99304960174163
 30
0.0
 10
-31.066141430694604
 20
44.29903838353667
 30
0.0
 10
-31.025102390415825
 20
44.01134104720224
 30
0.0
 10
-30.950816688218463
 20
43.55487222331881
 30
0.0
 10
-30.87092687854785
 20
43.1182254872552
 30
0.0
 10
-30.786181395331187
 20
42.70143787466126
 30
0.0
 10
-30.697327828211552
 20
42.3045247005812
 30
0.0
 10
-30.605112358708666
 20
41.92747960953841
 30
0.0
 10
-30.510279198176406
 20
41.570274639854574
 30
0.0
 10
-30.413570027547646
 20
41.23286030026861
 30
0.0
 10
-30.315723439661994
 20
40.915165662346
 30
0.0
 10
-30.217474384163907
 20
40.61709846459102
 30
0.0
 10
-30.119553615316022
 20
40.33854523096947
 30
0.0
 10
-30.022687143208334
 20
40.07937140277118
 30
0.0
 10
-29.927595688496766
 20
39.839421483681036
 30
0.0
 10
-29.834994139808952
 20
39.61851919903704
 30
0.0
 10
-29.745590094472163
 20
39.41646808428341
 30
0.0
 10
-29.66006764166505
 20
39.23300813875456
 30
0.0
 10
-29.579179134856467
 20
39.06802739634944
 30
0.0
 10
-29.503550800272905
 20
38.921143583528305
 30
0.0
 10
-29.433880733134792
 20
38.79212080683966
 30
0.0
 10
-29.395715824973237
 20
38.72464609268031
 30
0.0
 10
-29.308542474369016
 20
38.56000548335044
 30
0.0
 10
-29.238905048084682
 20
38.40715398766626
 30
0.0
 10
-29.186301500898015
 20
38.26671153230189
 30
0.0
 10
-29.150212107877334
 20
38.139282860934976
 30
0.0
 10
-29.130098135762577
 20
38.0254578337855
 30
0.0
 10
-29.12541398523458
 20
37.92580585347561
 30
0.0
 10
-29.135582153840815
 20
37.840886661225795
 30
0.0
 10
-29.160020115296646
 20
37.77123824565817
 30
0.0
 10
-29.19812729918205
 20
37.7173823977626
 30
0.0
 10
-29.896347618416627
 20
37.16694988072252
 30
0.0
 10
-30.62030927650383
 20
36.5728099025363
 30
0.0
 10
-31.296381413999537
 20
35.99538974796336
 30
0.0
 10
-31.356636779655815
 20
35.96852153763706
 30
0.0
 10
-31.42971453021329
 20
35.95814087658607
 30
0.0
 10
-31.514985727937727
 20
35.96473500994292
 30
0.0
 10
-31.611807362242587
 20
35.9887727503506
 30
0.0
 10
-31.71952283280405
 20
36.03070411551144
 30
0.0
 10
-31.837462441432415
 20
36.090959977632856
 30
0.0
 10
-31.96494389242656
 20
36.169951724976706
 30
0.0
 10
-32.101272801121205
 20
36.26807093570768
 30
0.0
 10
-32.24574321033676
 20
36.3856890642316
 30
0.0
 10
-32.30447581104875
 20
36.43628430684614
 30
0.0
 10
-32.41742749938481
 20
36.529786781428385
 30
0.0
 10
-32.54673462224147
 20
36.63261754731072
 30
0.0
 10
-32.69280141626412
 20
36.74416595820522
 30
0.0
 10
-32.856014358492786
 20
36.8638092016639
 30
0.0
 10
-33.03674184667385
 20
36.99091276271894
 30
0.0
 10
-33.23533389094152
 20
37.124830895326774
 30
0.0
 10
-33.45212181709489
 20
37.2649071013787
 30
0.0
 10
-33.68741798162246
 20
37.41047461698839
 30
0.0
 10
-33.94151550000136
 20
37.56085690345877
 30
0.0
 10
-34.21468802051999
 20
37.71536818128341
 30
0.0
 10
-34.507189281080755
 20
37.87331380115244
 30
0.0
 10
-34.819253275462444
 20
38.03399100434832
 30
0.0
 10
-35.15109362010643
 20
38.19668920488839
 30
0.0
 10
-35.502903549737276
 20
38.360690628194845
 30
0.0
 10
-35.87485567745881
 20
38.52527081788408
 30
0.0
 10
-36.26710180933513
 20
38.689699169956896
 30
0.0
 10
-36.67977277210763
 20
38.85323947168184
 30
0.0
 10
-37.112978253973395
 20
39.015150444783465
 30
0.0
 10
-37.38714124707765
 20
39.111527897399256
 30
0.0
 10
-38.263443436677015
 20
38.263443436676994
 30
0.0
 10
-39.11152789739923
 20
37.38714124707767
 30
0.0
 10
-39.015150444783266
 20
37.11297825397286
 30
0.0
 10
-38.85323947168194
 20
36.6797727721079
 30
0.0
 10
-38.68969916995684
 20
36.267101809335045
 30
0.0
 10
-38.52527081788399
 20
35.87485567745865
 30
0.0
 10
-38.360690628198014
 20
35.50290354974445
 30
0.0
 10
-38.19668920485797
 20
35.15109362004157
 30
0.0
 10
-38.03399100435243
 20
34.81925327551483
 30
0.0
 10
-37.87331380115705
 20
34.507189281091826
 30
0.0
 10
-37.71536815880601
 20
34.21468797889308
 30
0.0
 10
-37.560856905767494
 20
33.941515498638864
 30
0.0
 10
-37.410474616989866
 20
33.687417981620726
 30
0.0
 10
-37.26490710138069
 20
33.45212181709414
 30
0.0
 10
-37.124830895324415
 20
33.23533389093724
 30
0.0
 10
-36.99091276158357
 20
33.03674184770367
 30
0.0
 10
-36.863808372867744
 20
32.85601495245855
 30
0.0
 10
-36.74413795016026
 20
32.692764741198026
 30
0.0
 10
-36.63261754716633
 20
32.54673462233777
 30
0.0
 10
-36.529786779483125
 20
32.417427496940746
 30
0.0
 10
-36.436284308097754
 20
32.30447581256063
 30
0.0
 10
-36.38568906423167
 20
32.24574321033668
 30
0.0
 10
-36.268070935624536
 20
32.10127280118992
 30
0.0
 10
-36.16995172544602
 20
31.964943892053455
 30
0.0
 10
-36.09095997682657
 20
31.837462442048228
 30
0.0
 10
-36.03070393084213
 20
31.719522968175987
 30
0.0
 10
-35.988770281861456
 20
31.611809098303183
 30
0.0
 10
-35.964734999044204
 20
31.514985735287077
 30
0.0
 10
-35.958140876580494
 20
31.42971453021702
 30
0.0
 10
-35.96852153763842
 20
31.356636779655048
 30
0.0
 10
-35.99538974796246
 20
31.29638141400011
 30
0.0
 10
-36.57280990254867
 20
30.620309276514227
 30
0.0
 10
-37.16694988070991
 20
29.896347618406526
 30
0.0
 10
-37.717382397762215
 20
29.198127299183053
 30
0.0
 10
-37.77123824565865
 20
29.160020115295154
 30
0.0
 10
-37.84088666122323
 20
29.135582153847018
 30
0.0
 10
-37.92580584839371
 20
29.125413997357676
 30
0.0
 10
-38.02545661266117
 20
29.130100895509013
 30
0.0
 10
-38.139282764191364
 20
29.150212315408023
 30
0.0
 10
-38.266711531855215
 20
29.186301501808952
 30
0.0
 10
-38.40715398794064
 20
29.238905047551604
 30
0.0
 10
-38.560005483299264
 20
29.308542474463966
 30
0.0
 10
-38.72464609268038
 20
29.39571582497315
 30
0.0
 10
-38.79212080511266
 20
29.433880732202173
 30
0.0
 10
-38.92114358630491
 20
29.503550801703973
 30
0.0
 10
-39.068027396283156
 20
29.579179135016872
 30
0.0
 10
-39.233049573218054
 20
29.660087956592825
 30
0.0
 10
-39.416467663420654
 20
29.7455910232202
 30
0.0
 10
-39.61851919824851
 20
29.834994141123413
 30
0.0
 10
-39.83942148368569
 20
29.927595688498247
 30
0.0
 10
-40.07937140277153
 20
30.022687143206227
 30
0.0
 10
-40.33854523097088
 20
30.119553615314246
 30
0.0
 10
-40.61709846547692
 20
30.217474381633735
 30
0.0
 10
-40.91516570755818
 20
30.315723453586504
 30
0.0
 10
-41.23286030025686
 20
30.41357002754528
 30
0.0
 10
-41.570274639802385
 20
30.510279198182598
 30
0.0
 10
-41.92747960960795
 20
30.605112358725854
 30
0.0
 10
-42.304524700573545
 20
30.69732782820985
 30
0.0
 10
-42.70143787466144
 20
30.786181395331237
 30
0.0
 10
-43.1182254872553
 20
30.870926878547888
 30
0.0
 10
-43.55487222331853
 20
30.950816688218424
 30
0.0
 10
-44.0113410472028
 20
31.02510239041592
 30
0.0
 10
-44.299038383536654
 20
31.066141430694625
 30
0.0
 10
-44.993049601741646
 20
30.06339459872716
 30
0.0
 10
-45.65388028100434
 20
29.038477239443857
 30
0.0
 10
-45.50586814750611
 20
28.788384519641305
 30
0.0
 10
-45.26255405139638
 20
28.395090223518444
 30
0.0
 10
-45.02164801969764
 20
28.02225374770716
 30
0.0
 10
-44.78385568812629
 20
27.669622895422165
 30
0.0
 10
-44.54987360026596
 20
27.336925725748735
 30
0.0
 10
-44.32038870581466
 20
27.023870815686962
 30
0.0
 10
-44.09607786593907
 20
26.730147534659267
 30
0.0
 10
-43.877607364987064
 20
26.45542632969739
 30
0.0
 10
-43.66563243062923
 20
26.199359024229388
 30
0.0
 10
-43.46079676085366
 20
25.96157912669521
 30
0.0
 10
-43.263732059168646
 20
25.741702151359966
 30
0.0
 10
-43.07505757804765
 20
25.539325950152232
 30
0.0
 10
-42.89537967068977
 20
25.354031055354717
 30
0.0
 10
-42.7252913506734
 20
25.18538103438133
 30
0.0
 10
-42.56537116895592
 20
25.03292359187617
 30
0.0
 10
-42.41615164358077
 20
24.896156728950942
 30
0.0
 10
-42.27828501094719
 20
24.774689089208724
 30
0.0
 10
-42.15220353889825
 20
24.667927851548548
 30
0.0
 10
-42.03846191080417
 20
24.575387929363657
 30
0.0
 10
-41.97738067808118
 20
24.527654500040946
 30
0.0
 10
-41.83383777019249
 20
24.408906207880882
 30
0.0
 10
-41.71100744234107
 20
24.294338928816092
 30
0.0
 10
-41.6086631008892
 20
24.18471752480129
 30
0.0
 10
-41.52655600799622
 20
24.080799596263425
 30
0.0
 10
-41.46441416876328
 20
23.983336267279856
 30
0.0
 10
-41.4219514160963
 20
23.893062389099093
 30
0.0
 10
-41.398848410990894
 20
23.81071609579899
 30
0.0
 10
-41.39477284866802
 20
23.737017347214298
 30
0.0
 10
-41.409369555175786
 20
23.67267804371051
 30
0.0
 10
-41.843799612393845
 20
22.896947358876776
 30
0.0
 10
-42.28528544446593
 20
22.070985461366295
 30
0.0
 10
-42.688925528130625
 20
21.278797192793586
 30
0.0
 10
-42.73431220823525
 20
21.230915473050146
 30
0.0
 10
-42.79785473925607
 20
21.19335934835835
 30
0.0
 10
-42.879158519132865
 20
21.166819658574326
 30
0.0
 10
-42.97780889037693
 20
21.151975599601816
 30
0.0
 10
-43.09337144770699
 20
21.149494203650892
 30
0.0
 10
-43.22539235832787
 20
21.160029827136995
 30
0.0
 10
-43.373398694678265
 20
21.18422364651596
 30
0.0
 10
-43.53689877945433
 20
21.2227031623466
 30
0.0
 10
-43.715382542714
 20
21.276081711868343
 30
0.0
 10
-43.78900635150805
 20
21.30034962773017
 30
0.0
 10
-43.92914195243208
 20
21.343509910451992
 30
0.0
 10
-44.08795778708786
 20
21.3890294567591
 30
0.0
 10
-44.2655936372209
 20
21.436189408377533
 30
0.0
 10
-44.462168221052984
 20
21.484266463273798
 30
0.0
 10
-44.67777907535601
 20
21.532533426342
 30
0.0
 10
-44.91250245101677
 20
21.58025976294976
 30
0.0
 10
-45.16639322221007
 20
21.62671215503728
 30
0.0
 10
-45.43948480920987
 20
21.671155059443844
 30
0.0
 10
-45.73178911525545
 20
21.712851265477383
 30
0.0
 10
-46.04329652194418
 20
21.751062474821847
 30
0.0
 10
-46.373975621748535
 20
21.785049813906138
 30
0.0
 10
-46.72377366261331
 20
21.814074472792427
 30
0.0
 10
-47.092616070913685
 20
21.83739820816224
 30
0.0
 10
-47.480406691817535
 20
21.854283935046535
 30
0.0
 10
-47.88702776158306
 20
21.863996286845268
 30
0.0
 10
-48.31233994067967
 20
21.865802179811542
 30
0.0
 10
-48.75618236084104
 20
21.858971376844757
 30
0.0
 10
-49.218372685832605
 20
21.842777050262573
 30
0.0
 10
-49.50854831810327
 20
21.826900570901245
 30
0.0
 10
-49.99359810300424
 20
20.70802636609418
 30
0.0
 10
-50.44177964840146
 20
19.57388083646387
 30
0.0
 10
-50.24782085730516
 20
19.357469312931983
 30
0.0
 10
-49.93245406244839
 20
19.019200281789246
 30
0.0
 10
-49.623440184472535
 20
18.700526189615857
 30
0.0
 10
-49.32142209934948
 20
18.40106202281791
 30
0.0
 10
-49.02702991373261
 20
18.120405176837068
 30
0.0
 10
-48.740880523967206
 20
17.858135811046868
 30
0.0
 10
-48.46357718450302
 20
17.6138172144862
 30
0.0
 10
-48.1957090846263
 20
17.3869961808267
 30
0.0
 10
-47.93785093611214
 20
17.177203395034386
 30
0.0
 10
-47.69056256951582
 20
16.98395382833398
 30
0.0
 10
-47.45438854089402
 20
16.806747143535333
 30
0.0
 10
-47.229857748760814
 20
16.64506810956498
 30
0.0
 10
-47.017483061316554
 20
16.49838702501935
 30
0.0
 10
-46.81776095377626
 20
16.36616015203213
 30
0.0
 10
-46.63117062195626
 20
16.247831016283293
 30
0.0
 10
-46.458136416590335
 20
16.14280337553583
 30
0.0
 10
-46.299221691692715
 20
16.050566148187105
 30
0.0
 10
-46.15473475554158
 20
15.970453572754668
 30
0.0
 10
-46.025124997719416
 20
15.901881670077582
 30
0.0
 10
-45.95590509365832
 20
15.866981782575767
 30
0.0
 10
-45.79195367993844
 20
15.778519037675288
 30
0.0
 10
-45.6491325350294
 20
15.690116144966574
 30
0.0
 10
-45.527368636391735
 20
15.602567476022095
 30
0.0
 10
-45.4265658261239
 20
15.51666460053446
 30
0.0
 10
-45.34660387267088
 20
15.433197273514907
 30
0.0
 10
-45.28734546992577
 20
15.35294205468179
 30
0.0
 10
-45.248621417708556
 20
15.27668519502284
 30
0.0
 10
-45.230246253579345
 20
15.205197649992801
 30
0.0
 10
-45.232010513025685
 20
15.139246931991913
 30
0.0
 10
-45.50675556940788
 20
14.293668594993715
 30
0.0
 10
-45.778621202452385
 20
13.397447710597014
 30
0.0
 10
-46.01995719067819
 20
12.541734843572016
 30
0.0
 10
-46.05513051832776
 20
12.485918655610405
 30
0.0
 10
-46.11012526097273
 20
12.43668762848513
 30
0.0
 10
-46.18468917489086
 20
12.394796310801201
 30
0.0
 10
-46.278548074668386
 20
12.36099174356651
 30
0.0
 10
-46.39140603352835
 20
12.33601289042046
 30
0.0
 10
-46.52294559754928
 20
12.32059007288961
 30
0.0
 10
-46.6728280136616
 20
12.31544441099421
 30
0.0
 10
-46.840693471289065
 20
12.321287269529321
 30
0.0
 10
-47.02616135750008
 20
12.338819710340541
 30
0.0
 10
-47.103104940972656
 20
12.348258032438197
 30
0.0
 10
-47.248968029073914
 20
12.363249902919609
 30
0.0
 10
-47.41361268494634
 20
12.376911371584
 30
0.0
 10
-47.59703576217624
 20
12.388510122751823
 30
0.0
 10
-47.79921258862143
 20
12.397313591659229
 30
0.0
 10
-48.020096958184716
 20
12.402589527570138
 30
0.0
 10
-48.259621136376815
 20
12.403606557060229
 30
0.0
 10
-48.5176958797242
 20
12.399634747150161
 30
0.0
 10
-48.79421046898757
 20
12.389946167962805
 30
0.0
 10
-49.08903275601749
 20
12.373815451896029
 30
0.0
 10
-49.402009272370016
 20
12.35052036328617
 30
0.0
 10
-49.732965066921544
 20
12.319342353115282
 30
0.0
 10
-50.081704266564145
 20
12.279567098886758
 30
0.0
 10
-50.44800970645754
 20
12.230485091012966
 30
0.0
 10
-50.83164328121381
 20
12.171392166283027
 30
0.0
 10
-51.23234602698159
 20
12.10159006252622
 30
0.0
 10
-51.649838264056086
 20
12.020386965788191
 30
0.0
 10
-52.083819753018474
 20
11.92709805411133
 30
0.0
 10
-52.53396986412724
 20
11.82104603763814
 30
0.0
 10
-52.81547250551893
 20
11.748864162835009
 30
0.0
 10
-53.072920665901215
 20
10.556860293407192
 30
0.0
 10
-53.291229711986446
 20
9.35707117009743
 30
0.0
 10
-53.05877799086055
 20
9.182657416320554
 30
0.0
 10
-52.68347786632337
 20
8.912413139321295
 30
0.0
 10
-52.31823137210403
 20
8.660147897433538
 30
0.0
 10
-51.96359391906687
 20
8.42535865611124
 30
0.0
 10
-51.62010496228967
 20
8.20752761901986
 30
0.0
 10
-51.28828763778442
 20
8.006122662146193
 30
0.0
 10
-50.96864841055373
 20
7.820597776702932
 30
0.0
 10
-50.6616767326084
 20
7.650393519466644
 30
0.0
 10
-50.3678447139768
 20
7.494937472454866
 30
0.0
 10
-50.08760680380711
 20
7.353644709060924
 30
0.0
 10
-49.82139948372054
 20
7.225918268317026
 30
0.0
 10
-49.569640972998485
 20
7.111149636188899
 30
0.0
 10
-49.332730945605235
 20
7.008719233714536
 30
0.0
 10
-49.11105025912834
 20
6.9179969132886985
 30
0.0
 10
-48.9049603390166
 20
6.838343406623262
 30
0.0
 10
-48.714761061133416
 20
6.7690911413873165
 30
0.0
 10
-48.54090524772916
 20
6.7096289513518625
 30
0.0
 10
-48.38356539940291
 20
6.659243719493382
 30
0.0
 10
-48.24306834215977
 20
6.617275016088413
 30
0.0
 10
-48.168369848854674
 20
6.596549853512108
 30
0.0
 10
-47.990310490187845
 20
6.541772229547263
 30
0.0
 10
-47.832987064725025
 20
6.482930996784509
 30
0.0
 10
-47.69648292724023
 20
6.420819509160029
 30
0.0
 10
-47.58085819506526
 20
6.356232886052727
 30
0.0
 10
-47.486149020420186
 20
6.289969163565535
 30
0.0
 10
-47.41237223478195
 20
6.222816767132179
 30
0.0
 10
-47.35951527906293
 20
6.155579849465731
 30
0.0
 10
-47.32754666037996
 20
6.089050734255172
 30
0.0
 10
-47.316410673263746
 20
6.024023050864372
 30
0.0
 10
-47.42091243037213
 20
5.141092162986753
 30
0.0
 10
-47.512710220575144
 20
4.209053557684734
 30
0.0
 10
-47.582467706677335
 20
3.3227006577979163
 30
0.0
 10
-47.606075990615686
 20
3.261094986419414
 30
0.0
 10
-47.650409527766385
 20
3.2020809776240102
 30
0.0
 10
-47.715368126329906
 20
3.1464478918858445
 30
0.0
 10
-47.80082860975911
 20
3.094981906949983
 30
0.0
 10
-47.90664490208146
 20
3.0484655199269097
 30
0.0
 10
-48.03264812782536
 20
3.007676951607601
 30
0.0
 10
-48.17864672650343
 20
2.9733895533387567
 30
0.0
 10
-48.344426581585715
 20
2.9463712168015426
 30
0.0
 10
-48.52975116389257
 20
2.9273837870341706
 30
0.0
 10
-48.607057623281264
 20
2.9216298059425188
 30
0.0
 10
-48.753042761884984
 20
2.907877135008458
 30
0.0
 10
-48.91718903718266
 20
2.8891555234507966
 30
0.0
 10
-49.09935049551633
 20
2.8647473406652852
 30
0.0
 10
-49.29936002251642
 20
2.8339389112107662
 30
0.0
 10
-49.51702944489104
 20
2.7960210687061053
 30
0.0
 10
-49.752149645773244
 20
2.7502897072055776
 30
0.0
 10
-50.00449069361786
 20
2.6960463297253527
 30
0.0
 10
-50.27380198455058
 20
2.632598593608824
 30
0.0
 10
-50.55981239741252
 20
2.5592608498139695
 30
0.0
 10
-50.86223051142467
 20
2.4753546804410305
 30
0.0
 10
-51.180744555140905
 20
2.3802094744609983
 30
0.0
 10
-51.51502306169425
 20
2.273162847831446
 30
0.0
 10
-51.86471462055203
 20
2.1535612907511315
 30
0.0
 10
-52.229448326027004
 20
2.020760622364636
 30
0.0
 10
-52.60883396599389
 20
1.8741265187541953
 30
0.0
 10
-53.00246226850784
 20
1.7130350217802783
 30
0.0
 10
-53.40990516103006
 20
1.5368730419520655
 30
0.0
 10
-53.8307160419332
 20
1.3450388551062744
 30
0.0
 10
-54.09272770380573
 20
1.2193254938299583
 30
0.0
 10
-54.11268065124441
 20
-5.329070518200751e-15
 30
0.0
 10
-54.09272770380573
 20
-1.2193254938299187
 30
0.0
 10
-53.83071604193268
 20
-1.3450388551064982
 30
0.0
 10
-53.409905161030316
 20
-1.5368730419519334
 30
0.0
 10
-53.00246226850774
 20
-1.7130350217802928
 30
0.0
 10
-52.60883396599371
 20
-1.8741265187542453
 30
0.0
 10
-52.22944832603431
 20
-2.0207606223617933
 30
0.0
 10
-51.86471462048465
 20
-2.153561290775473
 30
0.0
 10
-51.515023061734205
 20
-2.2731628477972965
 30
0.0
 10
-51.180744555151996
 20
-2.380209474456426
 30
0.0
 10
-50.86223046609607
 20
-2.475354693981764
 30
0.0
 10
-50.559812398081604
 20
-2.5592608524099063
 30
0.0
 10
-50.2738019845504
 20
-2.6325985936110765
 30
0.0
 10
-50.00449069361874
 20
-2.6960463297272916
 30
0.0
 10
-49.752149645768554
 20
-2.7502897072069254
 30
0.0
 10
-49.5170294448164
 20
-2.7960210671750794
 30
0.0
 10
-49.29935985646625
 20
-2.8339379051661613
 30
0.0
 10
-49.099304757649875
 20
-2.864753469174693
 30
0.0
 10
-48.91718903714865
 20
-2.8891555232805928
 30
0.0
 10
-48.75304275878126
 20
-2.907877135361158
 30
0.0
 10
-48.60705762523535
 20
-2.921629805758478
 30
0.0
 10
-48.52975116389256
 20
-2.9273837870342723
 30
0.0
 10
-48.34442658157551
 20
-2.946371216694158
 30
0.0
 10
-48.17864672657146
 20
-2.9733895539344255
 30
0.0
 10
-48.03264812769067
 20
-3.007676950602021
 30
0.0
 10
-47.90664486722296
 20
-3.04846529362357
 30
0.0
 10
-47.800828091853916
 20
-3.0949789338843434
 30
0.0
 10
-47.71536812382013
 20
-3.146447878982502
 30
0.0
 10
-47.65040952776507
 20
-3.202080977617423
 30
0.0
 10
-47.60607599061611
 20
-3.261094986420918
 30
0.0
 10
-47.5824677066771
 20
-3.322700657796867
 30
0.0
 10
-47.51271022059124
 20
-4.209053557686115
 30
0.0
 10
-47.42091243035607
 20
-5.141092162984968
 30
0.0
 10
-47.31641067326418
 20
-6.024023050863389
 30
0.0
 10
-47.32754666037924
 20
-6.089050734256563
 30
0.0
 10
-47.3595152790655
 20
-6.155579849459526
 30
0.0
 10
-47.41237223976081
 20
-6.222816754966403
 30
0.0
 10
-47.48615010839031
 20
-6.289966348664807
 30
0.0
 10
-47.58085827340356
 20
-6.356232670898297
 30
0.0
 10
-47.69648292756851
 20
-6.420819508200045
 30
0.0
 10
-47.832987064542095
 20
-6.48293099735546
 30
0.0
 10
-47.990310490218796
 20
-6.5417722294439296
 30
0.0
 10
-48.16836984885466
 20
-6.596549853512208
 30
0.0
 10
-48.24306834027914
 20
-6.617275015526685
 30
0.0
 10
-48.38356540237819
 20
-6.659243720444811
 30
0.0
 10
-48.54090524779571
 20
-6.709628951191562
 30
0.0
 10
-48.71480472454672
 20
-6.7691060751542285
 30
0.0
 10
-48.904960698145715
 20
-6.8383424523043015
 30
0.0
 10
-49.111050259500225
 20
-6.9179969118016515
 30
0.0
 10
-49.332730945609576
 20
-7.008719233716774
 30
0.0
 10
-49.569640972997234
 20
-7.111149636190628
 30
0.0
 10
-49.82139948372027
 20
-7.225918268319271
 30
0.0
 10
-50.087606802644444
 20
-7.35364471147645
 30
0.0
 10
-50.36784475579275
 20
-7.49493749457859
 30
0.0
 10
-50.661676732598416
 20
-7.650393519459998
 30
0.0
 10
-50.96864841052121
 20
-7.820597776661645
 30
0.0
 10
-51.288287637845755
 20
-8.006122662183211
 30
0.0
 10
-51.62010496228306
 20
-8.207527619015645
 30
0.0
 10
-51.96359391906702
 20
-8.425358656111323
 30
0.0
 10
-52.31823137210412
 20
-8.660147897433571
 30
0.0
 10
-52.683477866323145
 20
-8.912413139321114
 30
0.0
 10
-53.05877799086102
 20
-9.182657416320874
 30
0.0
 10
-53.29122971198645
 20
-9.357071170097392
 30
0.0
 10
-53.072920665901215
 20
-10.556860293407182
 30
0.0
 10
-52.81547250551894
 20
-11.748864162834977
 30
0.0
 10
-52.53396986412668
 20
-11.821046037638263
 30
0.0
 10
-52.08381975301876
 20
-11.92709805411126
 30
0.0
 10
-51.64983826405598
 20
-12.020386965788195
 30
0.0
 10
-51.23234602698141
 20
-12.101590062526242
 30
0.0
 10
-50.831643281221524
 20
-12.171392166281674
 30
0.0
 10
-50.448009706386706
 20
-12.230485091023702
 30
0.0
 10
-50.08170426660998
 20
-12.279567098861065
 30
0.0
 10
-49.73296506693331
 20
-12.319342353112969
 30
0.0
 10
-49.40200922527073
 20
-12.350520367723561
 30
0.0
 10
-49.08903275616728
 20
-12.373815454572627
 30
0.0
 10
-48.79421046898696
 20
-12.389946167964988
 30
0.0
 10
-48.51769587972469
 20
-12.399634747152243
 30
0.0
 10
-48.259621136371955
 20
-12.403606557060643
 30
0.0
 10
-48.02009695841021
 20
-12.402589526053976
 30
0.0
 10
-47.79921262203144
 20
-12.397312572550717
 30
0.0
 10
-47.5969897075372
 20
-12.388507210488552
 30
0.0
 10
-47.41361268494619
 20
-12.376911371410436
 30
0.0
 10
-47.24896802596102
 20
-12.363249902660034
 30
0.0
 10
-47.10310494292509
 20
-12.348258032638924
 30
0.0
 10
-47.02616135750006
 20
-12.338819710340644
 30
0.0
 10
-46.840693471300014
 20
-12.321287269422015
 30
0.0
 10
-46.672828013612104
 20
-12.315444411591711
 30
0.0
 10
-46.52294559761336
 20
-12.320590071877081
 30
0.0
 10
-46.39140604348924
 20
-12.336012661664924
 30
0.0
 10
-46.27854814673093
 20
-12.360988726589206
 30
0.0
 10
-46.18468917494663
 20
-12.394796297656164
 30
0.0
 10
-46.11012526097273
 20
-12.436687628478419
 30
0.0
 10
-46.055130518327886
 20
-12.485918655611972
 30
0.0
 10
-46.01995719067816
 20
-12.54173484357095
 30
0.0
 10
-45.778621202467896
 20
-13.397447710601517
 30
0.0
 10
-45.50675556939248
 20
-14.293668594988837
 30
0.0
 10
-45.232010513026296
 20
-15.139246931991039
 30
0.0
 10
-45.23024625357838
 20
-15.205197649994034
 30
0.0
 10
-45.248621417712286
 20
-15.276685195017262
 30
0.0
 10
-45.2873454771824
 20
-15.352942043721114
 30
0.0
 10
-45.346605488895854
 20
-15.43319472495416
 30
0.0
 10
-45.42656594493149
 20
-15.516664404797213
 30
0.0
 10
-45.52736863690099
 20
-15.602567475144609
 30
0.0
 10
-45.6491325347386
 20
-15.690116145490876
 30
0.0
 10
-45.79195367998895
 20
-15.778519037579986
 30
0.0
 10
-45.95590509365829
 20
-15.86698178257587
 30
0.0
 10
-46.0251249959845
 20
-15.90188166915976
 30
0.0
 10
-46.15473475827407
 20
-15.97045357426827
 30
0.0
 10
-46.29922169178926
 20
-16.05056614804288
 30
0.0
 10
-46.458176327589996
 20
-16.142826540663968
 30
0.0
 10
-46.6311711603632
 20
-16.247830150363924
 30
0.0
 10
-46.81776095443111
 20
-16.366160150646213
 30
0.0
 10
-47.01748306132037
 20
-16.498387025022396
 30
0.0
 10
-47.22985774875926
 20
-16.645068109566445
 30
0.0
 10
-47.45438854089332
 20
-16.80674714353749
 30
0.0
 10
-47.690562567904244
 20
-16.983953830476274
 30
0.0
 10
-47.93785097280849
 20
-17.1772034248909
 30
0.0
 10
-48.1957090846178
 20
-17.38699618081824
 30
0.0
 10
-48.46357718447918
 20
-17.613817214439372
 30
0.0
 10
-48.74088052402014
 20
-17.85813581109515
 30
0.0
 10
-49.02702991372695
 20
-18.12040517683165
 30
0.0
 10
-49.321422099349626
 20
-18.40106202281803
 30
0.0
 10
-49.62344018447262
 20
-18.700526189615918
 30
0.0
 10
-49.9324540624482
 20
-19.019200281789033
 30
0.0
 10
-50.24782085730554
 20
-19.3574693129324
 30
0.0
 10
-50.44177964840147
 20
-19.573880836463843
 30
0.0
 10
-49.993598103004246
 20
-20.7080263660942
 30
0.0
 10
-49.50854831810327
 20
-21.826900570901234
 30
0.0
 10
-49.21837268583202
 20
-21.842777050262605
 30
0.0
 10
-48.756182360841315
 20
-21.858971376844757
 30
0.0
 10
-48.31233994067956
 20
-21.865802179811542
 30
0.0
 10
-47.887027761582864
 20
-21.863996286845268
 30
0.0
 10
-47.480406691825365
 20
-21.854283935046734
 30
0.0
 10
-47.09261607084211
 20
-21.83739820815897
 30
0.0
 10
-46.723773662663284
 20
-21.81407447277619
 30
0.0
 10
-46.373975621760515
 20
-21.785049813906184
 30
0.0
 10
-46.04329647488419
 20
-21.751062469985374
 30
0.0
 10
-45.731789114880165
 20
-21.712851268131793
 30
0.0
 10
-45.439484809208835
 20
-21.67115505944588
 30
0.0
 10
-45.16639322221013
 20
-21.626712155039428
 30
0.0
 10
-44.91250245101191
 20
-21.580259762949233
 30
0.0
 10
-44.67777907587294
 20
-21.532533424898975
 30
0.0
 10
-44.46216845263922
 20
-21.484265470265154
 30
0.0
 10
-44.2655490356632
 20
-21.43617756725824
 30
0.0
 10
-44.08795778712157
 20
-21.38902945658886
 30
0.0
 10
-43.92914194942964
 20
-21.343509909590125
 30
0.0
 10
-43.78900635338381
 20
-21.30034962830796
 30
0.0
 10
-43.71538254271395
 20
-21.276081711868457
 30
0.0
 10
-43.53689877948599
 20
-21.22270316224351
 30
0.0
 10
-43.37339869451314
 20
-21.184223647092338
 30
0.0
 10
-43.225392358588245
 20
-21.160029826156435
 30
0.0
 10
-43.09337150210446
 20
-21.149493981234116
 30
0.0
 10
-42.97780954963787
 20
-21.151972654653605
 30
0.0
 10
-42.87915852175202
 20
-21.166819645692765
 30
0.0
 10
-42.79785473925737
 20
-21.193359348351784
 30
0.0
 10
-42.73431220823507
 20
-21.230915473051724
 30
0.0
 10
-42.688925528130795
 20
-21.27879719279255
 30
0.0
 10
-42.28528544448026
 20
-22.070985461373752
 30
0.0
 10
-41.843799612379684
 20
-22.896947358869003
 30
0.0
 10
-41.40936955517655
 20
-23.672678043709787
 30
0.0
 10
-41.394772848666825
 20
-23.737017347215332
 30
0.0
 10
-41.398848410995626
 20
-23.810716095794263
 30
0.0
 10
-41.4219514253518
 20
-23.89306237976473
 30
0.0
 10
-41.46441625113247
 20
-23.983334082998848
 30
0.0
 10
-41.526556162707394
 20
-24.08079942746544
 30
0.0
 10
-41.60866310155984
 20
-24.184717524040032
 30
0.0
 10
-41.71100744195356
 20
-24.2943389292736
 30
0.0
 10
-41.833837770260615
 20
-24.40890620779728
 30
0.0
 10
-41.977380678081126
 20
-24.527654500041056
 30
0.0
 10
-42.038461909281644
 20
-24.575387928125025
 30
0.0
 10
-42.15220354128294
 20
-24.667927853566162
 30
0.0
 10
-42.27828501107001
 20
-24.77468908908612
 30
0.0
 10
-42.41618626840945
 20
-24.89618723521743
 30
0.0
 10
-42.565371865950006
 20
-25.032922847633202
 30
0.0
 10
-42.72529135158603
 20
-25.185381033149813
 30
0.0
 10
-42.895379670692904
 20
-25.354031055358465
 30
0.0
 10
-43.07505757804583
 20
-25.539325950153376
 30
0.0
 10
-43.26373205916753
 20
-25.741702151361963
 30
0.0
 10
-43.4607967588551
 20
-25.96157912848195
 30
0.0
 10
-43.665632460795734
 20
-26.199359060671338
 30
0.0
 10
-43.87760736498037
 20
-26.455426329687448
 30
0.0
 10
-44.09607786592481
 20
-26.730147534608705
 30
0.0
 10
-44.32038870585714
 20
-27.023870815744658
 30
0.0
 10
-44.54987360026145
 20
-27.33692572574233
 30
0.0
 10
-44.78385568812639
 20
-27.66962289542233
 30
0.0
 10
-45.0216480196977
 20
-28.022253747707254
 30
0.0
 10
-45.26255405139622
 20
-28.39509022351822
 30
0.0
 10
-45.505868147506405
 20
-28.788384519641802
 30
0.0
 10
-45.65388028100434
 20
-29.038477239443846
 30
0.0
 10
-44.99304960174163
 20
-30.063394598727168
 30
0.0
 10
-44.29903838353667
 20
-31.066141430694604
 30
0.0
 10
-44.01134104720224
 20
-31.025102390415825
 30
0.0
 10
-43.55487222331881
 20
-30.950816688218463
 30
0.0
 10
-43.1182254872552
 20
-30.87092687854785
 30
0.0
 10
-42.70143787466126
 20
-30.786181395331187
 30
0.0
 10
-42.3045247005812
 20
-30.697327828211552
 30
0.0
 10
-41.92747960953841
 20
-30.605112358708666
 30
0.0
 10
-41.570274639854574
 20
-30.510279198176406
 30
0.0
 10
-41.23286030026861
 20
-30.413570027547646
 30
0.0
 10
-40.915165662346
 20
-30.315723439661994
 30
0.0
 10
-40.61709846459102
 20
-30.217474384163907
 30
0.0
 10
-40.33854523096947
 20
-30.119553615316022
 30
0.0
 10
-40.07937140277118
 20
-30.022687143208334
 30
0.0
 10
-39.839421483681036
 20
-29.927595688496766
 30
0.0
 10
-39.61851919903704
 20
-29.834994139808952
 30
0.0
 10
-39.41646808428341
 20
-29.745590094472163
 30
0.0
 10
-39.23300813875456
 20
-29.66006764166505
 30
0.0
 10
-39.06802739634944
 20
-29.579179134856467
 30
0.0
 10
-38.921143583528305
 20
-29.503550800272905
 30
0.0
 10
-38.79212080683966
 20
-29.433880733134792
 30
0.0
 10
-38.72464609268031
 20
-29.395715824973237
 30
0.0
 10
-38.56000548335044
 20
-29.308542474369016
 30
0.0
 10
-38.40715398766626
 20
-29.238905048084682
 30
0.0
 10
-38.26671153230189
 20
-29.186301500898015
 30
0.0
 10
-38.139282860934976
 20
-29.150212107877334
 30
0.0
 10
-38.0254578337855
 20
-29.130098135762577
 30
0.0
 10
-37.92580585347561
 20
-29.12541398523458
 30
0.0
 10
-37.840886661225795
 20
-29.135582153840815
 30
0.0
 10
-37.77123824565817
 20
-29.160020115296646
 30
0.0
 10
-37.7173823977626
 20
-29.19812729918205
 30
0.0
 10
-37.16694988072252
 20
-29.896347618416627
 30
0.0
 10
-36.5728099025363
 20
-30.62030927650383
 30
0.0
 10
-35.99538974796336
 20
-31.296381413999537
 30
0.0
 10
-35.96852153763706
 20
-31.356636779655815
 30
0.0
 10
-35.95814087658607
 20
-31.42971453021329
 30
0.0
 10
-35.96473500994292
 20
-31.514985727937727
 30
0.0
 10
-35.9887727503506
 20
-31.611807362242587
 30
0.0
 10
-36.03070411551144
 20
-31.71952283280405
 30
0.0
 10
-36.090959977632856
 20
-31.837462441432415
 30
0.0
 10
-36.169951724976706
 20
-31.96494389242656
 30
0.0
 10
-36.26807093570768
 20
-32.101272801121205
 30
0.0
 10
-36.3856890642316
 20
-32.24574321033676
 30
0.0
 10
-36.43628430684614
 20
-32.30447581104875
 30
0.0
 10
-36.529786781428385
 20
-32.41742749938481
 30
0.0
 10
-36.63261754731072
 20
-32.54673462224147
 30
0.0
 10
-36.74416595820522
 20
-32.69280141626412
 30
0.0
 10
-36.8638092016639
 20
-32.856014358492786
 30
0.0
 10
-36.99091276271894
 20
-33.03674184667385
 30
0.0
 10
-37.124830895326774
 20
-33.23533389094152
 30
0.0
 10
-37.2649071013787
 20
-33.45212181709489
 30
0.0
 10
-37.41047461698839
 20
-33.68741798162246
 30
0.0
 10
-37.56085690345877
 20
-33.94151550000136
 30
0.0
 10
-37.71536818128341
 20
-34.21468802051999
 30
0.0
 10
-37.87331380115244
 20
-34.507189281080755
 30
0.0
 10
-38.03399100434832
 20
-34.819253275462444
 30
0.0
 10
-38.19668920488839
 20
-35.15109362010643
 30
0.0
 10
-38.360690628194845
 20
-35.502903549737276
 30
0.0
 10
-38.52527081788408
 20
-35.87485567745881
 30
0.0
 10
-38.689699169956896
 20
-36.26710180933513
 30
0.0
 10
-38.85323947168184
 20
-36.67977277210763
 30
0.0
 10
-39.015150444783465
 20
-37.112978253973395
 30
0.0
 10
-39.111527897399256
 20
-37.38714124707765
 30
0.0
 10
-38.263443436676994
 20
-38.263443436677015
 30
0.0
 10
-37.38714124707767
 20
-39.11152789739923
 30
0.0
 10
-37.11297825397286
 20
-39.015150444783266
 30
0.0
 10
-36.6797727721079
 20
-38.85323947168194
 30
0.0
 10
-36.267101809335045
 20
-38.68969916995684
 30
0.0
 10
-35.87485567745865
 20
-38.52527081788399
 30
0.0
 10
-35.50290354974445
 20
-38.360690628198014
 30
0.0
 10
-35.15109362004157
 20
-38.19668920485797
 30
0.0
 10
-34.81925327551483
 20
-38.03399100435243
 30
0.0
 10
-34.507189281091826
 20
-37.87331380115705
 30
0.0
 10
-34.21468797889308
 20
-37.71536815880601
 30
0.0
 10
-33.941515498638864
 20
-37.560856905767494
 30
0.0
 10
-33.687417981620726
 20
-37.410474616989866
 30
0.0
 10
-33.45212181709414
 20
-37.26490710138069
 30
0.0
 10
-33.23533389093724
 20
-37.124830895324415
 30
0.0
 10
-33.03674184770367
 20
-36.99091276158357
 30
0.0
 10
-32.85601495245855
 20
-36.863808372867744
 30
0.0
 10
-32.692764741198026
 20
-36.74413795016026
 30
0.0
 10
-32.54673462233777
 20
-36.63261754716633
 30
0.0
 10
-32.417427496940746
 20
-36.529786779483125
 30
0.0
 10
-32.30447581256063
 20
-36.436284308097754
 30
0.0
 10
-32.24574321033668
 20
-36.38568906423167
 30
0.0
 10
-32.10127280118992
 20
-36.268070935624536
 30
0.0
 10
-31.964943892053455
 20
-36.16995172544602
 30
0.0
 10
-31.837462442048228
 20
-36.09095997682657
 30
0.0
 10
-31.719522968175987
 20
-36.03070393084213
 30
0.0
 10
-31.611809098303183
 20
-35.988770281861456
 30
0.0
 10
-31.514985735287077
 20
-35.964734999044204
 30
0.0
 10
-31.42971453021702
 20
-35.958140876580494
 30
0.0
 10
-31.356636779655048
 20
-35.96852153763842
 30
0.0
 10
-31.29638141400011
 20
-35.99538974796246
 30
0.0
 10
-30.620309276514227
 20
-36.57280990254867
 30
0.0
 10
-29.896347618406526
 20
-37.16694988070991
 30
0.0
 10
-29.198127299183053
 20
-37.717382397762215
 30
0.0
 10
-29.160020115295154
 20
-37.77123824565865
 30
0.0
 10
-29.135582153847018
 20
-37.84088666122323
 30
0.0
 10
-29.125413997357676
 20
-37.92580584839371
 30
0.0
 10
-29.130100895509013
 20
-38.02545661266117
 30
0.0
 10
-29.150212315408023
 20
-38.139282764191364
 30
0.0
 10
-29.186301501808952
 20
-38.266711531855215
 30
0.0
 10
-29.238905047551604
 20
-38.40715398794064
 30
0.0
 10
-29.308542474463966
 20
-38.560005483299264
 30
0.0
 10
-29.39571582497315
 20
-38.72464609268038
 30
0.0
 10
-29.433880732202173
 20
-38.79212080511266
 30
0.0
 10
-29.503550801703973
 20
-38.92114358630491
 30
0.0
 10
-29.579179135016872
 20
-39.068027396283156
 30
0.0
 10
-29.660087956592825
 20
-39.233049573218054
 30
0.0
 10
-29.7455910232202
 20
-39.416467663420654
 30
0.0
 10
-29.834994141123413
 20
-39.61851919824851
 30
0.0
 10
-29.927595688498247
 20
-39.83942148368569
 30
0.0
 10
-30.022687143206227
 20
-40.07937140277153
 30
0.0
 10
-30.119553615314246
 20
-40.33854523097088
 30
0.0
 10
-30.217474381633735
 20
-40.61709846547692
 30
0.0
 10
-30.315723453586504
 20
-40.91516570755818
 30
0.0
 10
-30.41357002754528
 20
-41.23286030025686
 30
0.0
 10
-30.510279198182598
 20
-41.570274639802385
 30
0.0
 10
-30.605112358725854
 20
-41.92747960960795
 30
0.0
 10
-30.69732782820985
 20
-42.304524700573545
 30
0.0
 10
-30.786181395331237
 20
-42.70143787466144
 30
0.0
 10
-30.870926878547888
 20
-43.1182254872553
 30
0.0
 10
-30.950816688218424
 20
-43.55487222331853
 30
0.0
 10
-31.02510239041592
 20
-44.0113410472028
 30
0.0
 10
-31.066141430694625
 20
-44.299038383536654
 30
0.0
 10
-30.06339459872717
 20
-44.99304960174164
 30
0.0
 10
-29.038477239443868
 20
-45.65388028100433
 30
0.0
 10
-28.788384519641312
 20
-45.505868147506106
 30
0.0
 10
-28.39509022351846
 20
-45.262554051396364
 30
0.0
 10
-28.022253747707175
 20
-45.021648019697636
 30
0.0
 10
-27.669622895422176
 20
-44.78385568812628
 30
0.0
 10
-27.336925725748742
 20
-44.549873600265954
 30
0.0
 10
-27.023870815686973
 20
-44.32038870581465
 30
0.0
 10
-26.73014753465928
 20
-44.096077865939066
 30
0.0
 10
-26.455426329697396
 20
-43.87760736498706
 30
0.0
 10
-26.1993590242294
 20
-43.66563243062922
 30
0.0
 10
-25.96157912669522
 20
-43.46079676085365
 30
0.0
 10
-25.741702151359977
 20
-43.26373205916864
 30
0.0
 10
-25.539325950152243
 20
-43.07505757804765
 30
0.0
 10
-25.354031055354728
 20
-42.895379670689756
 30
0.0
 10
-25.18538103438134
 20
-42.725291350673395
 30
0.0
 10
-25.03292359187618
 20
-42.565371168955906
 30
0.0
 10
-24.896156728950952
 20
-42.41615164358076
 30
0.0
 10
-24.774689089208735
 20
-42.27828501094718
 30
0.0
 10
-24.667927851548555
 20
-42.15220353889824
 30
0.0
 10
-24.57538792936367
 20
-42.03846191080417
 30
0.0
 10
-24.527654500040956
 20
-41.97738067808118
 30
0.0
 10
-24.40890620788089
 20
-41.83383777019248
 30
0.0
 10
-24.294338928816103
 20
-41.711007442341064
 30
0.0
 10
-24.1847175248013
 20
-41.608663100889196
 30
0.0
 10
-24.080799596263432
 20
-41.526556007996206
 30
0.0
 10
-23.983336267279867
 20
-41.46441416876328
 30
0.0
 10
-23.8930623890991
 20
-41.4219514160963
 30
0.0
 10
-23.810716095799002
 20
-41.39884841099088
 30
0.0
 10
-23.737017347214305
 20
-41.39477284866801
 30
0.0
 10
-23.67267804371052
 20
-41.40936955517578
 30
0.0
 10
-22.896947358876787
 20
-41.84379961239384
 30
0.0
 10
-22.070985461366305
 20
-42.28528544446592
 30
0.0
 10
-21.278797192793597
 20
-42.68892552813062
 30
0.0
 10
-21.230915473050157
 20
-42.73431220823525
 30
0.0
 10
-21.19335934835836
 20
-42.79785473925606
 30
0.0
 10
-21.166819658574337
 20
-42.87915851913286
 30
0.0
 10
-21.151975599601826
 20
-42.97780889037692
 30
0.0
 10
-21.149494203650903
 20
-43.093371447706986
 30
0.0
 10
-21.160029827137002
 20
-43.22539235832787
 30
0.0
 10
-21.18422364651597
 20
-43.37339869467825
 30
0.0
 10
-21.222703162346612
 20
-43.536898779454326
 30
0.0
 10
-21.276081711868354
 20
-43.715382542714
 30
0.0
 10
-21.30034962773018
 20
-43.78900635150804
 30
0.0
 10
-21.343509910452003
 20
-43.929141952432076
 30
0.0
 10
-21.38902945675911
 20
-44.08795778708785
 30
0.0
 10
-21.436189408377544
 20
-44.265593637220896
 30
0.0
 10
-21.484266463273805
 20
-44.46216822105298
 30
0.0
 10
-21.53253342634201
 20
-44.677779075356
 30
0.0
 10
-21.580259762949773
 20
-44.91250245101676
 30
0.0
 10
-21.62671215503729
 20
-45.16639322221006
 30
0.0
 10
-21.671155059443855
 20
-45.439484809209866
 30
0.0
 10
-21.712851265477397
 20
-45.73178911525544
 30
0.0
 10
-21.75106247482186
 20
-46.04329652194417
 30
0.0
 10
-21.78504981390615
 20
-46.37397562174853
 30
0.0
 10
-21.814074472792438
 20
-46.723773662613304
 30
0.0
 10
-21.83739820816225
 20
-47.09261607091368
 30
0.0
 10
-21.85428393504655
 20
-47.48040669181753
 30
0.0
 10
-21.86399628684528
 20
-47.887027761583056
 30
0.0
 10
-21.865802179811553
 20
-48.312339940679664
 30
0.0
 10
-21.858971376844767
 20
-48.75618236084103
 30
0.0
 10
-21.842777050262583
 20
-49.2183726858326
 30
0.0
 10
-21.82690057090126
 20
-49.508548318103266
 30
0.0
 10
-20.708026366094213
 20
-49.99359810300423
 30
0.0
 10
-19.5738808364639
 20
-50.44177964840145
 30
0.0
 10
-19.357469312932015
 20
-50.24782085730515
 30
0.0
 10
-19.019200281789274
 20
-49.932454062448386
 30
0.0
 10
-18.70052618961589
 20
-49.62344018447253
 30
0.0
 10
-18.40106202281794
 20
-49.321422099349476
 30
0.0
 10
-18.120405176837096
 20
-49.027029913732605
 30
0.0
 10
-17.8581358110469
 20
-48.7408805239672
 30
0.0
 10
-17.613817214486232
 20
-48.463577184503016
 30
0.0
 10
-17.386996180826728
 20
-48.195709084626294
 30
0.0
 10
-17.177203395034415
 20
-47.937850936112135
 30
0.0
 10
-16.98395382833401
 20
-47.69056256951582
 30
0.0
 10
-16.80674714353536
 20
-47.454388540894016
 30
0.0
 10
-16.64506810956501
 20
-47.229857748760814
 30
0.0
 10
-16.49838702501938
 20
-47.017483061316554
 30
0.0
 10
-16.36616015203216
 20
-46.81776095377626
 30
0.0
 10
-16.24783101628332
 20
-46.63117062195626
 30
0.0
 10
-16.14280337553586
 20
-46.45813641659033
 30
0.0
 10
-16.050566148187134
 20
-46.29922169169271
 30
0.0
 10
-15.970453572754696
 20
-46.154734755541575
 30
0.0
 10
-15.90188167007761
 20
-46.02512499771941
 30
0.0
 10
-15.866981782575795
 20
-45.95590509365832
 30
0.0
 10
-15.778519037675313
 20
-45.79195367993843
 30
0.0
 10
-15.690116144966602
 20
-45.649132535029395
 30
0.0
 10
-15.602567476022124
 20
-45.527368636391735
 30
0.0
 10
-15.516664600534487
 20
-45.4265658261239
 30
0.0
 10
-15.433197273514935
 20
-45.34660387267088
 30
0.0
 10
-15.352942054681819
 20
-45.28734546992577
 30
0.0
 10
-15.276685195022868
 20
-45.24862141770855
 30
0.0
 10
-15.205197649992828
 20
-45.230246253579345
 30
0.0
 10
-15.139246931991941
 20
-45.23201051302568
 30
0.0
 10
-14.293668594993743
 20
-45.50675556940788
 30
0.0
 10
-13.39744771059704
 20
-45.778621202452385
 30
0.0
 10
-12.541734843572044
 20
-46.01995719067819
 30
0.0
 10
-12.485918655610432
 20
-46.05513051832776
 30
0.0
 10
-12.436687628485156
 20
-46.11012526097273
 30
0.0
 10
-12.394796310801226
 20
-46.18468917489086
 30
0.0
 10
-12.360991743566538
 20
-46.278548074668386
 30
0.0
 10
-12.336012890420488
 20
-46.39140603352835
 30
0.0
 10
-12.320590072889637
 20
-46.52294559754928
 30
0.0
 10
-12.315444410994239
 20
-46.6728280136616
 30
0.0
 10
-12.32128726952935
 20
-46.840693471289065
 30
0.0
 10
-12.338819710340568
 20
-47.02616135750008
 30
0.0
 10
-12.348258032438226
 20
-47.10310494097265
 30
0.0
 10
-12.363249902919637
 20
-47.248968029073914
 30
0.0
 10
-12.376911371584029
 20
-47.41361268494634
 30
0.0
 10
-12.388510122751851
 20
-47.59703576217624
 30
0.0
 10
-12.397313591659257
 20
-47.79921258862143
 30
0.0
 10
-12.402589527570166
 20
-48.020096958184716
 30
0.0
 10
-12.403606557060257
 20
-48.259621136376815
 30
0.0
 10
-12.39963474715019
 20
-48.5176958797242
 30
0.0
 10
-12.389946167962835
 20
-48.79421046898757
 30
0.0
 10
-12.373815451896059
 20
-49.08903275601749
 30
0.0
 10
-12.3505203632862
 20
-49.402009272370016
 30
0.0
 10
-12.319342353115312
 20
-49.732965066921544
 30
0.0
 10
-12.279567098886789
 20
-50.081704266564145
 30
0.0
 10
-12.230485091012996
 20
-50.44800970645754
 30
0.0
 10
-12.171392166283058
 20
-50.83164328121381
 30
0.0
 10
-12.10159006252625
 20
-51.23234602698159
 30
0.0
 10
-12.02038696578822
 20
-51.649838264056086
 30
0.0
 10
-11.927098054111362
 20
-52.083819753018474
 30
0.0
 10
-11.82104603763817
 20
-52.53396986412724
 30
0.0
 10
-11.748864162835037
 20
-52.81547250551893
 30
0.0
 10
-10.556860293407194
 20
-53.072920665901215
 30
0.0
 10
-9.357071170097434
 20
-53.291229711986446
 30
0.0
 10
-9.182657416320556
 20
-53.05877799086055
 30
0.0
 10
-8.912413139321297
 20
-52.68347786632337
 30
0.0
 10
-8.66014789743354
 20
-52.31823137210403
 30
0.0
 10
-8.425358656111241
 20
-51.96359391906687
 30
0.0
 10
-8.207527619019862
 20
-51.62010496228967
 30
0.0
 10
-8.006122662146195
 20
-51.28828763778442
 30
0.0
 10
-7.820597776702936
 20
-50.96864841055373
 30
0.0
 10
-7.650393519466647
 20
-50.6616767326084
 30
0.0
 10
-7.494937472454868
 20
-50.3678447139768
 30
0.0
 10
-7.3536447090609265
 20
-50.08760680380711
 30
0.0
 10
-7.225918268317029
 20
-49.82139948372054
 30
0.0
 10
-7.111149636188902
 20
-49.569640972998485
 30
0.0
 10
-7.0087192337145385
 20
-49.332730945605235
 30
0.0
 10
-6.917996913288701
 20
-49.11105025912834
 30
0.0
 10
-6.838343406623265
 20
-48.9049603390166
 30
0.0
 10
-6.769091141387319
 20
-48.714761061133416
 30
0.0
 10
-6.709628951351865
 20
-48.54090524772916
 30
0.0
 10
-6.659243719493385
 20
-48.38356539940291
 30
0.0
 10
-6.617275016088415
 20
-48.24306834215977
 30
0.0
 10
-6.59654985351211
 20
-48.168369848854674
 30
0.0
 10
-6.541772229547266
 20
-47.990310490187845
 30
0.0
 10
-6.4829309967845115
 20
-47.832987064725025
 30
0.0
 10
-6.420819509160031
 20
-47.69648292724023
 30
0.0
 10
-6.356232886052729
 20
-47.58085819506526
 30
0.0
 10
-6.289969163565537
 20
-47.486149020420186
 30
0.0
 10
-6.222816767132182
 20
-47.41237223478195
 30
0.0
 10
-6.155579849465734
 20
-47.35951527906293
 30
0.0
 10
-6.089050734255174
 20
-47.32754666037996
 30
0.0
 10
-6.024023050864375
 20
-47.316410673263746
 30
0.0
 10
-5.141092162986756
 20
-47.42091243037213
 30
0.0
 10
-4.2090535576847365
 20
-47.512710220575144
 30
0.0
 10
-3.3227006577979195
 20
-47.582467706677335
 30
0.0
 10
-3.261094986419417
 20
-47.606075990615686
 30
0.0
 10
-3.2020809776240133
 20
-47.650409527766385
 30
0.0
 10
-3.1464478918858476
 20
-47.715368126329906
 30
0.0
 10
-3.094981906949986
 20
-47.80082860975911
 30
0.0
 10
-3.048465519926913
 20
-47.90664490208146
 30
0.0
 10
-3.0076769516076043
 20
-48.03264812782536
 30
0.0
 10
-2.9733895533387598
 20
-48.17864672650343
 30
0.0
 10
-2.9463712168015457
 20
-48.344426581585715
 30
0.0
 10
-2.9273837870341737
 20
-48.52975116389257
 30
0.0
 10
-2.921629805942522
 20
-48.607057623281264
 30
0.0
 10
-2.907877135008461
 20
-48.753042761884984
 30
0.0
 10
-2.8891555234507997
 20
-48.91718903718266
 30
0.0
 10
-2.864747340665288
 20
-49.09935049551633
 30
0.0
 10
-2.833938911210769
 20
-49.29936002251642
 30
0.0
 10
-2.796021068706108
 20
-49.51702944489104
 30
0.0
 10
-2.7502897072055807
 20
-49.752149645773244
 30
0.0
 10
-2.696046329725356
 20
-50.00449069361786
 30
0.0
 10
-2.632598593608827
 20
-50.27380198455058
 30
0.0
 10
-2.5592608498139726
 20
-50.55981239741252
 30
0.0
 10
-2.4753546804410336
 20
-50.86223051142467
 30
0.0
 10
-2.3802094744610014
 20
-51.180744555140905
 30
0.0
 10
-2.273162847831449
 20
-51.51502306169425
 30
0.0
 10
-2.1535612907511346
 20
-51.86471462055203
 30
0.0
 10
-2.0207606223646395
 20
-52.229448326027004
 30
0.0
 10
-1.8741265187541987
 20
-52.60883396599389
 30
0.0
 10
-1.7130350217802817
 20
-53.00246226850784
 30
0.0
 10
-1.5368730419520689
 20
-53.40990516103006
 30
0.0
 10
-1.3450388551062777
 20
-53.8307160419332
 30
0.0
 10
-1.2193254938299616
 20
-54.09272770380573
 30
0.0
 10
1.7763568394002505e-15
 20
-54.11268065124441
 30
0.0
 10
1.2193254938299152
 20
-54.09272770380573
 30
0.0
 10
1.345038855106493
 20
-53.83071604193268
 30
0.0
 10
1.5368730419519299
 20
-53.409905161030316
 30
0.0
 10
1.7130350217802892
 20
-53.00246226850774
 30
0.0
 10
1.87412651875424
 20
-52.60883396599371
 30
0.0
 10
2.020760622361788
 20
-52.22944832603431
 30
0.0
 10
2.1535612907754675
 20
-51.86471462048465
 30
0.0
 10
2.273162847797293
 20
-51.515023061734205
 30
0.0
 10
2.3802094744564224
 20
-51.18074455515199
 30
0.0
 10
2.4753546939817603
 20
-50.862230466096065
 30
0.0
 10
2.5592608524099028
 20
-50.559812398081604
 30
0.0
 10
2.632598593611073
 20
-50.2738019845504
 30
0.0
 10
2.6960463297272863
 20
-50.00449069361874
 30
0.0
 10
2.750289707206922
 20
-49.752149645768554
 30
0.0
 10
2.796021067175076
 20
-49.5170294448164
 30
0.0
 10
2.8339379051661577
 20
-49.29935985646625
 30
0.0
 10
2.864753469174688
 20
-49.099304757649875
 30
0.0
 10
2.889155523280589
 20
-48.91718903714865
 30
0.0
 10
2.9078771353611543
 20
-48.75304275878126
 30
0.0
 10
2.9216298057584744
 20
-48.60705762523535
 30
0.0
 10
2.927383787034267
 20
-48.52975116389256
 30
0.0
 10
2.9463712166941542
 20
-48.34442658157551
 30
0.0
 10
2.97338955393442
 20
-48.17864672657146
 30
0.0
 10
3.0076769506020176
 20
-48.03264812769067
 30
0.0
 10
3.0484652936235666
 20
-47.90664486722296
 30
0.0
 10
3.094978933884338
 20
-47.800828091853916
 30
0.0
 10
3.1464478789824986
 20
-47.71536812382013
 30
0.0
 10
3.2020809776174195
 20
-47.65040952776507
 30
0.0
 10
3.2610949864209147
 20
-47.60607599061611
 30
0.0
 10
3.3227006577968616
 20
-47.5824677066771
 30
0.0
 10
4.2090535576861114
 20
-47.51271022059124
 30
0.0
 10
5.141092162984965
 20
-47.42091243035607
 30
0.0
 10
6.024023050863383
 20
-47.31641067326418
 30
0.0
 10
6.08905073425656
 20
-47.32754666037924
 30
0.0
 10
6.155579849459523
 20
-47.3595152790655
 30
0.0
 10
6.2228167549663995
 20
-47.41237223976081
 30
0.0
 10
6.289966348664803
 20
-47.48615010839031
 30
0.0
 10
6.356232670898294
 20
-47.58085827340356
 30
0.0
 10
6.420819508200042
 20
-47.69648292756851
 30
0.0
 10
6.4829309973554565
 20
-47.832987064542095
 30
0.0
 10
6.541772229443926
 20
-47.990310490218796
 30
0.0
 10
6.5965498535122045
 20
-48.16836984885466
 30
0.0
 10
6.6172750155266815
 20
-48.24306834027914
 30
0.0
 10
6.659243720444806
 20
-48.38356540237819
 30
0.0
 10
6.709628951191559
 20
-48.54090524779571
 30
0.0
 10
6.769106075154225
 20
-48.71480472454672
 30
0.0
 10
6.838342452304298
 20
-48.904960698145715
 30
0.0
 10
6.917996911801646
 20
-49.111050259500225
 30
0.0
 10
7.008719233716769
 20
-49.332730945609576
 30
0.0
 10
7.111149636190623
 20
-49.569640972997234
 30
0.0
 10
7.225918268319267
 20
-49.82139948372027
 30
0.0
 10
7.353644711476447
 20
-50.087606802644444
 30
0.0
 10
7.4949374945785845
 20
-50.36784475579275
 30
0.0
 10
7.650393519459993
 20
-50.661676732598416
 30
0.0
 10
7.820597776661641
 20
-50.96864841052121
 30
0.0
 10
8.006122662183206
 20
-51.288287637845755
 30
0.0
 10
8.207527619015641
 20
-51.62010496228306
 30
0.0
 10
8.425358656111317
 20
-51.96359391906702
 30
0.0
 10
8.660147897433564
 20
-52.31823137210412
 30
0.0
 10
8.91241313932111
 20
-52.683477866323145
 30
0.0
 10
9.182657416320868
 20
-53.05877799086102
 30
0.0
 10
9.357071170097385
 20
-53.29122971198645
 30
0.0
 10
10.556860293407205
 20
-53.072920665901215
 30
0.0
 10
11.748864162834996
 20
-52.81547250551893
 30
0.0
 10
11.821046037638286
 20
-52.53396986412669
 30
0.0
 10
11.927098054111278
 20
-52.08381975301875
 30
0.0
 10
12.020386965788212
 20
-51.64983826405599
 30
0.0
 10
12.101590062526265
 20
-51.2323460269814
 30
0.0
 10
12.171392166281695
 20
-50.831643281221524
 30
0.0
 10
12.230485091023723
 20
-50.44800970638671
 30
0.0
 10
12.279567098861087
 20
-50.08170426660998
 30
0.0
 10
12.319342353112987
 20
-49.73296506693331
 30
0.0
 10
12.350520367723579
 20
-49.402009225270724
 30
0.0
 10
12.373815454572645
 20
-49.08903275616727
 30
0.0
 10
12.389946167965007
 20
-48.794210468986954
 30
0.0
 10
12.399634747152263
 20
-48.517695879724684
 30
0.0
 10
12.403606557060666
 20
-48.25962113637195
 30
0.0
 10
12.402589526053998
 20
-48.02009695841021
 30
0.0
 10
12.397312572550735
 20
-47.79921262203144
 30
0.0
 10
12.388507210488573
 20
-47.59698970753719
 30
0.0
 10
12.37691137141046
 20
-47.41361268494618
 30
0.0
 10
12.363249902660055
 20
-47.24896802596102
 30
0.0
 10
12.348258032638942
 20
-47.10310494292509
 30
0.0
 10
12.338819710340662
 20
-47.02616135750005
 30
0.0
 10
12.321287269422037
 20
-46.840693471300014
 30
0.0
 10
12.31544441159173
 20
-46.672828013612104
 30
0.0
 10
12.320590071877099
 20
-46.522945597613365
 30
0.0
 10
12.336012661664945
 20
-46.39140604348923
 30
0.0
 10
12.360988726589225
 20
-46.27854814673092
 30
0.0
 10
12.394796297656182
 20
-46.18468917494663
 30
0.0
 10
12.436687628478442
 20
-46.11012526097273
 30
0.0
 10
12.48591865561199
 20
-46.05513051832788
 30
0.0
 10
12.541734843570968
 20
-46.01995719067816
 30
0.0
 10
13.397447710601536
 20
-45.778621202467896
 30
0.0
 10
14.293668594988858
 20
-45.50675556939248
 30
0.0
 10
15.13924693199106
 20
-45.232010513026296
 30
0.0
 10
15.205197649994052
 20
-45.23024625357837
 30
0.0
 10
15.276685195017283
 20
-45.248621417712286
 30
0.0
 10
15.352942043721132
 20
-45.2873454771824
 30
0.0
 10
15.433194724954177
 20
-45.346605488895854
 30
0.0
 10
15.516664404797234
 20
-45.42656594493149
 30
0.0
 10
15.602567475144632
 20
-45.52736863690099
 30
0.0
 10
15.690116145490894
 20
-45.6491325347386
 30
0.0
 10
15.778519037580004
 20
-45.79195367998894
 30
0.0
 10
15.866981782575888
 20
-45.95590509365829
 30
0.0
 10
15.901881669159781
 20
-46.0251249959845
 30
0.0
 10
15.970453574268287
 20
-46.15473475827407
 30
0.0
 10
16.050566148042897
 20
-46.299221691789256
 30
0.0
 10
16.14282654066399
 20
-46.458176327589996
 30
0.0
 10
16.247830150363946
 20
-46.6311711603632
 30
0.0
 10
16.366160150646234
 20
-46.8177609544311
 30
0.0
 10
16.498387025022417
 20
-47.01748306132036
 30
0.0
 10
16.645068109566463
 20
-47.22985774875925
 30
0.0
 10
16.806747143537507
 20
-47.45438854089331
 30
0.0
 10
16.983953830476295
 20
-47.690562567904244
 30
0.0
 10
17.177203424890923
 20
-47.937850972808484
 30
0.0
 10
17.386996180818258
 20
-48.195709084617796
 30
0.0
 10
17.613817214439393
 20
-48.46357718447918
 30
0.0
 10
17.858135811095167
 20
-48.740880524020135
 30
0.0
 10
18.12040517683167
 20
-49.02702991372694
 30
0.0
 10
18.401062022818053
 20
-49.32142209934962
 30
0.0
 10
18.70052618961594
 20
-49.623440184472614
 30
0.0
 10
19.019200281789054
 20
-49.932454062448194
 30
0.0
 10
19.35746931293242
 20
-50.24782085730554
 30
0.0
 10
19.573880836463864
 20
-50.441779648401464
 30
0.0
 10
20.708026366094167
 20
-49.993598103004246
 30
0.0
 10
21.826900570901202
 20
-49.50854831810328
 30
0.0
 10
21.842777050262573
 20
-49.21837268583204
 30
0.0
 10
21.85897137684472
 20
-48.756182360841315
 30
0.0
 10
21.865802179811514
 20
-48.31233994067957
 30
0.0
 10
21.863996286845236
 20
-47.88702776158287
 30
0.0
 10
21.854283935046702
 20
-47.48040669182537
 30
0.0
 10
21.837398208158938
 20
-47.09261607084212
 30
0.0
 10
21.81407447277616
 20
-46.723773662663284
 30
0.0
 10
21.785049813906152
 20
-46.37397562176052
 30
0.0
 10
21.751062469985346
 20
-46.043296474884194
 30
0.0
 10
21.71285126813176
 20
-45.73178911488017
 30
0.0
 10
21.67115505944585
 20
-45.439484809208835
 30
0.0
 10
21.6267121550394
 20
-45.16639322221014
 30
0.0
 10
21.580259762949204
 20
-44.91250245101192
 30
0.0
 10
21.53253342489895
 20
-44.677779075872955
 30
0.0
 10
21.484265470265125
 20
-44.46216845263923
 30
0.0
 10
21.43617756725821
 20
-44.265549035663206
 30
0.0
 10
21.389029456588837
 20
-44.087957787121574
 30
0.0
 10
21.343509909590097
 20
-43.92914194942964
 30
0.0
 10
21.300349628307927
 20
-43.78900635338381
 30
0.0
 10
21.27608171186843
 20
-43.715382542713954
 30
0.0
 10
21.222703162243484
 20
-43.536898779485995
 30
0.0
 10
21.184223647092313
 20
-43.373398694513156
 30
0.0
 10
21.160029826156407
 20
-43.22539235858825
 30
0.0
 10
21.149493981234087
 20
-43.093371502104475
 30
0.0
 10
21.15197265465358
 20
-42.97780954963788
 30
0.0
 10
21.166819645692733
 20
-42.87915852175202
 30
0.0
 10
21.193359348351756
 20
-42.797854739257374
 30
0.0
 10
21.230915473051695
 20
-42.734312208235075
 30
0.0
 10
21.278797192792517
 20
-42.688925528130795
 30
0.0
 10
22.070985461373727
 20
-42.285285444480266
 30
0.0
 10
22.896947358868978
 20
-41.84379961237969
 30
0.0
 10
23.67267804370976
 20
-41.40936955517656
 30
0.0
 10
23.737017347215303
 20
-41.394772848666825
 30
0.0
 10
23.810716095794234
 20
-41.39884841099563
 30
0.0
 10
23.893062379764704
 20
-41.421951425351814
 30
0.0
 10
23.983334082998823
 20
-41.464416251132484
 30
0.0
 10
24.080799427465415
 20
-41.5265561627074
 30
0.0
 10
24.184717524040003
 20
-41.608663101559856
 30
0.0
 10
24.294338929273575
 20
-41.71100744195357
 30
0.0
 10
24.40890620779725
 20
-41.83383777026062
 30
0.0
 10
24.52765450004103
 20
-41.97738067808113
 30
0.0
 10
24.575387928124997
 20
-42.03846190928166
 30
0.0
 10
24.667927853566134
 20
-42.152203541282944
 30
0.0
 10
24.77468908908609
 20
-42.27828501107002
 30
0.0
 10
24.8961872352174
 20
-42.416186268409454
 30
0.0
 10
25.032922847633174
 20
-42.56537186595001
 30
0.0
 10
25.18538103314978
 20
-42.725291351586044
 30
0.0
 10
25.35403105535844
 20
-42.89537967069291
 30
0.0
 10
25.539325950153344
 20
-43.075057578045836
 30
0.0
 10
25.741702151361935
 20
-43.26373205916754
 30
0.0
 10
25.961579128481922
 20
-43.46079675885511
 30
0.0
 10
26.19935906067131
 20
-43.66563246079575
 30
0.0
 10
26.45542632968742
 20
-43.87760736498038
 30
0.0
 10
26.730147534608676
 20
-44.096077865924826
 30
0.0
 10
27.023870815744626
 20
-44.320388705857155
 30
0.0
 10
27.3369257257423
 20
-44.54987360026146
 30
0.0
 10
27.6696228954223
 20
-44.7838556881264
 30
0.0
 10
28.022253747707225
 20
-45.021648019697714
 30
0.0
 10
28.39509022351819
 20
-45.262554051396236
 30
0.0
 10
28.788384519641774
 20
-45.50586814750642
 30
0.0
 10
29.038477239443814
 20
-45.653880281004355
 30
0.0
 10
30.06339459872721
 20
-44.9930496017416
 30
0.0
 10
31.066141430694636
 20
-44.29903838353664
 30
0.0
 10
31.025102390415856
 20
-44.01134104720221
 30
0.0
 10
30.950816688218495
 20
-43.55487222331878
 30
0.0
 10
30.870926878547888
 20
-43.118225487255174
 30
0.0
 10
30.786181395331223
 20
-42.70143787466123
 30
0.0
 10
30.697327828211584
 20
-42.30452470058117
 30
0.0
 10
30.605112358708702
 20
-41.92747960953837
 30
0.0
 10
30.51027919817644
 20
-41.57027463985454
 30
0.0
 10
30.413570027547678
 20
-41.232860300268584
 30
0.0
 10
30.31572343966203
 20
-40.91516566234596
 30
0.0
 10
30.21747438416394
 20
-40.61709846459099
 30
0.0
 10
30.119553615316054
 20
-40.338545230969444
 30
0.0
 10
30.02268714320837
 20
-40.07937140277115
 30
0.0
 10
29.9275956884968
 20
-39.839421483681
 30
0.0
 10
29.834994139808984
 20
-39.61851919903701
 30
0.0
 10
29.7455900944722
 20
-39.41646808428339
 30
0.0
 10
29.660067641665083
 20
-39.23300813875454
 30
0.0
 10
29.5791791348565
 20
-39.06802739634941
 30
0.0
 10
29.503550800272937
 20
-38.92114358352827
 30
0.0
 10
29.433880733134817
 20
-38.792120806839634
 30
0.0
 10
29.395715824973262
 20
-38.72464609268029
 30
0.0
 10
29.308542474369048
 20
-38.56000548335041
 30
0.0
 10
29.238905048084717
 20
-38.407153987666234
 30
0.0
 10
29.186301500898047
 20
-38.26671153230186
 30
0.0
 10
29.15021210787736
 20
-38.139282860934955
 30
0.0
 10
29.1300981357626
 20
-38.02545783378548
 30
0.0
 10
29.125413985234616
 20
-37.92580585347558
 30
0.0
 10
29.13558215384085
 20
-37.84088666122576
 30
0.0
 10
29.16002011529668
 20
-37.77123824565813
 30
0.0
 10
29.198127299182083
 20
-37.71738239776257
 30
0.0
 10
29.896347618416648
 20
-37.16694988072249
 30
0.0
 10
30.620309276503853
 20
-36.57280990253628
 30
0.0
 10
31.29638141399957
 20
-35.99538974796333
 30
0.0
 10
31.356636779655844
 20
-35.968521537637024
 30
0.0
 10
31.42971453021332
 20
-35.958140876586036
 30
0.0
 10
31.51498572793775
 20
-35.96473500994289
 30
0.0
 10
31.61180736224261
 20
-35.98877275035057
 30
0.0
 10
31.719522832804078
 20
-36.030704115511405
 30
0.0
 10
31.837462441432443
 20
-36.09095997763282
 30
0.0
 10
31.964943892426582
 20
-36.16995172497668
 30
0.0
 10
32.10127280112124
 20
-36.26807093570764
 30
0.0
 10
32.24574321033679
 20
-36.38568906423157
 30
0.0
 10
32.30447581104878
 20
-36.436284306846105
 30
0.0
 10
32.417427499384836
 20
-36.529786781428356
 30
0.0
 10
32.546734622241495
 20
-36.6326175473107
 30
0.0
 10
32.69280141626414
 20
-36.74416595820519
 30
0.0
 10
32.856014358492814
 20
-36.86380920166386
 30
0.0
 10
33.03674184667388
 20
-36.99091276271891
 30
0.0
 10
33.23533389094155
 20
-37.124830895326745
 30
0.0
 10
33.45212181709492
 20
-37.26490710137866
 30
0.0
 10
33.68741798162248
 20
-37.41047461698835
 30
0.0
 10
33.94151550000139
 20
-37.560856903458735
 30
0.0
 10
34.21468802052002
 20
-37.71536818128339
 30
0.0
 10
34.50718928108079
 20
-37.87331380115241
 30
0.0
 10
34.81925327546247
 20
-38.033991004348294
 30
0.0
 10
35.15109362010646
 20
-38.19668920488836
 30
0.0
 10
35.50290354973731
 20
-38.36069062819482
 30
0.0
 10
35.87485567745885
 20
-38.52527081788404
 30
0.0
 10
36.26710180933516
 20
-38.68969916995686
 30
0.0
 10
36.67977277210766
 20
-38.8532394716818
 30
0.0
 10
37.112978253973424
 20
-39.01515044478343
 30
0.0
 10
37.38714124707768
 20
-39.11152789739921
 30
0.0
 10
38.26344343667701
 20
-38.26344343667701
 30
0.0
 10
39.11152789739922
 20
-37.387141247077686
 30
0.0
 10
39.01515044478326
 20
-37.11297825397287
 30
0.0
 10
38.85323947168193
 20
-36.67977277210791
 30
0.0
 10
38.68969916995683
 20
-36.26710180933505
 30
0.0
 10
38.525270817883985
 20
-35.87485567745866
 30
0.0
 10
38.360690628198
 20
-35.50290354974447
 30
0.0
 10
38.19668920485796
 20
-35.151093620041586
 30
0.0
 10
38.03399100435242
 20
-34.819253275514846
 30
0.0
 10
37.873313801157046
 20
-34.50718928109183
 30
0.0
 10
37.715368158806
 20
-34.21468797889309
 30
0.0
 10
37.56085690576749
 20
-33.94151549863887
 30
0.0
 10
37.41047461698986
 20
-33.68741798162074
 30
0.0
 10
37.264907101380686
 20
-33.45212181709415
 30
0.0
 10
37.124830895324415
 20
-33.235333890937255
 30
0.0
 10
36.990912761583566
 20
-33.03674184770368
 30
0.0
 10
36.86380837286774
 20
-32.85601495245856
 30
0.0
 10
36.74413795016025
 20
-32.69276474119803
 30
0.0
 10
36.632617547166326
 20
-32.54673462233778
 30
0.0
 10
36.529786779483125
 20
-32.41742749694075
 30
0.0
 10
36.436284308097754
 20
-32.304475812560646
 30
0.0
 10
36.38568906423166
 20
-32.24574321033669
 30
0.0
 10
36.26807093562453
 20
-32.101272801189936
 30
0.0
 10
36.16995172544601
 20
-31.964943892053462
 30
0.0
 10
36.09095997682656
 20
-31.837462442048235
 30
0.0
 10
36.03070393084212
 20
-31.719522968175998
 30
0.0
 10
35.98877028186145
 20
-31.61180909830319
 30
0.0
 10
35.9647349990442
 20
-31.514985735287087
 30
0.0
 10
35.95814087658049
 20
-31.429714530217026
 30
0.0
 10
35.96852153763842
 20
-31.356636779655062
 30
0.0
 10
35.99538974796245
 20
-31.29638141400012
 30
0.0
 10
36.57280990254866
 20
-30.620309276514238
 30
0.0
 10
37.16694988070991
 20
-29.896347618406537
 30
0.0
 10
37.71738239776221
 20
-29.198127299183064
 30
0.0
 10
37.77123824565865
 20
-29.160020115295165
 30
0.0
 10
37.84088666122322
 20
-29.13558215384703
 30
0.0
 10
37.9258058483937
 20
-29.125413997357686
 30
0.0
 10
38.025456612661166
 20
-29.130100895509024
 30
0.0
 10
38.139282764191364
 20
-29.150212315408034
 30
0.0
 10
38.26671153185521
 20
-29.186301501808963
 30
0.0
 10
38.40715398794064
 20
-29.238905047551615
 30
0.0
 10
38.560005483299264
 20
-29.308542474463977
 30
0.0
 10
38.724646092680366
 20
-29.39571582497316
 30
0.0
 10
38.79212080511265
 20
-29.433880732202184
 30
0.0
 10
38.9211435863049
 20
-29.503550801703984
 30
0.0
 10
39.068027396283156
 20
-29.579179135016883
 30
0.0
 10
39.233049573218054
 20
-29.660087956592836
 30
0.0
 10
39.41646766342064
 20
-29.745591023220214
 30
0.0
 10
39.6185191982485
 20
-29.834994141123424
 30
0.0
 10
39.83942148368568
 20
-29.927595688498258
 30
0.0
 10
40.079371402771514
 20
-30.022687143206237
 30
0.0
 10
40.33854523097087
 20
-30.119553615314253
 30
0.0
 10
40.61709846547692
 20
-30.217474381633746
 30
0.0
 10
40.915165707558174
 20
-30.315723453586514
 30
0.0
 10
41.23286030025685
 20
-30.413570027545294
 30
0.0
 10
41.57027463980238
 20
-30.510279198182612
 30
0.0
 10
41.92747960960794
 20
-30.60511235872587
 30
0.0
 10
42.30452470057354
 20
-30.697327828209865
 30
0.0
 10
42.70143787466143
 20
-30.786181395331248
 30
0.0
 10
43.118225487255295
 20
-30.8709268785479
 30
0.0
 10
43.554872223318526
 20
-30.950816688218435
 30
0.0
 10
44.01134104720279
 20
-31.025102390415935
 30
0.0
 10
44.29903838353665
 20
-31.06614143069464
 30
0.0
 10
44.99304960174164
 20
-30.06339459872717
 30
0.0
 10
45.65388028100433
 20
-29.038477239443868
 30
0.0
 10
45.505868147506106
 20
-28.788384519641312
 30
0.0
 10
45.262554051396364
 20
-28.39509022351846
 30
0.0
 10
45.021648019697636
 20
-28.022253747707175
 30
0.0
 10
44.78385568812628
 20
-27.669622895422176
 30
0.0
 10
44.549873600265954
 20
-27.336925725748742
 30
0.0
 10
44.32038870581465
 20
-27.023870815686973
 30
0.0
 10
44.096077865939066
 20
-26.73014753465928
 30
0.0
 10
43.87760736498706
 20
-26.455426329697396
 30
0.0
 10
43.66563243062922
 20
-26.1993590242294
 30
0.0
 10
43.46079676085365
 20
-25.96157912669522
 30
0.0
 10
43.26373205916864
 20
-25.741702151359977
 30
0.0
 10
43.07505757804765
 20
-25.539325950152243
 30
0.0
 10
42.895379670689756
 20
-25.354031055354728
 30
0.0
 10
42.725291350673395
 20
-25.18538103438134
 30
0.0
 10
42.565371168955906
 20
-25.03292359187618
 30
0.0
 10
42.41615164358076
 20
-24.896156728950952
 30
0.0
 10
42.27828501094718
 20
-24.774689089208735
 30
0.0
 10
42.15220353889824
 20
-24.667927851548555
 30
0.0
 10
42.03846191080417
 20
-24.57538792936367
 30
0.0
 10
41.97738067808118
 20
-24.527654500040956
 30
0.0
 10
41.83383777019248
 20
-24.40890620788089
 30
0.0
 10
41.711007442341064
 20
-24.294338928816103
 30
0.0
 10
41.608663100889196
 20
-24.1847175248013
 30
0.0
 10
41.526556007996206
 20
-24.080799596263432
 30
0.0
 10
41.46441416876328
 20
-23.983336267279867
 30
0.0
 10
41.4219514160963
 20
-23.8930623890991
 30
0.0
 10
41.39884841099088
 20
-23.810716095799002
 30
0.0
 10
41.39477284866801
 20
-23.737017347214305
 30
0.0
 10
41.40936955517578
 20
-23.67267804371052
 30
0.0
 10
41.84379961239384
 20
-22.896947358876787
 30
0.0
 10
42.28528544446592
 20
-22.070985461366305
 30
0.0
 10
42.68892552813062
 20
-21.278797192793597
 30
0.0
 10
42.73431220823525
 20
-21.230915473050157
 30
0.0
 10
42.79785473925606
 20
-21.19335934835836
 30
0.0
 10
42.87915851913286
 20
-21.166819658574337
 30
0.0
 10
42.97780889037692
 20
-21.151975599601826
 30
0.0
 10
43.093371447706986
 20
-21.149494203650903
 30
0.0
 10
43.22539235832787
 20
-21.160029827137002
 30
0.0
 10
43.37339869467825
 20
-21.18422364651597
 30
0.0
 10
43.536898779454326
 20
-21.222703162346612
 30
0.0
 10
43.715382542714
 20
-21.276081711868354
 30
0.0
 10
43.78900635150804
 20
-21.30034962773018
 30
0.0
 10
43.929141952432076
 20
-21.343509910452003
 30
0.0
 10
44.08795778708785
 20
-21.38902945675911
 30
0.0
 10
44.265593637220896
 20
-21.436189408377544
 30
0.0
 10
44.46216822105298
 20
-21.484266463273805
 30
0.0
 10
44.677779075356
 20
-21.53253342634201
 30
0.0
 10
44.91250245101676
 20
-21.580259762949773
 30
0.0
 10
45.16639322221006
 20
-21.62671215503729
 30
0.0
 10
45.439484809209866
 20
-21.671155059443855
 30
0.0
 10
45.73178911525544
 20
-21.712851265477397
 30
0.0
 10
46.04329652194417
 20
-21.75106247482186
 30
0.0
 10
46.37397562174853
 20
-21.78504981390615
 30
0.0
 10
46.723773662613304
 20
-21.814074472792438
 30
0.0
 10
47.09261607091368
 20
-21.83739820816225
 30
0.0
 10
47.48040669181753
 20
-21.85428393504655
 30
0.0
 10
47.887027761583056
 20
-21.86399628684528
 30
0.0
 10
48.312339940679664
 20
-21.865802179811553
 30
0.0
 10
48.75618236084103
 20
-21.858971376844767
 30
0.0
 10
49.2183726858326
 20
-21.842777050262583
 30
0.0
 10
49.508548318103266
 20
-21.82690057090126
 30
0.0
 10
49.99359810300423
 20
-20.708026366094213
 30
0.0
 10
50.44177964840145
 20
-19.5738808364639
 30
0.0
 10
50.24782085730515
 20
-19.357469312932015
 30
0.0
 10
49.932454062448386
 20
-19.019200281789274
 30
0.0
 10
49.62344018447253
 20
-18.70052618961589
 30
0.0
 10
49.321422099349476
 20
-18.40106202281794
 30
0.0
 10
49.027029913732605
 20
-18.120405176837096
 30
0.0
 10
48.7408805239672
 20
-17.8581358110469
 30
0.0
 10
48.463577184503016
 20
-17.613817214486232
 30
0.0
 10
48.195709084626294
 20
-17.386996180826728
 30
0.0
 10
47.937850936112135
 20
-17.177203395034415
 30
0.0
 10
47.69056256951582
 20
-16.98395382833401
 30
0.0
 10
47.454388540894016
 20
-16.80674714353536
 30
0.0
 10
47.229857748760814
 20
-16.64506810956501
 30
0.0
 10
47.017483061316554
 20
-16.49838702501938
 30
0.0
 10
46.81776095377626
 20
-16.36616015203216
 30
0.0
 10
46.63117062195626
 20
-16.24783101628332
 30
0.0
 10
46.45813641659033
 20
-16.14280337553586
 30
0.0
 10
46.29922169169271
 20
-16.050566148187134
 30
0.0
 10
46.154734755541575
 20
-15.970453572754696
 30
0.0
 10
46.02512499771941
 20
-15.90188167007761
 30
0.0
 10
45.95590509365832
 20
-15.866981782575795
 30
0.0
 10
45.79195367993843
 20
-15.778519037675313
 30
0.0
 10
45.649132535029395
 20
-15.690116144966602
 30
0.0
 10
45.527368636391735
 20
-15.602567476022124
 30
0.0
 10
45.4265658261239
 20
-15.516664600534487
 30
0.0
 10
45.34660387267088
 20
-15.433197273514935
 30
0.0
 10
45.28734546992577
 20
-15.352942054681819
 30
0.0
 10
45.24862141770855
 20
-15.276685195022868
 30
0.0
 10
45.230246253579345
 20
-15.205197649992828
 30
0.0
 10
45.23201051302568
 20
-15.139246931991941
 30
0.0
 10
45.50675556940788
 20
-14.293668594993743
 30
0.0
 10
45.778621202452385
 20
-13.39744771059704
 30
0.0
 10
46.01995719067819
 20
-12.541734843572044
 30
0.0
 10
46.05513051832776
 20
-12.485918655610432
 30
0.0
 10
46.11012526097273
 20
-12.436687628485156
 30
0.0
 10
46.18468917489086
 20
-12.394796310801226
 30
0.0
 10
46.278548074668386
 20
-12.360991743566538
 30
0.0
 10
46.39140603352835
 20
-12.336012890420488
 30
0.0
 10
46.52294559754928
 20
-12.320590072889637
 30
0.0
 10
46.6728280136616
 20
-12.315444410994239
 30
0.0
 10
46.840693471289065
 20
-12.32128726952935
 30
0.0
 10
47.02616135750008
 20
-12.338819710340568
 30
0.0
 10
47.10310494097265
 20
-12.348258032438226
 30
0.0
 10
47.248968029073914
 20
-12.363249902919637
 30
0.0
 10
47.41361268494634
 20
-12.376911371584029
 30
0.0
 10
47.59703576217624
 20
-12.388510122751851
 30
0.0
 10
47.79921258862143
 20
-12.397313591659257
 30
0.0
 10
48.020096958184716
 20
-12.402589527570166
 30
0.0
 10
48.259621136376815
 20
-12.403606557060257
 30
0.0
 10
48.5176958797242
 20
-12.39963474715019
 30
0.0
 10
48.79421046898757
 20
-12.389946167962835
 30
0.0
 10
49.08903275601749
 20
-12.373815451896059
 30
0.0
 10
49.402009272370016
 20
-12.3505203632862
 30
0.0
 10
49.732965066921544
 20
-12.319342353115312
 30
0.0
 10
50.081704266564145
 20
-12.279567098886789
 30
0.0
 10
50.44800970645754
 20
-12.230485091012996
 30
0.0
 10
50.83164328121381
 20
-12.171392166283058
 30
0.0
 10
51.23234602698159
 20
-12.10159006252625
 30
0.0
 10
51.649838264056086
 20
-12.02038696578822
 30
0.0
 10
52.083819753018474
 20
-11.927098054111362
 30
0.0
 10
52.53396986412724
 20
-11.82104603763817
 30
0.0
 10
52.81547250551893
 20
-11.748864162835037
 30
0.0
  0
LWPOLYLINE
  8
OpenJsCad
  90
181
  70
1
 10
0.06979899340500194
 20
-1.9987816540381915
 30
0.0
 10
0
 20
-2
 30
0.0
 10
-0.06979899340500154
 20
-1.9987816540381915
 30
0.0
 10
-0.1395129474882494
 20
-1.9951281005196484
 30
0.0
 10
-0.20905692653530694
 20
-1.9890437907365466
 30
0.0
 10
-0.27834620192013165
 20
-1.9805361374831407
 30
0.0
 10
-0.3472963553338626
 20
-1.9696155060244158
 30
0.0
 10
-0.41582338163551985
 20
-1.9562952014676112
 30
0.0
 10
-0.48384379119933585
 20
-1.940591452551993
 30
0.0
 10
-0.5512747116339994
 20
-1.9225233918766376
 30
0.0
 10
-0.6180339887498951
 20
-1.9021130325903068
 30
0.0
 10
-0.6840402866513371
 20
-1.8793852415718169
 30
0.0
 10
-0.7492131868318248
 20
-1.8543677091335744
 30
0.0
 10
-0.8134732861516004
 20
-1.8270909152852017
 30
0.0
 10
-0.8767422935781541
 20
-1.7975880925983345
 30
0.0
 10
-0.9389431255717816
 20
-1.7658951857178538
 30
0.0
 10
-1.000000000000001
 20
-1.7320508075688767
 30
0.0
 10
-1.0598385284664116
 20
-1.6960961923128508
 30
0.0
 10
-1.1183858069414947
 20
-1.6580751451100828
 30
0.0
 10
-1.1755705045849465
 20
-1.6180339887498947
 30
0.0
 10
-1.231322950651318
 20
-1.5760215072134431
 30
0.0
 10
-1.285575219373079
 20
-1.5320888862379558
 30
0.0
 10
-1.3382612127177165
 20
-1.4862896509547887
 30
0.0
 10
-1.3893167409179954
 20
-1.4386796006773017
 30
0.0
 10
-1.4386796006773035
 20
-1.3893167409179934
 30
0.0
 10
-1.4862896509547892
 20
-1.3382612127177158
 30
0.0
 10
-1.5320888862379562
 20
-1.2855752193730785
 30
0.0
 10
-1.5760215072134434
 20
-1.231322950651317
 30
0.0
 10
-1.6180339887498951
 20
-1.1755705045849458
 30
0.0
 10
-1.6580751451100844
 20
-1.1183858069414927
 30
0.0
 10
-1.6960961923128521
 20
-1.0598385284664094
 30
0.0
 10
-1.7320508075688774
 20
-1.0000000000000002
 30
0.0
 10
-1.765895185717854
 20
-0.938943125571781
 30
0.0
 10
-1.797588092598334
 20
-0.8767422935781548
 30
0.0
 10
-1.8270909152852013
 20
-0.8134732861516013
 30
0.0
 10
-1.8543677091335748
 20
-0.749213186831824
 30
0.0
 10
-1.879385241571817
 20
-0.6840402866513363
 30
0.0
 10
-1.902113032590307
 20
-0.6180339887498946
 30
0.0
 10
-1.9225233918766376
 20
-0.5512747116339989
 30
0.0
 10
-1.9405914525519932
 20
-0.48384379119933485
 30
0.0
 10
-1.9562952014676116
 20
-0.41582338163551713
 30
0.0
 10
-1.969615506024416
 20
-0.3472963553338599
 30
0.0
 10
-1.9805361374831407
 20
-0.2783462019201309
 30
0.0
 10
-1.9890437907365466
 20
-0.20905692653530603
 30
0.0
 10
-1.9951281005196484
 20
-0.13951294748825044
 30
0.0
 10
-1.9987816540381913
 20
-0.06979899340500256
 30
0.0
 10
-2
 20
3.673940392319381e-16
 30
0.0
 10
-1.9987816540381915
 20
0.06979899340500353
 30
0.0
 10
-1.9951281005196484
 20
0.13951294748825138
 30
0.0
 10
-1.9890437907365466
 20
0.20905692653530694
 30
0.0
 10
-1.980536137483141
 20
0.2783462019201301
 30
0.0
 10
-1.969615506024416
 20
0.34729635533386066
 30
0.0
 10
-1.9562952014676112
 20
0.41582338163551985
 30
0.0
 10
-1.940591452551993
 20
0.48384379119933585
 30
0.0
 10
-1.9225233918766378
 20
0.551274711633998
 30
0.0
 10
-1.9021130325903068
 20
0.6180339887498951
 30
0.0
 10
-1.8793852415718162
 20
0.6840402866513389
 30
0.0
 10
-1.8543677091335744
 20
0.7492131868318248
 30
0.0
 10
-1.8270909152852017
 20
0.8134732861516004
 30
0.0
 10
-1.7975880925983339
 20
0.8767422935781556
 30
0.0
 10
-1.7658951857178538
 20
0.9389431255717816
 30
0.0
 10
-1.7320508075688767
 20
1.000000000000001
 30
0.0
 10
-1.6960961923128517
 20
1.0598385284664102
 30
0.0
 10
-1.6580751451100828
 20
1.1183858069414947
 30
0.0
 10
-1.6180339887498947
 20
1.1755705045849465
 30
0.0
 10
-1.5760215072134443
 20
1.2313229506513161
 30
0.0
 10
-1.5320888862379558
 20
1.285575219373079
 30
0.0
 10
-1.486289650954788
 20
1.338261212717717
 30
0.0
 10
-1.4386796006773017
 20
1.3893167409179952
 30
0.0
 10
-1.389316740917995
 20
1.438679600677302
 30
0.0
 10
-1.3382612127177165
 20
1.4862896509547885
 30
0.0
 10
-1.2855752193730785
 20
1.532088886237956
 30
0.0
 10
-1.231322950651316
 20
1.5760215072134445
 30
0.0
 10
-1.175570504584946
 20
1.618033988749895
 30
0.0
 10
-1.1183858069414936
 20
1.6580751451100837
 30
0.0
 10
-1.0598385284664096
 20
1.6960961923128521
 30
0.0
 10
-1.0000000000000004
 20
1.7320508075688772
 30
0.0
 10
-0.9389431255717818
 20
1.7658951857178538
 30
0.0
 10
-0.8767422935781541
 20
1.7975880925983345
 30
0.0
 10
-0.8134732861515996
 20
1.827090915285202
 30
0.0
 10
-0.7492131868318241
 20
1.8543677091335748
 30
0.0
 10
-0.6840402866513373
 20
1.8793852415718166
 30
0.0
 10
-0.6180339887498955
 20
1.9021130325903066
 30
0.0
 10
-0.551274711633998
 20
1.9225233918766378
 30
0.0
 10
-0.48384379119933507
 20
1.9405914525519932
 30
0.0
 10
-0.4158233816355182
 20
1.9562952014676116
 30
0.0
 10
-0.3472963553338609
 20
1.969615506024416
 30
0.0
 10
-0.278346201920131
 20
1.9805361374831407
 30
0.0
 10
-0.2090569265353061
 20
1.9890437907365466
 30
0.0
 10
-0.13951294748824966
 20
1.9951281005196484
 30
0.0
 10
-0.06979899340500179
 20
1.9987816540381915
 30
0.0
 10
2.449293597636856e-16
 20
2
 30
0.0
 10
0.06979899340500115
 20
1.9987816540381915
 30
0.0
 10
0.139512947488251
 20
1.9951281005196484
 30
0.0
 10
0.20905692653530733
 20
1.9890437907365466
 30
0.0
 10
0.27834620192013126
 20
1.9805361374831407
 30
0.0
 10
0.3472963553338602
 20
1.969615506024416
 30
0.0
 10
0.4158233816355183
 20
1.9562952014676116
 30
0.0
 10
0.48384379119933546
 20
1.940591452551993
 30
0.0
 10
0.5512747116339991
 20
1.9225233918766376
 30
0.0
 10
0.6180339887498948
 20
1.902113032590307
 30
0.0
 10
0.6840402866513374
 20
1.8793852415718166
 30
0.0
 10
0.7492131868318246
 20
1.8543677091335746
 30
0.0
 10
0.8134732861516007
 20
1.8270909152852015
 30
0.0
 10
0.8767422935781544
 20
1.7975880925983343
 30
0.0
 10
0.938943125571782
 20
1.7658951857178535
 30
0.0
 10
0.9999999999999997
 20
1.7320508075688776
 30
0.0
 10
1.0598385284664098
 20
1.696096192312852
 30
0.0
 10
1.1183858069414938
 20
1.6580751451100835
 30
0.0
 10
1.1755705045849465
 20
1.6180339887498947
 30
0.0
 10
1.2313229506513168
 20
1.5760215072134438
 30
0.0
 10
1.285575219373079
 20
1.5320888862379558
 30
0.0
 10
1.338261212717717
 20
1.486289650954788
 30
0.0
 10
1.3893167409179947
 20
1.4386796006773022
 30
0.0
 10
1.4386796006773028
 20
1.3893167409179943
 30
0.0
 10
1.4862896509547885
 20
1.3382612127177165
 30
0.0
 10
1.532088886237956
 20
1.2855752193730785
 30
0.0
 10
1.576021507213444
 20
1.2313229506513166
 30
0.0
 10
1.618033988749895
 20
1.175570504584946
 30
0.0
 10
1.6580751451100837
 20
1.1183858069414936
 30
0.0
 10
1.6960961923128521
 20
1.0598385284664096
 30
0.0
 10
1.7320508075688779
 20
0.9999999999999994
 30
0.0
 10
1.765895185717854
 20
0.9389431255717812
 30
0.0
 10
1.797588092598334
 20
0.8767422935781549
 30
0.0
 10
1.827090915285202
 20
0.8134732861516002
 30
0.0
 10
1.8543677091335748
 20
0.7492131868318241
 30
0.0
 10
1.8793852415718166
 20
0.6840402866513374
 30
0.0
 10
1.902113032590307
 20
0.6180339887498948
 30
0.0
 10
1.9225233918766378
 20
0.5512747116339981
 30
0.0
 10
1.940591452551993
 20
0.48384379119933557
 30
0.0
 10
1.9562952014676116
 20
0.4158233816355183
 30
0.0
 10
1.969615506024416
 20
0.3472963553338606
 30
0.0
 10
1.9805361374831407
 20
0.2783462019201307
 30
0.0
 10
1.9890437907365466
 20
0.2090569265353067
 30
0.0
 10
1.9951281005196484
 20
0.1395129474882507
 30
0.0
 10
1.9987816540381915
 20
0.06979899340500147
 30
0.0
 10
2
 20
0
 30
0.0
 10
1.9987816540381915
 20
-0.06979899340500194
 30
0.0
 10
1.9951281005196484
 20
-0.139512947488251
 30
0.0
 10
1.9890437907365466
 20
-0.20905692653530694
 30
0.0
 10
1.9805361374831407
 20
-0.27834620192013126
 30
0.0
 10
1.969615506024416
 20
-0.34729635533386066
 30
0.0
 10
1.9562952014676114
 20
-0.4158233816355187
 30
0.0
 10
1.940591452551993
 20
-0.48384379119933585
 30
0.0
 10
1.9225233918766378
 20
-0.5512747116339983
 30
0.0
 10
1.902113032590307
 20
-0.6180339887498948
 30
0.0
 10
1.8793852415718166
 20
-0.6840402866513374
 30
0.0
 10
1.854367709133575
 20
-0.7492131868318238
 30
0.0
 10
1.8270909152852017
 20
-0.8134732861516004
 30
0.0
 10
1.797588092598334
 20
-0.8767422935781548
 30
0.0
 10
1.7658951857178538
 20
-0.9389431255717816
 30
0.0
 10
1.7320508075688774
 20
-1
 30
0.0
 10
1.696096192312852
 20
-1.0598385284664098
 30
0.0
 10
1.6580751451100835
 20
-1.1183858069414938
 30
0.0
 10
1.618033988749895
 20
-1.1755705045849463
 30
0.0
 10
1.576021507213444
 20
-1.2313229506513166
 30
0.0
 10
1.532088886237956
 20
-1.2855752193730785
 30
0.0
 10
1.4862896509547885
 20
-1.3382612127177165
 30
0.0
 10
1.438679600677302
 20
-1.389316740917995
 30
0.0
 10
1.3893167409179947
 20
-1.4386796006773022
 30
0.0
 10
1.3382612127177165
 20
-1.4862896509547885
 30
0.0
 10
1.2855752193730785
 20
-1.532088886237956
 30
0.0
 10
1.2313229506513166
 20
-1.576021507213444
 30
0.0
 10
1.1755705045849463
 20
-1.618033988749895
 30
0.0
 10
1.1183858069414938
 20
-1.6580751451100835
 30
0.0
 10
1.0598385284664098
 20
-1.696096192312852
 30
0.0
 10
1
 20
-1.7320508075688774
 30
0.0
 10
0.9389431255717816
 20
-1.7658951857178538
 30
0.0
 10
0.8767422935781548
 20
-1.797588092598334
 30
0.0
 10
0.8134732861516004
 20
-1.8270909152852017
 30
0.0
 10
0.7492131868318241
 20
-1.8543677091335748
 30
0.0
 10
0.6840402866513374
 20
-1.8793852415718166
 30
0.0
 10
0.6180339887498948
 20
-1.902113032590307
 30
0.0
 10
0.5512747116339983
 20
-1.9225233918766378
 30
0.0
 10
0.48384379119933546
 20
-1.940591452551993
 30
0.0
 10
0.4158233816355187
 20
-1.9562952014676114
 30
0.0
 10
0.34729635533386066
 20
-1.969615506024416
 30
0.0
 10
0.2783462019201309
 20
-1.9805361374831407
 30
0.0
 10
0.20905692653530694
 20
-1.9890437907365466
 30
0.0
 10
0.1395129474882506
 20
-1.9951281005196484
 30
0.0
 10
0.06979899340500194
 20
-1.9987816540381915
 30
0.0
  0
ENDSEC
  0
EOF
