solid OpenSCAD_Model
  facet normal -0.994522 -0.104528 0
    outer loop
      vertex -7.82518 -1.66329 40
      vertex -8 4.5324e-015 40
      vertex -8 4.5324e-015 0
    endloop
  endfacet
  facet normal -0.994522 -0.104528 0
    outer loop
      vertex -7.82518 -1.66329 0
      vertex -7.82518 -1.66329 40
      vertex -8 4.5324e-015 0
    endloop
  endfacet
  facet normal 0 0 -1
    outer loop
      vertex -7.30836 -3.25389 0
      vertex -7.82518 -1.66329 0
      vertex -7.04266 -1.49696 0
    endloop
  endfacet
  facet normal 0 0 -1
    outer loop
      vertex -7.04266 1.49696 0
      vertex -7.2 4.07916e-015 0
      vertex -8 4.5324e-015 0
    endloop
  endfacet
  facet normal 0 0 -1
    outer loop
      vertex -6.47214 -4.70228 0
      vertex -7.30836 -3.25389 0
      vertex -5.82492 -4.23205 0
    endloop
  endfacet
  facet normal -0 0 -1
    outer loop
      vertex -7.2 4.07916e-015 0
      vertex -7.82518 -1.66329 0
      vertex -8 4.5324e-015 0
    endloop
  endfacet
  facet normal 0 0 -1
    outer loop
      vertex -7.30836 -3.25389 0
      vertex -7.04266 -1.49696 0
      vertex -6.57753 -2.9285 0
    endloop
  endfacet
  facet normal -0 0 -1
    outer loop
      vertex -7.04266 -1.49696 0
      vertex -7.82518 -1.66329 0
      vertex -7.2 4.07916e-015 0
    endloop
  endfacet
  facet normal 0 0 -1
    outer loop
      vertex -6.47214 -4.70228 0
      vertex -5.82492 -4.23205 0
      vertex -5.35304 -5.94516 0
    endloop
  endfacet
  facet normal 0 0 -1
    outer loop
      vertex -2.47214 -7.60845 0
      vertex -4 -6.9282 0
      vertex -2.22492 -6.84761 0
    endloop
  endfacet
  facet normal 0 -0 -1
    outer loop
      vertex -6.57753 -2.9285 0
      vertex -5.82492 -4.23205 0
      vertex -7.30836 -3.25389 0
    endloop
  endfacet
  facet normal 0 -0 -1
    outer loop
      vertex -4.81774 -5.35064 0
      vertex -4 -6.9282 0
      vertex -5.35304 -5.94516 0
    endloop
  endfacet
  facet normal 0 0 -1
    outer loop
      vertex -4 -6.9282 0
      vertex -4.81774 -5.35064 0
      vertex -3.6 -6.23538 0
    endloop
  endfacet
  facet normal -0 0 -1
    outer loop
      vertex -4.81774 -5.35064 0
      vertex -5.35304 -5.94516 0
      vertex -5.82492 -4.23205 0
    endloop
  endfacet
  facet normal 0 0 -1
    outer loop
      vertex -2.47214 -7.60845 0
      vertex -0.752605 -7.16056 0
      vertex -0.836228 -7.95618 0
    endloop
  endfacet
  facet normal -0 0 -1
    outer loop
      vertex 2.47214 -7.60845 0
      vertex 0.836228 -7.95618 0
      vertex 0.752605 -7.16056 0
    endloop
  endfacet
  facet normal 0 -0 -1
    outer loop
      vertex -3.6 -6.23538 0
      vertex -2.22492 -6.84761 0
      vertex -4 -6.9282 0
    endloop
  endfacet
  facet normal 0 -0 -1
    outer loop
      vertex -0.752605 -7.16056 0
      vertex 0.836228 -7.95618 0
      vertex -0.836228 -7.95618 0
    endloop
  endfacet
  facet normal 0 0 -1
    outer loop
      vertex 0.836228 -7.95618 0
      vertex -0.752605 -7.16056 0
      vertex 0.752605 -7.16056 0
    endloop
  endfacet
  facet normal -0 0 -1
    outer loop
      vertex -0.752605 -7.16056 0
      vertex -2.47214 -7.60845 0
      vertex -2.22492 -6.84761 0
    endloop
  endfacet
  facet normal 0 0 -1
    outer loop
      vertex 2.47214 -7.60845 0
      vertex 2.22492 -6.84761 0
      vertex 4 -6.9282 0
    endloop
  endfacet
  facet normal -0 0 -1
    outer loop
      vertex 6.47214 -4.70228 0
      vertex 5.35304 -5.94516 0
      vertex 5.82492 -4.23205 0
    endloop
  endfacet
  facet normal 0 0 -1
    outer loop
      vertex 0.752605 -7.16056 0
      vertex 2.22492 -6.84761 0
      vertex 2.47214 -7.60845 0
    endloop
  endfacet
  facet normal 0 0 -1
    outer loop
      vertex 3.6 -6.23538 0
      vertex 5.35304 -5.94516 0
      vertex 4 -6.9282 0
    endloop
  endfacet
  facet normal -0 0 -1
    outer loop
      vertex 5.35304 -5.94516 0
      vertex 3.6 -6.23538 0
      vertex 4.81774 -5.35064 0
    endloop
  endfacet
  facet normal 0 -0 -1
    outer loop
      vertex 3.6 -6.23538 0
      vertex 4 -6.9282 0
      vertex 2.22492 -6.84761 0
    endloop
  endfacet
  facet normal 0 0 -1
    outer loop
      vertex 6.47214 -4.70228 0
      vertex 5.82492 -4.23205 0
      vertex 7.30836 -3.25389 0
    endloop
  endfacet
  facet normal -0 0 -1
    outer loop
      vertex 8 0 0
      vertex 7.82518 -1.66329 0
      vertex 7.2 0 0
    endloop
  endfacet
  facet normal 0 0 -1
    outer loop
      vertex 4.81774 -5.35064 0
      vertex 5.82492 -4.23205 0
      vertex 5.35304 -5.94516 0
    endloop
  endfacet
  facet normal 0 0 -1
    outer loop
      vertex 6.57753 -2.9285 0
      vertex 7.82518 -1.66329 0
      vertex 7.30836 -3.25389 0
    endloop
  endfacet
  facet normal -0 0 -1
    outer loop
      vertex 7.82518 -1.66329 0
      vertex 6.57753 -2.9285 0
      vertex 7.04266 -1.49696 0
    endloop
  endfacet
  facet normal 0 -0 -1
    outer loop
      vertex 6.57753 -2.9285 0
      vertex 7.30836 -3.25389 0
      vertex 5.82492 -4.23205 0
    endloop
  endfacet
  facet normal 0 0 -1
    outer loop
      vertex 8 0 0
      vertex 7.04266 1.49696 0
      vertex 7.82518 1.66329 0
    endloop
  endfacet
  facet normal 0 -0 -1
    outer loop
      vertex 6.47214 4.70228 0
      vertex 7.30836 3.25389 0
      vertex 5.82492 4.23205 0
    endloop
  endfacet
  facet normal 0 0 -1
    outer loop
      vertex 7.04266 -1.49696 0
      vertex 7.2 0 0
      vertex 7.82518 -1.66329 0
    endloop
  endfacet
  facet normal 0 0 -1
    outer loop
      vertex 7.04266 1.49696 0
      vertex 7.30836 3.25389 0
      vertex 7.82518 1.66329 0
    endloop
  endfacet
  facet normal 0 0 -1
    outer loop
      vertex 7.30836 3.25389 0
      vertex 7.04266 1.49696 0
      vertex 6.57753 2.9285 0
    endloop
  endfacet
  facet normal 0 0 -1
    outer loop
      vertex 7.04266 1.49696 0
      vertex 8 0 0
      vertex 7.2 0 0
    endloop
  endfacet
  facet normal 0 0 -1
    outer loop
      vertex 6.47214 4.70228 0
      vertex 4.81774 5.35064 0
      vertex 5.35304 5.94516 0
    endloop
  endfacet
  facet normal 0 0 -1
    outer loop
      vertex 2.47214 7.60845 0
      vertex 4 6.9282 0
      vertex 3.6 6.23538 0
    endloop
  endfacet
  facet normal 0 0 -1
    outer loop
      vertex 6.57753 2.9285 0
      vertex 5.82492 4.23205 0
      vertex 7.30836 3.25389 0
    endloop
  endfacet
  facet normal 0 0 -1
    outer loop
      vertex 3.6 6.23538 0
      vertex 4 6.9282 0
      vertex 5.35304 5.94516 0
    endloop
  endfacet
  facet normal -0 0 -1
    outer loop
      vertex 5.35304 5.94516 0
      vertex 4.81774 5.35064 0
      vertex 3.6 6.23538 0
    endloop
  endfacet
  facet normal 0 0 -1
    outer loop
      vertex 4.81774 5.35064 0
      vertex 6.47214 4.70228 0
      vertex 5.82492 4.23205 0
    endloop
  endfacet
  facet normal -0 0 -1
    outer loop
      vertex 2.47214 7.60845 0
      vertex 0.752605 7.16056 0
      vertex 0.836228 7.95618 0
    endloop
  endfacet
  facet normal 0 0 -1
    outer loop
      vertex -2.47214 7.60845 0
      vertex -0.836228 7.95618 0
      vertex -0.752605 7.16056 0
    endloop
  endfacet
  facet normal 0 0 -1
    outer loop
      vertex 3.6 6.23538 0
      vertex 2.22492 6.84761 0
      vertex 2.47214 7.60845 0
    endloop
  endfacet
  facet normal 0 0 -1
    outer loop
      vertex -0.752605 7.16056 0
      vertex -0.836228 7.95618 0
      vertex 0.836228 7.95618 0
    endloop
  endfacet
  facet normal 0 0 -1
    outer loop
      vertex 0.836228 7.95618 0
      vertex 0.752605 7.16056 0
      vertex -0.752605 7.16056 0
    endloop
  endfacet
  facet normal 0 0 -1
    outer loop
      vertex 0.752605 7.16056 0
      vertex 2.47214 7.60845 0
      vertex 2.22492 6.84761 0
    endloop
  endfacet
  facet normal 0 -0 -1
    outer loop
      vertex -2.47214 7.60845 0
      vertex -2.22492 6.84761 0
      vertex -4 6.9282 0
    endloop
  endfacet
  facet normal 0 0 -1
    outer loop
      vertex -6.47214 4.70228 0
      vertex -5.35304 5.94516 0
      vertex -5.82492 4.23205 0
    endloop
  endfacet
  facet normal -0 0 -1
    outer loop
      vertex -0.752605 7.16056 0
      vertex -2.22492 6.84761 0
      vertex -2.47214 7.60845 0
    endloop
  endfacet
  facet normal 0 0 -1
    outer loop
      vertex -4.81774 5.35064 0
      vertex -5.35304 5.94516 0
      vertex -4 6.9282 0
    endloop
  endfacet
  facet normal 0 -0 -1
    outer loop
      vertex -4 6.9282 0
      vertex -3.6 6.23538 0
      vertex -4.81774 5.35064 0
    endloop
  endfacet
  facet normal 0 0 -1
    outer loop
      vertex -3.6 6.23538 0
      vertex -4 6.9282 0
      vertex -2.22492 6.84761 0
    endloop
  endfacet
  facet normal 0 -0 -1
    outer loop
      vertex -6.47214 4.70228 0
      vertex -5.82492 4.23205 0
      vertex -7.30836 3.25389 0
    endloop
  endfacet
  facet normal -0 0 -1
    outer loop
      vertex -4.81774 5.35064 0
      vertex -5.82492 4.23205 0
      vertex -5.35304 5.94516 0
    endloop
  endfacet
  facet normal 0 0 -1
    outer loop
      vertex -5.82492 4.23205 0
      vertex -6.57753 2.9285 0
      vertex -7.30836 3.25389 0
    endloop
  endfacet
  facet normal 0 0 -1
    outer loop
      vertex -7.04266 1.49696 0
      vertex -7.82518 1.66329 0
      vertex -7.30836 3.25389 0
    endloop
  endfacet
  facet normal -0 0 -1
    outer loop
      vertex -6.57753 2.9285 0
      vertex -7.04266 1.49696 0
      vertex -7.30836 3.25389 0
    endloop
  endfacet
  facet normal -0 0 -1
    outer loop
      vertex -7.04266 1.49696 0
      vertex -8 4.5324e-015 0
      vertex -7.82518 1.66329 0
    endloop
  endfacet
  facet normal 0.207912 -0.978148 0
    outer loop
      vertex 2.47214 -7.60845 0
      vertex 0.836228 -7.95618 40
      vertex 0.836228 -7.95618 0
    endloop
  endfacet
  facet normal 0.207912 -0.978148 0
    outer loop
      vertex 2.47214 -7.60845 0
      vertex 2.47214 -7.60845 40
      vertex 0.836228 -7.95618 40
    endloop
  endfacet
  facet normal -0.743145 0.669131 0
    outer loop
      vertex -6.47214 4.70228 40
      vertex -5.35304 5.94516 0
      vertex -6.47214 4.70228 0
    endloop
  endfacet
  facet normal -0.743145 0.669131 0
    outer loop
      vertex -6.47214 4.70228 40
      vertex -5.35304 5.94516 40
      vertex -5.35304 5.94516 0
    endloop
  endfacet
  facet normal -0.743145 -0.669131 0
    outer loop
      vertex -5.35304 -5.94516 40
      vertex -6.47214 -4.70228 40
      vertex -6.47214 -4.70228 0
    endloop
  endfacet
  facet normal -0.743145 -0.669131 0
    outer loop
      vertex -5.35304 -5.94516 0
      vertex -5.35304 -5.94516 40
      vertex -6.47214 -4.70228 0
    endloop
  endfacet
  facet normal -0.207912 -0.978148 0
    outer loop
      vertex -0.836228 -7.95618 0
      vertex -2.47214 -7.60845 40
      vertex -2.47214 -7.60845 0
    endloop
  endfacet
  facet normal -0.207912 -0.978148 0
    outer loop
      vertex -0.836228 -7.95618 0
      vertex -0.836228 -7.95618 40
      vertex -2.47214 -7.60845 40
    endloop
  endfacet
  facet normal 0.994522 -0.104528 0
    outer loop
      vertex 8 0 0
      vertex 7.82518 -1.66329 40
      vertex 7.82518 -1.66329 0
    endloop
  endfacet
  facet normal 0.994522 -0.104528 0
    outer loop
      vertex 8 0 0
      vertex 8 0 40
      vertex 7.82518 -1.66329 40
    endloop
  endfacet
  facet normal 0.406737 -0.913545 0
    outer loop
      vertex 4 -6.9282 0
      vertex 2.47214 -7.60845 40
      vertex 2.47214 -7.60845 0
    endloop
  endfacet
  facet normal 0.406737 -0.913545 0
    outer loop
      vertex 4 -6.9282 0
      vertex 4 -6.9282 40
      vertex 2.47214 -7.60845 40
    endloop
  endfacet
  facet normal 0.743145 0.669131 0
    outer loop
      vertex 6.47214 4.70228 40
      vertex 6.47214 4.70228 0
      vertex 5.35304 5.94516 0
    endloop
  endfacet
  facet normal 0.743145 0.669131 0
    outer loop
      vertex 5.35304 5.94516 40
      vertex 6.47214 4.70228 40
      vertex 5.35304 5.94516 0
    endloop
  endfacet
  facet normal -5.31063e-016 -1 0
    outer loop
      vertex 0.836228 -7.95618 0
      vertex -0.836228 -7.95618 40
      vertex -0.836228 -7.95618 0
    endloop
  endfacet
  facet normal -5.31063e-016 -1 0
    outer loop
      vertex 0.836228 -7.95618 0
      vertex 0.836228 -7.95618 40
      vertex -0.836228 -7.95618 40
    endloop
  endfacet
  facet normal -0.994522 0.104528 0
    outer loop
      vertex -8 4.5324e-015 40
      vertex -7.82518 1.66329 0
      vertex -8 4.5324e-015 0
    endloop
  endfacet
  facet normal -0.994522 0.104528 0
    outer loop
      vertex -8 4.5324e-015 40
      vertex -7.82518 1.66329 40
      vertex -7.82518 1.66329 0
    endloop
  endfacet
  facet normal 0.951057 -0.309017 0
    outer loop
      vertex 7.82518 -1.66329 0
      vertex 7.30836 -3.25389 40
      vertex 7.30836 -3.25389 0
    endloop
  endfacet
  facet normal 0.951057 -0.309017 0
    outer loop
      vertex 7.82518 -1.66329 0
      vertex 7.82518 -1.66329 40
      vertex 7.30836 -3.25389 40
    endloop
  endfacet
  facet normal 0.743145 -0.669131 0
    outer loop
      vertex 6.47214 -4.70228 0
      vertex 5.35304 -5.94516 40
      vertex 5.35304 -5.94516 0
    endloop
  endfacet
  facet normal 0.743145 -0.669131 0
    outer loop
      vertex 6.47214 -4.70228 0
      vertex 6.47214 -4.70228 40
      vertex 5.35304 -5.94516 40
    endloop
  endfacet
  facet normal 0.866025 -0.5 0
    outer loop
      vertex 7.30836 -3.25389 0
      vertex 6.47214 -4.70228 40
      vertex 6.47214 -4.70228 0
    endloop
  endfacet
  facet normal 0.866025 -0.5 0
    outer loop
      vertex 7.30836 -3.25389 0
      vertex 7.30836 -3.25389 40
      vertex 6.47214 -4.70228 40
    endloop
  endfacet
  facet normal 0.951057 0.309017 0
    outer loop
      vertex 7.82518 1.66329 40
      vertex 7.82518 1.66329 0
      vertex 7.30836 3.25389 0
    endloop
  endfacet
  facet normal 0.951057 0.309017 0
    outer loop
      vertex 7.30836 3.25389 40
      vertex 7.82518 1.66329 40
      vertex 7.30836 3.25389 0
    endloop
  endfacet
  facet normal 0.994522 0.104528 0
    outer loop
      vertex 8 0 40
      vertex 8 0 0
      vertex 7.82518 1.66329 0
    endloop
  endfacet
  facet normal 0.994522 0.104528 0
    outer loop
      vertex 7.82518 1.66329 40
      vertex 8 0 40
      vertex 7.82518 1.66329 0
    endloop
  endfacet
  facet normal 5.31063e-016 1 0
    outer loop
      vertex -0.836228 7.95618 40
      vertex 0.836228 7.95618 0
      vertex -0.836228 7.95618 0
    endloop
  endfacet
  facet normal 5.31063e-016 1 0
    outer loop
      vertex -0.836228 7.95618 40
      vertex 0.836228 7.95618 40
      vertex 0.836228 7.95618 0
    endloop
  endfacet
  facet normal -0.866025 0.5 0
    outer loop
      vertex -7.30836 3.25389 40
      vertex -6.47214 4.70228 0
      vertex -7.30836 3.25389 0
    endloop
  endfacet
  facet normal -0.866025 0.5 0
    outer loop
      vertex -7.30836 3.25389 40
      vertex -6.47214 4.70228 40
      vertex -6.47214 4.70228 0
    endloop
  endfacet
  facet normal -0.406737 -0.913545 0
    outer loop
      vertex -2.47214 -7.60845 0
      vertex -4 -6.9282 40
      vertex -4 -6.9282 0
    endloop
  endfacet
  facet normal -0.406737 -0.913545 0
    outer loop
      vertex -2.47214 -7.60845 0
      vertex -2.47214 -7.60845 40
      vertex -4 -6.9282 40
    endloop
  endfacet
  facet normal -0.587785 -0.809017 0
    outer loop
      vertex -4 -6.9282 0
      vertex -5.35304 -5.94516 40
      vertex -5.35304 -5.94516 0
    endloop
  endfacet
  facet normal -0.587785 -0.809017 0
    outer loop
      vertex -4 -6.9282 0
      vertex -4 -6.9282 40
      vertex -5.35304 -5.94516 40
    endloop
  endfacet
  facet normal -0.866025 -0.5 0
    outer loop
      vertex -6.47214 -4.70228 40
      vertex -7.30836 -3.25389 40
      vertex -7.30836 -3.25389 0
    endloop
  endfacet
  facet normal -0.866025 -0.5 0
    outer loop
      vertex -6.47214 -4.70228 0
      vertex -6.47214 -4.70228 40
      vertex -7.30836 -3.25389 0
    endloop
  endfacet
  facet normal -0.951057 -0.309017 0
    outer loop
      vertex -7.30836 -3.25389 40
      vertex -7.82518 -1.66329 40
      vertex -7.82518 -1.66329 0
    endloop
  endfacet
  facet normal -0.951057 -0.309017 0
    outer loop
      vertex -7.30836 -3.25389 0
      vertex -7.30836 -3.25389 40
      vertex -7.82518 -1.66329 0
    endloop
  endfacet
  facet normal 0.866025 0.5 0
    outer loop
      vertex 7.30836 3.25389 40
      vertex 7.30836 3.25389 0
      vertex 6.47214 4.70228 0
    endloop
  endfacet
  facet normal 0.866025 0.5 0
    outer loop
      vertex 6.47214 4.70228 40
      vertex 7.30836 3.25389 40
      vertex 6.47214 4.70228 0
    endloop
  endfacet
  facet normal -0.587785 0.809017 0
    outer loop
      vertex -5.35304 5.94516 40
      vertex -4 6.9282 0
      vertex -5.35304 5.94516 0
    endloop
  endfacet
  facet normal -0.587785 0.809017 0
    outer loop
      vertex -5.35304 5.94516 40
      vertex -4 6.9282 40
      vertex -4 6.9282 0
    endloop
  endfacet
  facet normal -0.406737 0.913545 0
    outer loop
      vertex -4 6.9282 40
      vertex -2.47214 7.60845 0
      vertex -4 6.9282 0
    endloop
  endfacet
  facet normal -0.406737 0.913545 0
    outer loop
      vertex -4 6.9282 40
      vertex -2.47214 7.60845 40
      vertex -2.47214 7.60845 0
    endloop
  endfacet
  facet normal -0.207912 0.978148 0
    outer loop
      vertex -2.47214 7.60845 40
      vertex -0.836228 7.95618 0
      vertex -2.47214 7.60845 0
    endloop
  endfacet
  facet normal -0.207912 0.978148 0
    outer loop
      vertex -2.47214 7.60845 40
      vertex -0.836228 7.95618 40
      vertex -0.836228 7.95618 0
    endloop
  endfacet
  facet normal -0.951057 0.309017 0
    outer loop
      vertex -7.82518 1.66329 40
      vertex -7.30836 3.25389 0
      vertex -7.82518 1.66329 0
    endloop
  endfacet
  facet normal -0.951057 0.309017 0
    outer loop
      vertex -7.82518 1.66329 40
      vertex -7.30836 3.25389 40
      vertex -7.30836 3.25389 0
    endloop
  endfacet
  facet normal 0 0 1
    outer loop
      vertex -7.30836 3.25389 40
      vertex -7.82518 1.66329 40
      vertex -7.04266 1.49696 40
    endloop
  endfacet
  facet normal 0 -0 1
    outer loop
      vertex -7.82518 -1.66329 40
      vertex -7.2 4.07916e-015 40
      vertex -8 4.5324e-015 40
    endloop
  endfacet
  facet normal 0 -0 1
    outer loop
      vertex -7.30836 -3.25389 40
      vertex -7.04266 -1.49696 40
      vertex -7.82518 -1.66329 40
    endloop
  endfacet
  facet normal 0 0 1
    outer loop
      vertex -7.04266 1.49696 40
      vertex -7.82518 1.66329 40
      vertex -8 4.5324e-015 40
    endloop
  endfacet
  facet normal -0 0 1
    outer loop
      vertex -8 4.5324e-015 40
      vertex -7.2 4.07916e-015 40
      vertex -7.04266 1.49696 40
    endloop
  endfacet
  facet normal 0 0 1
    outer loop
      vertex -7.2 4.07916e-015 40
      vertex -7.82518 -1.66329 40
      vertex -7.04266 -1.49696 40
    endloop
  endfacet
  facet normal 0 0 1
    outer loop
      vertex -7.30836 3.25389 40
      vertex -5.82492 4.23205 40
      vertex -6.47214 4.70228 40
    endloop
  endfacet
  facet normal 0 0 1
    outer loop
      vertex -4 6.9282 40
      vertex -5.35304 5.94516 40
      vertex -4.81774 5.35064 40
    endloop
  endfacet
  facet normal 0 -0 1
    outer loop
      vertex -7.04266 1.49696 40
      vertex -6.57753 2.9285 40
      vertex -7.30836 3.25389 40
    endloop
  endfacet
  facet normal 0 -0 1
    outer loop
      vertex -5.82492 4.23205 40
      vertex -5.35304 5.94516 40
      vertex -6.47214 4.70228 40
    endloop
  endfacet
  facet normal 0 0 1
    outer loop
      vertex -5.35304 5.94516 40
      vertex -5.82492 4.23205 40
      vertex -4.81774 5.35064 40
    endloop
  endfacet
  facet normal 0 0 1
    outer loop
      vertex -5.82492 4.23205 40
      vertex -7.30836 3.25389 40
      vertex -6.57753 2.9285 40
    endloop
  endfacet
  facet normal -0 0 1
    outer loop
      vertex -4 6.9282 40
      vertex -2.22492 6.84761 40
      vertex -2.47214 7.60845 40
    endloop
  endfacet
  facet normal 0 0 1
    outer loop
      vertex 0.836228 7.95618 40
      vertex -0.836228 7.95618 40
      vertex -0.752605 7.16056 40
    endloop
  endfacet
  facet normal 0 0 1
    outer loop
      vertex -4.81774 5.35064 40
      vertex -3.6 6.23538 40
      vertex -4 6.9282 40
    endloop
  endfacet
  facet normal 0 0 1
    outer loop
      vertex -0.752605 7.16056 40
      vertex -0.836228 7.95618 40
      vertex -2.47214 7.60845 40
    endloop
  endfacet
  facet normal 0 0 1
    outer loop
      vertex -2.47214 7.60845 40
      vertex -2.22492 6.84761 40
      vertex -0.752605 7.16056 40
    endloop
  endfacet
  facet normal 0 0 1
    outer loop
      vertex -2.22492 6.84761 40
      vertex -4 6.9282 40
      vertex -3.6 6.23538 40
    endloop
  endfacet
  facet normal 0 0 1
    outer loop
      vertex 0.836228 7.95618 40
      vertex 0.752605 7.16056 40
      vertex 2.47214 7.60845 40
    endloop
  endfacet
  facet normal 0 0 1
    outer loop
      vertex 5.35304 5.94516 40
      vertex 4 6.9282 40
      vertex 3.6 6.23538 40
    endloop
  endfacet
  facet normal -0 0 1
    outer loop
      vertex -0.752605 7.16056 40
      vertex 0.752605 7.16056 40
      vertex 0.836228 7.95618 40
    endloop
  endfacet
  facet normal 0 -0 1
    outer loop
      vertex 3.6 6.23538 40
      vertex 4 6.9282 40
      vertex 2.47214 7.60845 40
    endloop
  endfacet
  facet normal 0 0 1
    outer loop
      vertex 2.47214 7.60845 40
      vertex 2.22492 6.84761 40
      vertex 3.6 6.23538 40
    endloop
  endfacet
  facet normal 0 -0 1
    outer loop
      vertex 2.22492 6.84761 40
      vertex 2.47214 7.60845 40
      vertex 0.752605 7.16056 40
    endloop
  endfacet
  facet normal 0 0 1
    outer loop
      vertex 5.35304 5.94516 40
      vertex 4.81774 5.35064 40
      vertex 6.47214 4.70228 40
    endloop
  endfacet
  facet normal 0 0 1
    outer loop
      vertex 7.82518 1.66329 40
      vertex 7.30836 3.25389 40
      vertex 7.04266 1.49696 40
    endloop
  endfacet
  facet normal 0 0 1
    outer loop
      vertex 3.6 6.23538 40
      vertex 4.81774 5.35064 40
      vertex 5.35304 5.94516 40
    endloop
  endfacet
  facet normal -0 0 1
    outer loop
      vertex 5.82492 4.23205 40
      vertex 7.30836 3.25389 40
      vertex 6.47214 4.70228 40
    endloop
  endfacet
  facet normal 0 0 1
    outer loop
      vertex 7.30836 3.25389 40
      vertex 5.82492 4.23205 40
      vertex 6.57753 2.9285 40
    endloop
  endfacet
  facet normal 0 -0 1
    outer loop
      vertex 5.82492 4.23205 40
      vertex 6.47214 4.70228 40
      vertex 4.81774 5.35064 40
    endloop
  endfacet
  facet normal 0 0 1
    outer loop
      vertex 7.82518 1.66329 40
      vertex 7.04266 1.49696 40
      vertex 8 0 40
    endloop
  endfacet
  facet normal 0 -0 1
    outer loop
      vertex 7.30836 -3.25389 40
      vertex 7.82518 -1.66329 40
      vertex 6.57753 -2.9285 40
    endloop
  endfacet
  facet normal -0 0 1
    outer loop
      vertex 6.57753 2.9285 40
      vertex 7.04266 1.49696 40
      vertex 7.30836 3.25389 40
    endloop
  endfacet
  facet normal -0 0 1
    outer loop
      vertex 7.2 0 40
      vertex 7.82518 -1.66329 40
      vertex 8 0 40
    endloop
  endfacet
  facet normal 0 0 1
    outer loop
      vertex 7.82518 -1.66329 40
      vertex 7.2 0 40
      vertex 7.04266 -1.49696 40
    endloop
  endfacet
  facet normal 0 -0 1
    outer loop
      vertex 7.2 0 40
      vertex 8 0 40
      vertex 7.04266 1.49696 40
    endloop
  endfacet
  facet normal 0 0 1
    outer loop
      vertex 7.30836 -3.25389 40
      vertex 5.82492 -4.23205 40
      vertex 6.47214 -4.70228 40
    endloop
  endfacet
  facet normal 0 -0 1
    outer loop
      vertex 4 -6.9282 40
      vertex 5.35304 -5.94516 40
      vertex 3.6 -6.23538 40
    endloop
  endfacet
  facet normal 0 0 1
    outer loop
      vertex 7.04266 -1.49696 40
      vertex 6.57753 -2.9285 40
      vertex 7.82518 -1.66329 40
    endloop
  endfacet
  facet normal 0 0 1
    outer loop
      vertex 5.82492 -4.23205 40
      vertex 5.35304 -5.94516 40
      vertex 6.47214 -4.70228 40
    endloop
  endfacet
  facet normal 0 -0 1
    outer loop
      vertex 5.35304 -5.94516 40
      vertex 5.82492 -4.23205 40
      vertex 4.81774 -5.35064 40
    endloop
  endfacet
  facet normal 0 0 1
    outer loop
      vertex 5.82492 -4.23205 40
      vertex 7.30836 -3.25389 40
      vertex 6.57753 -2.9285 40
    endloop
  endfacet
  facet normal 0 0 1
    outer loop
      vertex 4 -6.9282 40
      vertex 2.22492 -6.84761 40
      vertex 2.47214 -7.60845 40
    endloop
  endfacet
  facet normal -0 0 1
    outer loop
      vertex -0.836228 -7.95618 40
      vertex 0.836228 -7.95618 40
      vertex -0.752605 -7.16056 40
    endloop
  endfacet
  facet normal 0 0 1
    outer loop
      vertex 4.81774 -5.35064 40
      vertex 3.6 -6.23538 40
      vertex 5.35304 -5.94516 40
    endloop
  endfacet
  facet normal 0 0 1
    outer loop
      vertex 0.752605 -7.16056 40
      vertex 0.836228 -7.95618 40
      vertex 2.47214 -7.60845 40
    endloop
  endfacet
  facet normal 0 0 1
    outer loop
      vertex 2.47214 -7.60845 40
      vertex 2.22492 -6.84761 40
      vertex 0.752605 -7.16056 40
    endloop
  endfacet
  facet normal -0 0 1
    outer loop
      vertex 2.22492 -6.84761 40
      vertex 4 -6.9282 40
      vertex 3.6 -6.23538 40
    endloop
  endfacet
  facet normal 0 -0 1
    outer loop
      vertex -0.836228 -7.95618 40
      vertex -0.752605 -7.16056 40
      vertex -2.47214 -7.60845 40
    endloop
  endfacet
  facet normal -0 0 1
    outer loop
      vertex -5.35304 -5.94516 40
      vertex -4 -6.9282 40
      vertex -4.81774 -5.35064 40
    endloop
  endfacet
  facet normal 0 0 1
    outer loop
      vertex 0.752605 -7.16056 40
      vertex -0.752605 -7.16056 40
      vertex 0.836228 -7.95618 40
    endloop
  endfacet
  facet normal 0 0 1
    outer loop
      vertex -2.22492 -6.84761 40
      vertex -4 -6.9282 40
      vertex -2.47214 -7.60845 40
    endloop
  endfacet
  facet normal 0 0 1
    outer loop
      vertex -4 -6.9282 40
      vertex -2.22492 -6.84761 40
      vertex -3.6 -6.23538 40
    endloop
  endfacet
  facet normal 0 0 1
    outer loop
      vertex -2.22492 -6.84761 40
      vertex -2.47214 -7.60845 40
      vertex -0.752605 -7.16056 40
    endloop
  endfacet
  facet normal 0 0 1
    outer loop
      vertex -5.35304 -5.94516 40
      vertex -5.82492 -4.23205 40
      vertex -6.47214 -4.70228 40
    endloop
  endfacet
  facet normal 0 0 1
    outer loop
      vertex -3.6 -6.23538 40
      vertex -4.81774 -5.35064 40
      vertex -4 -6.9282 40
    endloop
  endfacet
  facet normal 0 0 1
    outer loop
      vertex -5.82492 -4.23205 40
      vertex -7.30836 -3.25389 40
      vertex -6.47214 -4.70228 40
    endloop
  endfacet
  facet normal 0 0 1
    outer loop
      vertex -4.81774 -5.35064 40
      vertex -5.82492 -4.23205 40
      vertex -5.35304 -5.94516 40
    endloop
  endfacet
  facet normal 0 0 1
    outer loop
      vertex -5.82492 -4.23205 40
      vertex -6.57753 -2.9285 40
      vertex -7.30836 -3.25389 40
    endloop
  endfacet
  facet normal 0 0 1
    outer loop
      vertex -6.57753 -2.9285 40
      vertex -7.04266 -1.49696 40
      vertex -7.30836 -3.25389 40
    endloop
  endfacet
  facet normal 0.587785 -0.809017 0
    outer loop
      vertex 5.35304 -5.94516 0
      vertex 4 -6.9282 40
      vertex 4 -6.9282 0
    endloop
  endfacet
  facet normal 0.587785 -0.809017 0
    outer loop
      vertex 5.35304 -5.94516 0
      vertex 5.35304 -5.94516 40
      vertex 4 -6.9282 40
    endloop
  endfacet
  facet normal 0.207912 0.978148 0
    outer loop
      vertex 0.836228 7.95618 40
      vertex 2.47214 7.60845 0
      vertex 0.836228 7.95618 0
    endloop
  endfacet
  facet normal 0.207912 0.978148 0
    outer loop
      vertex 0.836228 7.95618 40
      vertex 2.47214 7.60845 40
      vertex 2.47214 7.60845 0
    endloop
  endfacet
  facet normal 0.406737 0.913545 0
    outer loop
      vertex 2.47214 7.60845 40
      vertex 4 6.9282 0
      vertex 2.47214 7.60845 0
    endloop
  endfacet
  facet normal 0.406737 0.913545 0
    outer loop
      vertex 2.47214 7.60845 40
      vertex 4 6.9282 40
      vertex 4 6.9282 0
    endloop
  endfacet
  facet normal 0.587785 0.809017 0
    outer loop
      vertex 4 6.9282 40
      vertex 5.35304 5.94516 0
      vertex 4 6.9282 0
    endloop
  endfacet
  facet normal 0.587785 0.809017 0
    outer loop
      vertex 4 6.9282 40
      vertex 5.35304 5.94516 40
      vertex 5.35304 5.94516 0
    endloop
  endfacet
  facet normal 0.994522 0.104528 -0
    outer loop
      vertex -7.2 4.07916e-015 0
      vertex -7.2 4.07916e-015 40
      vertex -7.04266 -1.49696 40
    endloop
  endfacet
  facet normal 0.994522 0.104528 -0
    outer loop
      vertex -7.04266 -1.49696 0
      vertex -7.2 4.07916e-015 0
      vertex -7.04266 -1.49696 40
    endloop
  endfacet
  facet normal -0.207912 0.978148 0
    outer loop
      vertex 2.22492 -6.84761 0
      vertex 0.752605 -7.16056 40
      vertex 2.22492 -6.84761 40
    endloop
  endfacet
  facet normal -0.207912 0.978148 0
    outer loop
      vertex 2.22492 -6.84761 0
      vertex 0.752605 -7.16056 0
      vertex 0.752605 -7.16056 40
    endloop
  endfacet
  facet normal 0.743145 -0.669131 0
    outer loop
      vertex -5.82492 4.23205 40
      vertex -4.81774 5.35064 0
      vertex -4.81774 5.35064 40
    endloop
  endfacet
  facet normal 0.743145 -0.669131 0
    outer loop
      vertex -5.82492 4.23205 40
      vertex -5.82492 4.23205 0
      vertex -4.81774 5.35064 0
    endloop
  endfacet
  facet normal -0.994522 0.104528 0
    outer loop
      vertex 7.2 0 0
      vertex 7.04266 -1.49696 40
      vertex 7.2 0 40
    endloop
  endfacet
  facet normal -0.994522 0.104528 0
    outer loop
      vertex 7.2 0 0
      vertex 7.04266 -1.49696 0
      vertex 7.04266 -1.49696 40
    endloop
  endfacet
  facet normal -0.406737 0.913545 0
    outer loop
      vertex 3.6 -6.23538 0
      vertex 2.22492 -6.84761 40
      vertex 3.6 -6.23538 40
    endloop
  endfacet
  facet normal -0.406737 0.913545 0
    outer loop
      vertex 3.6 -6.23538 0
      vertex 2.22492 -6.84761 0
      vertex 2.22492 -6.84761 40
    endloop
  endfacet
  facet normal -0.743145 0.669131 0
    outer loop
      vertex 5.82492 -4.23205 0
      vertex 4.81774 -5.35064 40
      vertex 5.82492 -4.23205 40
    endloop
  endfacet
  facet normal -0.743145 0.669131 0
    outer loop
      vertex 5.82492 -4.23205 0
      vertex 4.81774 -5.35064 0
      vertex 4.81774 -5.35064 40
    endloop
  endfacet
  facet normal 0.994522 -0.104528 0
    outer loop
      vertex -7.2 4.07916e-015 40
      vertex -7.04266 1.49696 0
      vertex -7.04266 1.49696 40
    endloop
  endfacet
  facet normal 0.994522 -0.104528 0
    outer loop
      vertex -7.2 4.07916e-015 40
      vertex -7.2 4.07916e-015 0
      vertex -7.04266 1.49696 0
    endloop
  endfacet
  facet normal -0.951057 0.309017 0
    outer loop
      vertex 7.04266 -1.49696 0
      vertex 6.57753 -2.9285 40
      vertex 7.04266 -1.49696 40
    endloop
  endfacet
  facet normal -0.951057 0.309017 0
    outer loop
      vertex 7.04266 -1.49696 0
      vertex 6.57753 -2.9285 0
      vertex 6.57753 -2.9285 40
    endloop
  endfacet
  facet normal -0.866025 0.5 0
    outer loop
      vertex 6.57753 -2.9285 0
      vertex 5.82492 -4.23205 40
      vertex 6.57753 -2.9285 40
    endloop
  endfacet
  facet normal -0.866025 0.5 0
    outer loop
      vertex 6.57753 -2.9285 0
      vertex 5.82492 -4.23205 0
      vertex 5.82492 -4.23205 40
    endloop
  endfacet
  facet normal -0.743145 -0.669131 0
    outer loop
      vertex 4.81774 5.35064 0
      vertex 5.82492 4.23205 0
      vertex 5.82492 4.23205 40
    endloop
  endfacet
  facet normal -0.743145 -0.669131 -0
    outer loop
      vertex 4.81774 5.35064 40
      vertex 4.81774 5.35064 0
      vertex 5.82492 4.23205 40
    endloop
  endfacet
  facet normal -0.866025 -0.5 0
    outer loop
      vertex 5.82492 4.23205 0
      vertex 6.57753 2.9285 0
      vertex 6.57753 2.9285 40
    endloop
  endfacet
  facet normal -0.866025 -0.5 -0
    outer loop
      vertex 5.82492 4.23205 40
      vertex 5.82492 4.23205 0
      vertex 6.57753 2.9285 40
    endloop
  endfacet
  facet normal -0.951057 -0.309017 0
    outer loop
      vertex 6.57753 2.9285 0
      vertex 7.04266 1.49696 0
      vertex 7.04266 1.49696 40
    endloop
  endfacet
  facet normal -0.951057 -0.309017 -0
    outer loop
      vertex 6.57753 2.9285 40
      vertex 6.57753 2.9285 0
      vertex 7.04266 1.49696 40
    endloop
  endfacet
  facet normal -0.994522 -0.104528 0
    outer loop
      vertex 7.04266 1.49696 0
      vertex 7.2 0 0
      vertex 7.2 0 40
    endloop
  endfacet
  facet normal -0.994522 -0.104528 -0
    outer loop
      vertex 7.04266 1.49696 40
      vertex 7.04266 1.49696 0
      vertex 7.2 0 40
    endloop
  endfacet
  facet normal -5.90069e-016 -1 0
    outer loop
      vertex -0.752605 7.16056 40
      vertex 0.752605 7.16056 0
      vertex 0.752605 7.16056 40
    endloop
  endfacet
  facet normal -5.90069e-016 -1 -0
    outer loop
      vertex -0.752605 7.16056 40
      vertex -0.752605 7.16056 0
      vertex 0.752605 7.16056 0
    endloop
  endfacet
  facet normal 0.866025 -0.5 0
    outer loop
      vertex -6.57753 2.9285 40
      vertex -5.82492 4.23205 0
      vertex -5.82492 4.23205 40
    endloop
  endfacet
  facet normal 0.866025 -0.5 0
    outer loop
      vertex -6.57753 2.9285 40
      vertex -6.57753 2.9285 0
      vertex -5.82492 4.23205 0
    endloop
  endfacet
  facet normal 0.207912 0.978148 -0
    outer loop
      vertex -0.752605 -7.16056 0
      vertex -2.22492 -6.84761 40
      vertex -0.752605 -7.16056 40
    endloop
  endfacet
  facet normal 0.207912 0.978148 0
    outer loop
      vertex -0.752605 -7.16056 0
      vertex -2.22492 -6.84761 0
      vertex -2.22492 -6.84761 40
    endloop
  endfacet
  facet normal 0.587785 0.809017 -0
    outer loop
      vertex -3.6 -6.23538 0
      vertex -4.81774 -5.35064 40
      vertex -3.6 -6.23538 40
    endloop
  endfacet
  facet normal 0.587785 0.809017 0
    outer loop
      vertex -3.6 -6.23538 0
      vertex -4.81774 -5.35064 0
      vertex -4.81774 -5.35064 40
    endloop
  endfacet
  facet normal 0.743145 0.669131 -0
    outer loop
      vertex -5.82492 -4.23205 0
      vertex -5.82492 -4.23205 40
      vertex -4.81774 -5.35064 40
    endloop
  endfacet
  facet normal 0.743145 0.669131 -0
    outer loop
      vertex -4.81774 -5.35064 0
      vertex -5.82492 -4.23205 0
      vertex -4.81774 -5.35064 40
    endloop
  endfacet
  facet normal 0.866025 0.5 -0
    outer loop
      vertex -6.57753 -2.9285 0
      vertex -6.57753 -2.9285 40
      vertex -5.82492 -4.23205 40
    endloop
  endfacet
  facet normal 0.866025 0.5 -0
    outer loop
      vertex -5.82492 -4.23205 0
      vertex -6.57753 -2.9285 0
      vertex -5.82492 -4.23205 40
    endloop
  endfacet
  facet normal 0.951057 0.309017 -0
    outer loop
      vertex -7.04266 -1.49696 0
      vertex -7.04266 -1.49696 40
      vertex -6.57753 -2.9285 40
    endloop
  endfacet
  facet normal 0.951057 0.309017 -0
    outer loop
      vertex -6.57753 -2.9285 0
      vertex -7.04266 -1.49696 0
      vertex -6.57753 -2.9285 40
    endloop
  endfacet
  facet normal -0.587785 0.809017 0
    outer loop
      vertex 4.81774 -5.35064 0
      vertex 3.6 -6.23538 40
      vertex 4.81774 -5.35064 40
    endloop
  endfacet
  facet normal -0.587785 0.809017 0
    outer loop
      vertex 4.81774 -5.35064 0
      vertex 3.6 -6.23538 0
      vertex 3.6 -6.23538 40
    endloop
  endfacet
  facet normal 0.587785 -0.809017 0
    outer loop
      vertex -4.81774 5.35064 40
      vertex -3.6 6.23538 0
      vertex -3.6 6.23538 40
    endloop
  endfacet
  facet normal 0.587785 -0.809017 0
    outer loop
      vertex -4.81774 5.35064 40
      vertex -4.81774 5.35064 0
      vertex -3.6 6.23538 0
    endloop
  endfacet
  facet normal 0.406737 -0.913545 0
    outer loop
      vertex -3.6 6.23538 40
      vertex -2.22492 6.84761 0
      vertex -2.22492 6.84761 40
    endloop
  endfacet
  facet normal 0.406737 -0.913545 0
    outer loop
      vertex -3.6 6.23538 40
      vertex -3.6 6.23538 0
      vertex -2.22492 6.84761 0
    endloop
  endfacet
  facet normal 0.207912 -0.978148 0
    outer loop
      vertex -2.22492 6.84761 40
      vertex -0.752605 7.16056 0
      vertex -0.752605 7.16056 40
    endloop
  endfacet
  facet normal 0.207912 -0.978148 0
    outer loop
      vertex -2.22492 6.84761 40
      vertex -2.22492 6.84761 0
      vertex -0.752605 7.16056 0
    endloop
  endfacet
  facet normal 0.951057 -0.309017 0
    outer loop
      vertex -7.04266 1.49696 40
      vertex -6.57753 2.9285 0
      vertex -6.57753 2.9285 40
    endloop
  endfacet
  facet normal 0.951057 -0.309017 0
    outer loop
      vertex -7.04266 1.49696 40
      vertex -7.04266 1.49696 0
      vertex -6.57753 2.9285 0
    endloop
  endfacet
  facet normal 0.406737 0.913545 -0
    outer loop
      vertex -2.22492 -6.84761 0
      vertex -3.6 -6.23538 40
      vertex -2.22492 -6.84761 40
    endloop
  endfacet
  facet normal 0.406737 0.913545 0
    outer loop
      vertex -2.22492 -6.84761 0
      vertex -3.6 -6.23538 0
      vertex -3.6 -6.23538 40
    endloop
  endfacet
  facet normal 5.90069e-016 1 -0
    outer loop
      vertex 0.752605 -7.16056 0
      vertex -0.752605 -7.16056 40
      vertex 0.752605 -7.16056 40
    endloop
  endfacet
  facet normal 5.90069e-016 1 0
    outer loop
      vertex 0.752605 -7.16056 0
      vertex -0.752605 -7.16056 0
      vertex -0.752605 -7.16056 40
    endloop
  endfacet
  facet normal -0.207912 -0.978148 0
    outer loop
      vertex 0.752605 7.16056 40
      vertex 2.22492 6.84761 0
      vertex 2.22492 6.84761 40
    endloop
  endfacet
  facet normal -0.207912 -0.978148 -0
    outer loop
      vertex 0.752605 7.16056 40
      vertex 0.752605 7.16056 0
      vertex 2.22492 6.84761 0
    endloop
  endfacet
  facet normal -0.406737 -0.913545 0
    outer loop
      vertex 2.22492 6.84761 40
      vertex 3.6 6.23538 0
      vertex 3.6 6.23538 40
    endloop
  endfacet
  facet normal -0.406737 -0.913545 -0
    outer loop
      vertex 2.22492 6.84761 40
      vertex 2.22492 6.84761 0
      vertex 3.6 6.23538 0
    endloop
  endfacet
  facet normal -0.587785 -0.809017 0
    outer loop
      vertex 3.6 6.23538 40
      vertex 4.81774 5.35064 0
      vertex 4.81774 5.35064 40
    endloop
  endfacet
  facet normal -0.587785 -0.809017 -0
    outer loop
      vertex 3.6 6.23538 40
      vertex 3.6 6.23538 0
      vertex 4.81774 5.35064 0
    endloop
  endfacet
endsolid OpenSCAD_Model
